{"glyphs":{"0":{"ha":972,"x_min":21,"x_max":949,"o":"m 72 443 q 111 278 76 357 q 203 141 146 200 q 338 47 261 82 q 504 13 415 13 q 725 80 629 13 q 861 267 821 147 q 871 308 865 283 q 881 355 876 333 q 888 390 885 376 q 892 396 892 403 q 912 418 901 413 q 931 428 922 424 q 944 444 939 433 q 949 482 949 456 q 936 537 949 511 q 903 583 924 563 q 869 826 900 710 q 757 1039 839 942 q 708 1086 736 1064 q 647 1125 679 1108 q 580 1151 615 1142 q 510 1161 544 1161 q 331 1111 410 1161 q 199 983 253 1061 q 117 811 144 906 q 89 629 89 717 q 76 608 88 617 q 53 590 65 600 q 31 566 40 581 q 21 525 21 551 q 35 479 21 496 q 72 443 50 463 m 171 396 q 174 450 171 424 q 176 504 176 476 q 170 544 176 529 q 155 572 164 560 q 133 594 146 583 q 108 619 121 604 l 108 644 q 121 756 108 699 q 157 868 133 814 q 215 971 181 922 q 294 1056 250 1019 q 392 1113 339 1092 q 506 1135 444 1135 q 663 1090 600 1135 q 762 974 725 1044 q 814 815 799 903 q 829 642 829 728 q 820 597 829 613 q 799 567 811 581 q 778 538 788 553 q 767 494 768 522 l 767 428 q 765 388 767 413 q 760 341 763 364 q 754 301 757 318 q 751 282 751 283 q 632 131 711 182 q 444 79 553 79 q 387 87 414 79 q 332 106 360 94 q 250 157 282 128 q 201 222 218 186 q 177 300 183 257 q 171 396 171 343 m 244 200 l 244 194 q 253 181 244 190 q 272 163 261 172 q 294 147 283 154 q 311 138 306 139 q 392 109 363 118 q 450 100 422 100 l 471 100 q 589 128 538 100 q 685 204 640 157 q 699 224 692 211 q 706 246 706 236 l 706 251 q 692 239 700 249 q 679 219 685 229 q 582 147 632 172 q 464 121 532 121 q 356 142 403 121 q 260 194 310 163 q 244 200 251 200 m 275 456 q 287 374 275 417 q 322 294 299 331 q 378 233 344 257 q 458 210 413 210 q 544 236 507 210 q 605 302 581 263 q 642 389 629 342 q 654 476 654 436 q 642 547 654 514 q 596 599 631 579 q 597 629 596 607 q 597 678 597 651 q 599 706 597 682 q 600 765 600 731 q 596 839 600 800 q 579 911 592 878 q 546 966 567 944 q 490 988 525 988 q 436 970 458 988 q 399 927 414 953 q 378 872 385 901 q 368 817 371 842 l 347 604 q 315 571 328 586 q 292 539 301 556 q 279 502 283 522 q 275 456 275 482 m 307 254 q 274 247 289 254 q 258 218 258 239 q 289 228 271 218 q 307 254 307 239 m 613 236 q 628 229 615 233 q 650 225 640 225 q 638 241 650 236 q 617 246 625 246 q 613 243 614 246 q 611 238 611 240 q 611 236 611 238 q 613 236 611 236 m 410 365 q 418 413 410 397 q 436 440 426 429 q 454 465 446 451 q 463 507 463 479 q 457 539 463 525 q 444 566 451 553 q 431 593 436 579 q 425 625 425 607 q 432 728 425 678 q 446 832 439 779 q 453 865 449 847 q 465 897 457 882 q 485 921 472 911 q 517 931 497 931 q 549 912 538 931 q 567 866 561 893 q 575 809 574 839 q 576 756 576 779 l 576 725 q 576 672 576 694 q 571 619 575 650 q 556 606 565 613 q 537 592 546 599 q 521 576 528 585 q 514 557 514 567 l 514 489 q 519 468 514 476 q 532 451 525 460 q 544 434 539 443 q 550 413 550 425 q 548 369 550 399 q 538 310 546 340 q 515 258 531 281 q 475 235 500 235 q 441 249 454 235 q 421 285 428 264 q 412 328 414 306 q 410 365 410 350 m 788 489 q 797 517 792 503 q 809 544 801 532 q 828 565 817 557 q 856 572 839 572 q 889 560 875 572 q 903 525 903 547 q 895 503 903 513 q 878 488 888 494 q 858 472 868 481 q 844 453 849 464 q 838 397 842 428 q 824 338 833 367 q 801 283 815 308 q 767 240 788 257 l 767 246 q 774 287 767 265 q 783 329 782 308 q 784 360 783 338 q 785 409 785 383 q 787 458 786 435 q 788 489 788 481 m 213 267 q 221 261 217 261 q 234 265 224 261 q 256 276 244 269 q 277 288 268 282 q 286 296 286 293 q 279 301 286 300 q 265 303 272 303 l 258 303 q 229 292 239 303 q 213 267 219 282 m 576 424 q 574 465 576 454 q 565 480 571 476 q 551 488 560 483 q 529 510 542 492 q 528 519 529 513 q 528 528 528 525 q 537 563 528 547 q 568 578 546 578 q 599 569 586 578 q 621 546 613 560 q 633 515 629 532 q 638 482 638 497 q 631 423 638 454 q 613 362 625 392 q 584 306 601 332 q 544 261 567 279 l 544 272 q 566 347 556 311 q 576 424 576 383 m 622 272 q 657 267 640 268 q 690 265 674 265 q 680 289 690 285 q 653 293 669 293 q 633 290 644 293 q 622 276 622 288 l 622 272 m 156 276 q 131 327 143 301 q 114 381 119 353 q 108 425 108 408 q 99 464 107 442 q 83 483 93 476 q 65 494 74 489 q 49 506 56 499 q 42 531 42 514 q 56 572 42 554 q 96 589 71 589 q 140 563 124 589 q 156 511 156 536 q 153 451 156 481 q 150 389 150 421 q 158 330 150 358 q 167 271 167 301 q 156 276 160 271 m 376 583 q 415 546 415 583 q 410 522 415 529 q 398 508 406 514 q 381 497 390 503 q 363 479 371 492 q 349 442 351 463 q 347 401 347 421 l 347 389 q 356 334 347 361 q 364 279 364 307 q 363 275 364 278 q 363 272 363 272 q 343 297 354 282 q 323 330 332 313 q 308 364 314 347 q 301 396 301 381 l 301 506 q 325 558 301 533 q 376 583 349 583 m 242 356 q 209 347 225 356 q 193 318 193 339 l 203 318 l 264 344 q 265 344 265 344 q 265 346 265 346 q 257 355 265 354 q 242 356 249 356 m 653 331 q 658 324 653 324 l 722 324 q 704 342 722 339 q 676 344 686 344 l 658 344 q 653 331 653 336 m 851 557 q 830 547 839 557 q 815 524 821 538 q 807 497 810 511 q 804 474 804 483 l 804 339 q 812 353 808 340 q 819 385 815 367 q 825 426 822 404 q 829 464 828 447 q 843 485 833 476 q 863 500 853 493 q 880 513 872 507 q 888 531 888 519 q 876 551 888 546 q 851 557 864 557 m 61 531 q 66 516 61 521 q 78 508 71 511 q 93 503 86 506 q 104 494 100 500 q 116 460 113 482 q 122 417 119 439 q 126 378 124 394 q 135 360 128 361 l 135 531 q 123 556 135 544 q 99 568 111 568 q 72 557 83 568 q 61 531 61 546 m 315 454 q 315 401 315 424 q 326 375 315 381 q 329 434 326 407 q 342 489 332 461 q 355 505 346 500 q 372 513 364 510 q 388 522 381 517 q 394 542 394 528 q 392 560 394 553 q 376 568 389 568 q 347 553 361 568 q 332 524 332 539 l 332 521 q 347 535 339 529 q 365 542 354 542 q 375 541 371 542 q 379 533 379 540 l 321 500 l 317 489 q 316 474 317 488 q 315 454 315 461 m 664 381 q 706 375 685 376 q 749 374 726 374 q 742 386 749 382 q 728 393 736 390 q 710 397 719 396 q 697 397 701 397 q 678 396 692 397 q 664 383 664 394 l 664 381 m 225 413 q 197 406 208 413 q 186 379 186 399 q 195 381 188 379 q 213 385 203 382 q 235 390 224 388 q 254 396 246 393 l 254 399 q 244 411 254 410 q 225 413 233 413 m 550 533 q 558 515 550 521 q 574 502 565 510 q 590 480 582 494 q 597 433 597 465 q 597 406 597 419 q 596 386 596 393 q 606 399 601 389 q 613 423 611 410 q 617 449 615 436 q 618 468 618 461 q 617 494 618 479 q 610 524 615 510 q 597 547 606 538 q 572 557 588 557 q 557 549 564 557 q 550 533 550 542 m 706 464 q 683 458 694 464 q 672 438 672 451 l 747 438 q 706 464 736 464 m 186 449 q 189 444 186 444 q 194 443 192 443 q 224 446 214 443 q 251 449 233 449 l 260 449 q 265 456 265 450 q 249 470 265 467 q 225 474 232 474 q 201 467 217 474 q 186 449 186 460 m 560 546 q 593 531 579 546 q 607 497 607 517 l 607 489 q 594 505 601 499 q 578 517 586 511 q 565 528 571 522 q 560 546 560 535 m 72 528 q 81 542 72 538 q 96 547 89 547 q 118 533 111 547 q 125 507 125 519 l 125 500 q 99 514 113 510 q 72 526 85 518 l 72 528 m 197 506 q 203 500 197 500 l 260 507 q 249 521 260 515 l 225 521 q 207 519 217 521 q 197 506 197 517 m 708 526 q 681 521 694 526 q 668 500 668 515 l 749 500 q 735 521 749 515 q 708 526 721 526 m 858 542 q 867 533 867 542 q 862 524 867 529 q 851 515 857 519 q 839 508 844 511 q 832 504 833 504 q 831 505 832 504 q 829 506 831 506 q 838 528 832 515 q 858 542 844 542 m 647 647 q 672 586 647 611 q 732 561 696 561 q 786 585 763 561 q 810 639 810 608 q 786 699 810 671 q 728 728 763 728 q 669 705 692 728 q 647 647 647 682 m 165 647 q 186 591 165 615 q 242 567 207 567 q 299 587 276 567 q 322 643 322 607 q 301 699 322 675 q 247 724 281 724 q 190 703 215 724 q 165 647 165 682 m 186 653 q 201 691 186 679 q 240 703 215 703 q 277 690 264 703 q 290 653 290 676 q 276 614 290 629 q 239 599 263 599 q 200 614 214 599 q 186 653 186 629 m 668 651 q 683 692 668 675 q 724 708 699 708 q 762 693 750 708 q 774 654 774 678 q 721 599 774 599 q 683 614 697 599 q 668 651 668 629 m 207 650 q 216 630 207 640 q 236 619 225 619 q 265 650 265 619 q 265 658 265 653 q 264 665 265 664 q 251 653 257 656 q 236 650 246 650 q 224 652 229 650 q 213 661 219 654 q 207 650 207 658 m 693 661 q 729 624 693 624 q 749 634 740 624 q 757 656 757 644 q 749 667 757 667 l 747 665 q 739 658 744 664 q 731 650 733 651 l 729 650 q 710 656 718 650 q 693 661 703 661 m 156 754 l 332 754 l 332 768 l 160 768 l 156 754 m 794 754 l 794 768 l 635 768 l 635 754 l 794 754 m 176 817 l 168 799 l 333 799 l 338 817 l 176 817 m 786 817 l 632 817 l 633 799 l 789 799 l 786 817 m 346 869 l 196 869 l 188 847 l 342 847 l 346 869 m 624 869 l 628 847 l 776 847 l 768 869 l 624 869 m 364 926 l 221 926 l 207 900 l 354 900 l 364 926 m 610 926 l 619 900 l 758 900 l 744 926 l 610 926 m 242 956 l 383 956 l 401 983 l 258 983 l 242 956 m 571 983 l 594 956 l 735 956 l 718 983 l 571 983 m 285 1010 l 701 1010 l 671 1040 l 314 1040 l 285 1010 m 644 1064 q 619 1084 636 1075 q 583 1099 603 1093 q 543 1108 564 1106 q 504 1111 522 1111 q 422 1100 458 1111 q 350 1064 386 1089 l 644 1064 z "},"1":{"ha":724,"x_min":21,"x_max":700,"o":"m 21 189 q 42 117 21 151 q 94 56 63 82 q 163 15 125 31 q 236 0 201 0 q 282 15 260 0 q 322 47 304 29 q 353 78 340 64 q 371 93 367 93 l 374 93 q 453 30 408 56 q 550 4 497 4 q 606 18 579 4 q 654 55 633 32 q 688 107 675 78 q 700 165 700 136 l 700 171 q 681 237 693 213 q 649 274 668 261 q 606 290 631 286 q 550 296 581 294 q 538 327 542 310 q 533 360 533 344 q 540 406 533 390 q 556 430 546 422 q 578 441 567 438 q 599 451 589 444 q 616 470 610 457 q 622 511 622 483 q 613 553 622 536 q 592 580 604 569 q 565 595 579 590 q 539 601 550 600 l 539 1047 l 457 1150 l 21 1150 l 21 969 l 69 900 l 171 900 l 171 575 q 133 579 150 579 q 95 572 110 579 q 72 556 81 565 q 60 535 64 546 q 57 514 57 524 q 65 478 57 490 q 87 458 74 465 q 115 447 100 451 q 142 433 129 442 q 164 410 156 425 q 172 365 172 394 q 161 310 172 329 q 133 282 150 292 q 97 268 117 272 q 60 256 76 264 q 32 234 43 249 q 21 189 21 219 m 51 161 l 51 165 q 198 225 151 168 q 244 382 244 282 l 244 399 q 228 494 244 460 q 186 553 211 528 l 186 983 l 42 983 l 42 1125 l 457 1125 l 457 561 q 426 491 442 529 q 410 418 410 453 q 422 337 410 378 q 456 263 433 296 q 511 210 478 231 q 589 190 544 190 q 600 190 594 190 q 613 192 606 190 q 618 185 618 188 q 606 140 618 160 q 576 106 594 119 q 534 85 557 92 q 489 78 511 78 q 428 92 457 78 q 374 125 399 106 q 351 152 361 133 q 326 171 342 171 l 322 171 q 265 101 296 131 q 181 72 233 72 q 139 78 161 72 q 97 94 117 83 q 65 121 78 104 q 51 161 51 138 m 425 413 q 431 463 425 435 q 450 517 438 492 q 483 559 463 542 q 531 576 503 576 q 569 567 551 576 q 586 532 586 557 q 569 501 586 507 q 531 487 551 494 q 494 460 511 479 q 476 390 476 440 q 479 358 476 378 q 489 320 482 339 q 507 288 496 301 q 536 275 518 275 q 558 278 547 275 q 581 281 569 281 q 618 272 597 281 q 639 243 639 264 q 633 228 639 235 q 617 219 626 222 q 597 214 607 215 q 582 213 588 213 q 512 230 542 213 q 463 276 482 247 q 434 340 443 304 q 425 413 425 375 m 46 224 q 58 244 46 238 q 87 252 71 250 q 118 255 103 254 q 140 260 133 256 q 163 282 153 267 q 178 315 172 297 q 188 351 185 333 q 192 381 192 368 q 183 423 192 408 q 163 445 175 438 q 135 456 150 453 q 107 465 119 460 q 86 482 94 471 q 78 515 78 493 q 88 546 78 532 q 115 560 97 560 l 119 560 q 169 542 149 557 q 203 505 190 526 q 223 456 217 483 q 229 404 229 429 q 215 301 229 350 q 156 218 200 253 q 119 198 140 204 q 78 192 99 192 q 56 202 67 192 q 46 224 46 213 m 243 624 q 265 558 243 588 q 328 529 288 529 q 379 554 364 529 q 394 610 394 579 q 373 672 394 649 q 314 696 351 696 q 263 676 282 696 q 243 624 243 656 m 425 1064 l 425 1097 l 69 1097 l 69 1064 l 425 1064 m 440 410 q 448 351 440 382 q 472 292 456 319 q 511 246 488 264 q 568 228 535 228 q 595 230 578 228 q 613 246 613 232 q 608 259 613 253 q 594 265 603 265 q 567 262 581 265 q 540 258 554 258 q 499 272 515 258 q 474 307 483 286 q 460 351 464 328 q 456 394 456 375 q 479 479 456 447 q 556 514 503 511 q 565 529 565 518 q 554 550 565 544 q 532 556 543 556 q 488 540 506 556 q 459 503 469 525 q 444 456 449 481 q 440 410 440 431 m 69 1010 l 425 1010 l 425 1040 l 69 1040 l 69 1010 m 258 631 q 276 667 258 650 q 314 685 293 685 q 356 669 338 685 q 374 631 374 654 q 356 585 374 600 q 308 571 338 571 q 272 590 285 571 q 258 631 258 610 m 213 389 q 208 434 213 408 q 194 482 204 460 q 167 519 183 504 q 125 535 150 535 q 103 528 113 535 q 93 508 93 522 q 110 485 93 488 q 148 478 128 482 q 185 458 168 474 q 203 397 203 443 q 201 365 203 385 q 194 324 199 344 q 181 285 189 303 q 161 260 172 267 q 132 243 147 249 q 104 235 117 238 q 84 230 92 232 q 76 222 76 228 q 81 208 76 211 q 94 206 86 206 q 147 225 125 206 q 183 273 169 244 q 204 333 197 301 q 213 389 211 364 m 218 956 l 425 956 l 425 983 l 218 983 l 218 956 m 218 900 l 425 900 l 425 926 l 218 926 l 218 900 m 218 847 l 425 847 l 425 869 l 218 869 l 218 847 m 218 817 l 218 799 l 425 799 l 425 817 l 218 817 m 218 754 l 425 754 l 425 768 l 218 768 l 218 754 m 268 417 q 323 413 297 417 q 376 410 349 410 q 385 418 385 410 q 377 428 385 424 q 360 435 369 433 q 342 439 351 438 q 329 440 333 440 q 318 440 328 440 q 297 436 308 439 q 277 429 286 433 q 268 417 268 425 m 89 146 l 89 135 q 97 120 89 128 q 118 106 106 113 q 146 97 131 100 q 174 93 161 93 l 186 93 q 203 99 199 93 l 197 104 q 145 119 169 108 q 99 146 121 131 l 89 146 m 271 471 l 286 471 q 340 469 310 471 q 389 457 369 467 l 394 461 q 365 485 379 478 q 329 493 351 493 q 315 492 325 493 q 296 489 306 492 q 278 482 286 486 q 271 471 271 478 m 431 129 l 431 121 q 459 124 443 121 q 490 134 475 128 q 515 151 504 140 q 529 176 526 161 l 524 176 q 506 169 513 176 q 488 156 499 161 q 459 142 481 153 q 431 129 438 132 m 482 108 l 482 103 q 510 107 494 103 q 541 119 526 111 q 566 138 556 126 q 576 164 576 149 q 538 143 561 164 q 482 108 514 122 m 329 385 q 299 381 314 385 q 275 363 285 376 l 374 363 l 379 368 q 356 382 368 379 q 329 385 344 385 m 289 640 q 294 610 289 625 q 317 596 299 596 q 342 607 335 596 q 349 633 349 618 q 335 628 340 633 q 318 622 329 622 q 303 631 307 622 q 289 640 300 640 m 146 161 q 161 140 150 147 q 186 128 172 132 q 214 122 200 124 q 239 121 228 121 l 239 129 l 150 161 l 146 161 m 329 343 q 305 338 321 343 q 289 321 289 332 l 379 321 q 356 338 369 332 q 329 343 343 343 m 185 186 q 192 172 185 178 q 211 163 200 167 q 233 157 222 158 q 250 156 243 156 l 254 156 q 264 161 263 156 l 203 186 l 185 186 m 404 161 l 400 156 l 415 156 q 433 158 422 156 q 453 164 443 160 q 472 175 464 168 q 479 192 479 182 l 472 192 l 404 161 m 114 508 q 119 518 114 517 q 142 513 128 517 q 161 497 156 508 q 151 492 156 493 q 140 492 147 492 q 123 494 132 492 q 114 508 114 497 m 296 285 q 325 283 307 285 q 356 281 343 282 q 369 279 368 279 q 359 293 369 290 q 338 296 349 296 l 306 296 l 296 285 m 535 543 l 535 535 q 528 533 535 536 q 514 525 522 529 q 497 517 506 521 q 485 513 489 513 q 484 513 485 513 q 482 514 483 514 q 503 537 489 531 q 535 543 518 543 m 431 208 q 405 203 419 208 q 383 186 390 197 l 397 186 q 419 191 411 186 q 436 207 426 196 q 433 208 435 207 q 431 208 432 208 m 339 254 l 331 254 q 317 252 324 254 q 310 243 310 250 l 360 243 q 353 252 360 250 q 339 254 346 254 m 226 214 q 243 196 226 201 q 269 190 260 190 l 269 197 q 264 200 269 197 q 251 206 258 203 q 236 211 243 208 q 226 214 229 214 z "},"2":{"ha":1074,"x_min":21,"x_max":1049,"o":"m 21 146 l 63 50 q 78 38 65 49 q 111 11 92 26 q 140 -12 131 -4 q 213 7 178 4 q 293 10 247 10 q 433 -1 364 10 q 572 -12 501 -12 q 742 21 663 -12 q 892 107 821 54 l 907 107 q 984 42 956 67 q 1032 18 1013 18 l 1049 18 q 1046 33 1049 25 q 1043 50 1043 40 q 1038 115 1040 85 q 1031 172 1036 144 q 1013 224 1025 199 q 975 278 1000 250 l 975 289 q 1003 320 990 301 q 1017 361 1017 339 q 988 442 1017 410 q 910 475 960 475 q 858 460 878 475 q 823 424 838 446 q 799 375 808 401 q 778 325 789 349 q 743 278 765 300 q 694 240 721 256 q 642 215 668 224 q 596 206 615 206 l 472 206 q 586 270 533 233 q 685 346 639 307 q 709 353 693 353 q 732 356 725 354 q 763 372 750 360 q 783 401 775 385 q 795 435 792 417 q 799 469 799 453 q 866 536 833 501 q 924 610 899 571 q 965 694 950 650 q 981 788 981 738 q 941 948 981 879 q 838 1061 901 1017 q 692 1128 774 1106 q 528 1150 611 1150 q 367 1129 450 1150 q 217 1065 285 1108 q 106 955 150 1021 q 63 799 63 889 l 63 771 q 83 731 69 750 q 114 699 97 711 l 353 699 l 368 708 q 372 770 368 738 q 387 829 375 803 q 421 873 399 856 q 481 890 443 890 q 544 860 518 890 q 571 792 571 829 q 557 732 571 765 q 522 667 543 699 q 474 612 500 636 q 425 579 449 588 q 390 610 410 596 q 347 625 371 625 q 292 603 315 625 q 269 550 269 582 q 274 529 269 539 q 283 510 278 519 q 292 492 288 501 q 296 474 296 483 q 274 391 296 433 q 228 319 253 349 q 176 260 200 285 q 128 216 151 235 q 80 182 104 197 q 26 153 56 167 q 21 146 21 151 m 46 131 q 47 131 46 131 q 47 133 47 132 l 57 143 q 400 454 265 261 q 412 478 408 465 q 418 506 415 492 q 423 533 421 519 q 431 558 425 546 l 446 574 q 498 621 472 596 q 544 674 524 646 q 578 735 565 703 q 592 807 592 768 q 583 863 592 836 q 556 910 574 890 q 514 943 539 931 q 456 956 489 956 q 426 953 443 956 q 393 947 410 951 q 362 932 376 942 q 338 906 347 922 q 309 839 318 878 q 300 768 300 800 l 94 768 q 83 794 83 769 q 120 940 83 878 q 217 1042 157 1001 q 352 1104 276 1083 q 506 1125 428 1125 q 665 1107 592 1125 q 793 1051 739 1089 q 878 955 847 1014 q 908 814 908 896 q 896 733 908 772 q 861 659 883 694 q 810 593 839 624 q 751 538 782 563 q 736 532 746 532 q 722 533 733 532 q 710 540 710 535 q 715 549 710 543 q 726 565 719 556 q 737 585 732 574 q 742 610 742 597 q 717 674 742 646 q 654 703 692 703 q 600 680 619 703 q 581 625 581 657 q 601 565 581 589 q 654 526 622 542 l 654 522 q 592 469 618 501 q 539 407 567 436 l 446 314 q 411 288 436 306 q 358 249 386 269 q 305 210 331 228 q 269 185 279 192 l 269 179 q 290 182 276 181 q 306 185 303 183 l 571 185 q 628 191 599 185 q 685 209 658 197 q 735 240 713 221 q 772 283 758 258 q 798 339 786 308 q 823 395 810 369 q 853 438 836 421 q 896 454 871 454 q 932 440 919 454 q 944 403 944 425 q 933 375 944 382 q 908 365 921 368 q 883 358 894 363 q 871 336 871 354 q 872 313 871 328 q 875 281 872 297 q 883 254 878 265 q 899 243 889 243 q 899 256 899 247 q 898 274 899 264 q 897 292 897 283 q 897 304 897 300 q 899 312 897 307 q 903 319 901 317 q 940 274 928 301 q 956 216 951 247 q 962 153 961 185 q 965 96 963 121 l 965 93 q 960 86 965 86 q 955 88 958 86 q 949 92 951 90 l 867 169 l 856 169 q 708 90 788 119 q 544 60 629 60 q 404 68 474 60 q 264 76 335 76 l 238 76 q 191 72 211 76 q 153 63 171 68 q 122 53 136 57 q 93 49 107 49 q 74 59 82 49 q 59 83 65 69 q 49 110 53 97 q 46 131 46 124 m 617 464 q 658 494 635 482 q 706 507 681 507 q 749 494 729 507 q 768 456 768 482 q 754 425 768 438 q 722 413 740 413 q 703 415 711 413 q 685 418 694 418 q 656 408 672 418 q 620 381 639 397 q 581 347 601 365 q 539 314 560 329 q 506 290 525 303 q 465 265 486 276 q 422 244 443 253 q 382 236 400 236 q 393 249 382 239 q 420 271 404 258 q 452 297 436 283 q 478 319 468 310 q 506 348 486 328 q 547 391 525 368 q 590 435 569 414 q 617 464 610 456 m 322 469 q 317 491 322 482 q 303 509 311 500 q 290 528 296 518 q 285 551 285 539 q 294 588 285 571 q 326 604 304 604 q 375 591 354 604 q 396 540 396 578 q 363 438 396 488 q 285 340 329 389 q 271 324 281 333 q 260 314 261 314 l 254 314 l 317 444 q 320 457 318 447 q 322 469 322 467 m 757 1040 l 256 1040 l 224 1010 l 790 1010 l 757 1040 m 596 629 q 650 683 596 683 q 688 674 672 683 q 706 628 704 664 q 694 586 706 604 q 654 568 682 568 q 612 587 628 568 q 596 629 596 606 m 286 113 q 240 110 271 113 q 177 103 208 108 q 122 92 146 99 q 99 78 99 86 l 99 75 q 144 86 119 81 q 191 95 168 92 q 234 101 214 99 q 267 103 254 103 q 398 94 333 103 q 529 85 463 85 q 666 99 601 85 q 793 149 731 113 q 830 171 808 156 q 856 206 851 186 l 850 206 q 711 123 785 144 q 550 101 638 101 q 418 107 483 101 q 286 113 353 113 m 649 460 q 592 405 622 432 q 535 353 563 378 q 482 306 507 328 q 440 268 457 285 q 442 267 442 268 q 443 267 443 267 q 458 275 446 267 q 486 294 471 283 q 515 315 501 306 q 535 329 529 325 q 581 370 561 351 q 619 403 600 389 q 660 425 638 417 q 714 433 682 433 l 732 433 q 745 442 743 438 q 747 457 747 446 q 717 486 747 486 q 681 478 697 486 q 649 460 664 471 m 532 1103 q 463 1101 492 1103 q 389 1092 433 1100 q 374 1088 383 1090 q 356 1084 365 1086 q 340 1080 347 1082 q 332 1076 333 1078 l 315 1064 l 703 1064 q 675 1081 699 1074 q 624 1094 651 1089 q 569 1101 596 1099 q 532 1103 543 1103 m 343 483 q 332 446 343 463 q 321 410 321 429 q 322 409 321 410 q 322 407 322 408 q 341 430 332 415 q 358 462 350 444 q 369 497 365 479 q 374 526 374 514 q 367 565 374 544 q 338 585 361 585 q 315 572 325 585 q 306 547 306 560 q 311 528 306 533 q 324 517 317 522 q 338 506 332 513 q 343 483 343 499 m 518 983 l 564 956 l 831 956 l 817 983 l 518 983 m 851 900 l 846 926 l 600 926 l 618 900 l 851 900 m 624 869 l 628 847 l 865 847 l 863 869 l 624 869 m 624 799 l 867 799 l 868 817 l 624 817 l 624 799 m 392 983 l 190 983 l 168 956 l 335 956 l 392 983 m 146 926 l 132 900 l 289 900 l 304 926 l 146 926 m 278 869 l 117 869 l 110 847 l 272 847 l 278 869 m 619 768 l 617 754 l 860 754 l 865 768 l 619 768 m 108 799 l 267 799 l 267 817 l 108 817 l 108 799 m 419 433 l 424 433 q 474 423 453 433 q 522 413 496 413 q 502 445 522 436 q 463 454 482 454 q 437 451 454 454 q 419 436 419 449 l 419 433 m 446 496 q 475 492 463 494 q 499 488 488 490 q 523 480 511 485 q 550 469 535 475 l 553 469 q 560 475 558 469 q 531 503 547 496 q 490 511 514 511 l 475 511 q 456 509 465 511 q 446 499 446 507 l 446 496 m 379 382 q 400 377 388 381 q 426 369 413 374 q 452 363 439 365 q 475 360 465 360 q 469 377 475 369 q 453 389 463 385 q 433 395 443 393 q 415 397 424 397 l 410 397 q 390 395 401 397 q 378 385 378 393 q 378 383 378 383 q 379 382 379 382 m 619 621 q 632 598 619 607 q 657 589 644 589 q 680 599 669 589 q 690 624 690 610 q 685 631 690 626 q 673 616 681 618 q 656 614 665 614 q 638 617 644 614 q 619 621 631 621 m 326 549 q 331 562 326 556 q 342 568 335 568 q 359 556 354 568 q 364 535 364 543 q 358 511 364 524 l 326 543 l 326 549 m 338 329 q 377 320 358 328 q 417 313 396 313 q 399 336 417 332 q 368 340 381 340 l 356 340 q 342 339 349 340 q 336 332 336 338 q 337 331 336 332 q 338 329 338 331 m 281 278 q 318 268 300 275 q 356 261 336 261 q 350 277 356 271 q 338 289 344 283 l 306 289 q 281 278 288 289 m 674 454 q 694 467 681 464 q 718 471 707 471 q 731 469 725 471 q 738 460 738 468 q 729 449 738 449 l 726 449 q 700 451 719 450 q 674 454 681 453 m 224 231 q 235 228 226 231 q 252 224 243 226 q 269 219 261 221 q 281 215 276 217 l 288 215 q 276 236 288 231 q 251 242 264 242 q 235 240 244 242 q 224 231 226 238 m 156 179 q 188 175 175 176 q 218 174 201 174 l 228 174 l 213 190 l 183 190 q 167 188 175 190 q 156 179 160 186 m 892 185 q 898 172 893 181 q 908 154 903 163 q 919 139 913 146 q 931 132 925 132 q 933 133 933 132 q 927 147 931 139 q 918 164 924 156 q 906 178 913 172 q 894 185 900 185 l 892 185 z "},"3":{"ha":963,"x_min":21,"x_max":939,"o":"m 21 331 q 58 183 21 244 q 153 81 94 121 q 287 21 213 40 q 436 1 361 1 q 508 4 472 1 q 581 17 544 7 q 714 65 658 38 q 806 133 769 92 q 863 234 842 175 q 893 375 883 293 q 926 411 914 394 q 939 456 939 428 q 924 513 939 494 q 888 544 910 532 q 844 567 867 556 q 804 603 821 578 l 804 606 q 808 614 804 607 q 818 630 813 621 q 830 649 824 639 q 840 665 836 658 q 865 726 858 694 q 872 792 872 758 q 859 872 872 832 q 825 946 846 913 q 669 1097 761 1046 q 460 1149 578 1149 q 305 1126 379 1149 q 174 1060 231 1104 q 85 949 118 1015 q 51 794 51 882 q 58 773 51 786 q 73 747 64 760 q 92 724 82 735 q 108 707 101 713 l 301 707 q 327 709 311 707 q 343 713 343 711 l 353 832 q 383 891 356 867 q 444 915 410 915 q 485 901 469 915 q 508 865 500 886 q 517 820 515 844 q 519 776 519 796 q 500 690 519 717 q 421 660 481 664 l 415 656 l 415 489 q 426 455 415 465 q 451 435 438 444 q 476 412 465 425 q 488 372 488 399 q 442 258 488 303 q 326 214 396 214 q 264 227 294 214 q 213 265 233 240 q 230 269 213 267 q 268 280 247 271 q 306 308 289 289 q 322 364 322 328 q 311 417 322 393 q 281 460 300 442 q 236 490 261 479 q 183 500 211 500 q 118 486 147 500 q 67 449 89 472 q 33 396 44 426 q 21 331 21 365 m 42 318 q 51 378 42 349 q 79 432 61 408 q 124 469 97 456 q 188 483 151 483 q 247 454 229 483 q 265 388 265 425 q 244 344 265 360 q 197 328 222 328 q 179 333 186 328 q 163 338 172 338 q 181 271 163 300 q 227 222 199 242 q 290 192 256 201 q 358 182 325 182 q 456 201 411 182 q 534 255 501 221 q 585 335 567 289 q 603 433 603 381 q 575 524 603 485 q 493 563 547 563 q 465 559 478 563 q 436 556 451 556 l 436 635 q 451 642 436 639 q 483 655 465 646 q 516 679 500 664 q 535 722 532 694 q 537 754 536 738 q 538 788 538 771 q 533 853 538 821 q 516 910 529 885 q 478 951 503 936 q 413 967 453 967 q 335 938 363 967 q 295 876 308 910 q 276 813 282 842 q 265 785 271 785 l 78 785 l 72 790 l 72 811 q 106 947 72 888 q 192 1049 139 1007 q 315 1112 246 1090 q 454 1133 383 1133 q 588 1111 524 1133 q 699 1048 651 1089 q 776 948 747 1007 q 804 815 804 889 q 788 725 804 768 q 736 650 772 682 l 735 650 q 723 660 729 650 q 707 681 717 669 q 682 703 697 693 q 644 713 667 713 q 592 692 608 713 q 575 638 575 671 q 599 575 575 599 q 660 551 622 551 q 692 561 679 551 q 715 583 706 571 q 729 604 724 594 q 739 614 735 614 q 762 609 749 614 q 787 596 775 604 q 807 577 799 588 q 815 557 815 567 q 814 551 815 551 q 774 516 794 536 q 753 468 754 496 l 742 261 q 706 157 739 199 q 625 91 674 115 q 519 57 576 67 q 410 47 461 47 q 283 63 349 47 q 165 110 218 78 q 76 193 111 142 q 42 318 42 244 m 63 331 q 94 215 63 264 q 176 135 126 167 q 285 89 225 104 q 403 74 346 74 q 448 76 417 74 q 513 82 479 78 q 573 94 546 86 q 607 115 600 103 l 601 115 q 588 112 599 115 q 565 105 578 108 q 542 98 553 101 q 529 94 532 94 q 499 88 511 90 q 474 85 486 86 q 451 84 463 85 q 425 83 440 83 q 308 97 369 83 q 196 140 247 110 q 111 217 144 169 q 78 331 78 264 q 85 374 78 351 q 104 413 92 396 q 135 442 117 431 q 178 453 154 453 q 213 442 197 453 q 229 408 229 432 q 213 381 229 389 q 182 369 197 372 q 188 365 183 365 q 196 364 192 364 l 203 364 q 233 374 221 364 q 244 401 244 383 q 222 445 244 426 q 176 464 200 464 q 131 451 151 464 q 94 419 110 439 q 71 376 79 400 q 63 331 63 353 m 93 339 q 110 265 93 303 q 154 197 126 228 q 217 145 182 165 q 290 125 253 125 q 293 126 292 125 q 296 126 294 126 q 272 140 289 136 q 249 147 256 144 q 149 223 190 172 q 108 340 108 274 q 132 396 108 371 q 188 422 156 421 q 182 427 186 426 q 175 428 178 428 l 171 428 q 140 419 154 428 q 116 398 126 411 q 99 369 106 385 q 93 339 93 353 m 576 178 q 592 172 582 175 q 612 167 603 169 q 628 163 621 165 q 635 161 635 161 q 622 182 635 175 q 597 189 608 189 q 584 188 593 189 q 575 181 575 188 l 576 178 m 850 536 q 886 527 869 536 q 903 494 903 518 q 893 465 903 476 q 871 445 883 454 q 847 426 858 436 q 831 401 835 417 l 794 276 l 789 271 q 793 296 790 278 q 799 333 796 314 q 805 371 801 353 q 810 396 808 389 q 825 426 814 414 q 848 447 836 438 q 869 465 860 456 q 878 489 878 474 q 872 510 878 500 q 854 521 867 521 q 808 499 822 521 q 788 442 793 476 q 781 365 782 407 q 778 284 781 324 q 767 212 775 244 q 736 163 758 179 l 736 165 q 741 188 736 178 q 751 209 746 199 q 760 231 756 219 q 765 256 765 243 l 765 453 q 773 484 765 469 q 792 510 781 499 q 819 529 804 522 q 850 536 835 536 m 592 219 q 616 214 603 217 q 641 209 629 211 q 661 205 653 207 q 671 203 669 203 q 655 224 671 218 q 628 231 639 231 q 592 219 610 231 m 561 424 q 557 457 561 439 q 544 490 553 475 q 522 516 536 506 q 489 526 508 526 q 461 499 461 526 q 473 467 461 474 q 498 455 485 460 q 523 438 511 450 q 535 389 535 425 q 524 315 535 351 q 482 256 514 279 l 482 261 q 506 319 497 292 q 514 381 514 347 q 501 418 514 406 q 474 440 489 431 q 448 461 460 450 q 436 494 436 472 q 452 531 436 519 q 490 542 468 542 q 559 510 536 542 q 582 435 582 479 q 566 344 582 382 q 519 265 550 306 q 510 257 515 261 q 499 250 506 253 q 547 331 533 290 q 561 424 561 371 l 561 424 m 613 261 q 655 255 632 260 q 697 250 678 250 q 691 263 697 258 q 676 269 685 267 q 660 272 668 271 q 646 272 651 272 q 627 271 636 272 q 613 261 618 269 m 617 306 q 666 304 638 306 q 717 292 694 303 l 717 300 q 699 319 717 315 q 669 324 681 324 q 658 323 667 324 q 640 321 650 322 q 624 315 631 319 q 617 306 617 311 m 667 381 q 653 379 661 381 q 636 374 644 378 q 622 366 628 371 q 615 354 615 361 l 726 354 q 667 381 706 381 m 621 419 q 675 417 649 419 q 721 406 701 415 l 729 406 q 710 434 729 425 q 675 443 690 443 q 662 442 671 443 q 644 437 653 440 q 628 429 635 433 q 621 419 621 425 m 847 506 q 861 494 861 506 q 842 472 861 486 q 810 447 824 458 q 809 451 810 449 q 808 456 808 454 q 820 488 808 469 q 847 506 832 506 m 482 492 q 485 503 482 501 q 497 506 489 506 q 529 488 518 506 q 540 451 540 471 q 528 456 538 451 q 508 467 518 461 q 490 481 497 474 q 482 492 482 488 m 733 474 q 722 493 733 482 q 700 504 710 504 l 643 504 q 624 493 633 504 q 614 472 614 482 q 647 476 631 472 q 679 479 663 479 q 707 476 694 479 q 733 474 719 474 m 592 639 q 646 692 592 692 q 686 678 671 692 q 701 639 701 664 q 685 601 701 615 q 646 588 668 588 q 607 601 622 588 q 592 639 592 615 m 611 635 q 624 615 611 622 q 649 608 638 608 q 681 639 681 608 l 681 647 q 672 661 681 661 q 667 657 668 661 q 665 648 665 653 q 662 639 664 643 q 654 635 660 635 l 611 635 m 565 768 l 567 754 l 767 754 l 774 768 l 565 768 m 93 799 l 242 799 l 244 817 l 93 817 l 93 799 m 563 817 l 564 799 l 775 799 l 778 817 l 563 817 m 99 847 l 250 847 l 253 869 l 104 869 l 99 847 m 775 847 l 774 869 l 565 869 l 565 847 l 775 847 m 124 926 l 115 900 l 267 900 l 283 926 l 124 926 m 551 926 l 563 900 l 765 900 l 751 926 l 551 926 m 343 983 l 158 983 l 140 956 l 307 956 l 343 983 m 504 983 l 533 956 l 736 956 l 721 983 l 504 983 m 696 1010 l 664 1040 l 218 1040 l 183 1010 l 696 1010 m 254 1064 l 635 1064 l 546 1097 q 446 1110 497 1110 q 332 1097 390 1110 l 254 1064 z "},"4":{"ha":1065,"x_min":19,"x_max":1047,"o":"m 247 207 q 265 134 247 171 q 312 67 283 97 q 376 18 340 38 q 447 -1 411 -1 q 507 7 481 -1 q 561 36 533 15 q 572 49 565 40 q 585 66 578 57 q 598 82 592 75 q 611 89 604 89 q 644 70 629 89 q 676 42 660 51 q 729 17 704 26 q 786 8 754 8 q 877 44 843 8 q 911 139 911 81 q 901 193 911 169 q 892 246 892 217 l 1047 246 l 1047 401 q 1041 410 1047 403 q 1026 426 1035 417 q 1009 444 1018 435 q 994 460 1000 453 q 932 465 963 460 q 889 469 901 469 q 876 485 881 471 q 863 517 871 500 q 838 547 854 533 q 793 560 822 560 q 765 558 776 560 q 735 549 754 556 q 723 563 731 551 q 707 590 715 575 q 690 620 699 606 q 676 643 682 635 q 663 654 672 649 q 644 665 654 660 q 627 676 635 671 q 619 689 619 682 l 619 692 q 622 698 619 694 q 625 701 624 701 l 693 781 l 846 1004 l 872 1057 l 872 1074 q 867 1081 872 1074 q 856 1099 863 1089 q 842 1119 850 1108 q 831 1136 835 1129 l 821 1150 l 471 1150 l 317 799 q 301 773 314 793 q 272 728 289 753 q 238 680 256 704 q 211 643 221 656 q 191 621 207 638 q 156 584 175 604 q 120 544 138 564 q 94 517 103 525 q 70 493 83 501 q 46 475 57 485 q 27 452 35 465 q 19 414 19 439 q 20 392 19 403 q 21 371 21 381 l 21 322 q 31 307 22 318 q 50 283 40 296 q 68 261 60 271 q 79 250 76 251 l 249 250 q 251 247 249 250 q 253 243 253 244 l 253 239 q 250 223 253 231 q 247 207 247 215 m 274 160 q 433 213 374 160 q 493 369 493 265 q 492 412 493 390 q 482 454 490 433 q 472 470 479 461 q 457 489 464 479 q 444 508 450 499 q 439 526 439 518 l 503 569 l 507 569 q 542 540 522 551 q 585 528 561 528 q 624 538 608 528 q 656 564 639 549 q 658 565 656 564 q 661 565 660 565 q 673 563 665 565 q 689 557 681 561 q 703 547 697 553 q 708 536 708 542 q 693 504 708 521 q 671 475 678 488 q 652 422 660 450 q 644 365 644 393 q 697 215 644 271 q 842 157 750 160 l 842 144 q 831 112 842 125 q 806 90 821 99 q 772 76 790 81 q 739 72 754 72 q 688 81 711 72 q 645 103 665 89 q 607 136 625 118 q 571 174 589 154 q 535 138 551 157 q 501 103 518 119 q 462 77 483 88 q 411 67 440 67 q 332 91 363 67 q 274 160 301 115 m 324 142 q 335 115 324 125 q 363 101 347 106 q 397 94 379 96 q 425 92 414 92 q 412 101 425 93 q 381 119 399 110 q 346 135 363 128 q 324 142 329 142 m 719 99 l 719 93 q 764 104 743 93 q 793 131 785 115 l 793 136 q 757 115 778 125 q 719 99 736 106 m 375 154 l 375 147 q 383 133 375 140 q 403 121 392 126 q 429 112 415 115 q 454 108 443 108 l 454 115 l 375 154 m 683 121 l 683 115 q 699 115 689 115 q 720 118 710 115 q 738 126 731 121 q 746 142 746 132 q 745 144 746 142 q 744 147 744 146 l 683 121 m 411 167 q 417 151 411 157 q 433 142 424 144 q 451 138 442 139 q 467 136 460 136 l 486 136 l 424 167 l 411 167 m 640 147 q 656 142 644 142 l 663 142 q 675 142 667 142 q 691 145 683 143 q 704 151 699 147 q 710 163 710 156 l 708 167 q 675 154 693 160 q 640 147 657 149 m 454 185 q 471 167 463 174 q 492 161 479 161 q 497 162 493 161 q 503 163 501 163 q 481 174 497 165 q 460 185 464 182 l 457 185 l 454 185 m 624 176 q 630 168 624 169 q 640 167 636 167 q 659 172 647 167 q 671 188 671 178 l 671 189 l 625 179 q 624 176 624 179 m 264 215 q 272 233 264 228 q 290 240 279 239 q 310 240 300 240 q 326 243 321 240 q 379 288 363 254 q 396 356 396 322 q 393 387 396 371 q 386 417 390 403 q 371 434 382 429 q 347 443 360 439 q 326 454 335 447 q 317 481 317 461 q 336 516 317 503 q 375 529 356 529 q 425 513 406 529 q 456 471 444 496 q 472 417 467 446 q 476 365 476 389 q 467 299 476 332 q 438 239 457 265 q 390 196 419 213 q 322 179 361 179 q 284 185 304 179 q 264 215 264 192 m 665 354 q 672 413 665 381 q 694 475 679 446 q 733 524 710 504 q 790 544 757 544 q 822 533 808 544 q 836 503 836 522 q 819 472 836 481 q 783 454 803 464 q 746 425 763 444 q 729 363 729 406 q 731 338 729 351 q 738 310 733 324 q 751 285 743 296 q 772 268 760 274 q 797 264 782 264 q 827 261 813 264 q 852 250 842 258 q 863 221 863 242 q 840 188 863 197 q 797 179 818 179 q 739 196 764 179 q 697 239 714 213 q 673 296 681 265 q 665 354 665 326 m 290 210 l 290 208 q 303 197 290 199 q 322 194 315 194 q 381 213 356 194 q 422 260 406 232 q 446 320 438 288 q 454 381 454 353 q 450 419 454 397 q 436 460 446 440 q 410 494 426 481 q 372 507 394 507 q 343 479 343 507 q 356 457 343 460 q 383 449 368 454 q 411 426 399 444 q 424 358 424 408 q 421 322 424 344 q 410 277 418 299 q 389 240 403 256 q 354 225 375 225 q 340 226 347 225 q 324 226 332 226 q 303 224 313 226 q 290 210 293 221 m 692 364 q 697 312 692 339 q 715 262 703 285 q 749 224 728 239 q 799 210 769 210 q 819 212 807 210 q 831 226 831 214 q 820 242 831 239 q 796 244 810 244 l 776 244 q 740 256 754 244 q 717 285 725 268 q 706 321 708 301 q 703 356 703 340 q 719 429 703 404 q 756 467 736 454 q 793 485 776 479 q 810 503 810 492 q 805 521 810 514 q 788 528 800 528 q 746 509 764 528 q 716 464 728 490 q 698 410 704 438 q 692 364 692 382 m 556 221 l 556 215 l 586 215 q 576 221 585 221 l 568 221 l 556 221 m 576 258 l 571 258 q 556 256 564 258 q 549 247 549 254 l 604 247 q 597 256 604 254 q 582 258 589 258 l 576 258 m 533 289 q 549 288 538 289 q 571 287 560 288 q 592 285 582 286 q 607 285 603 285 l 619 285 q 599 301 608 297 q 575 306 590 306 q 552 303 564 306 q 533 289 540 300 m 799 317 q 793 325 793 321 l 793 326 q 796 332 794 329 q 799 335 797 335 l 940 335 l 940 344 q 909 344 933 344 q 865 343 885 343 l 851 343 q 822 344 844 343 q 793 347 800 346 l 793 356 q 794 367 793 363 q 799 381 794 372 q 847 403 831 386 q 882 443 864 419 l 983 443 l 983 332 q 974 314 983 317 q 951 311 964 311 l 938 311 q 869 313 904 311 q 799 317 833 314 m 42 317 l 42 438 q 163 547 110 489 q 265 676 217 606 q 285 707 272 686 q 312 750 299 728 q 335 790 325 772 q 349 814 346 808 l 482 1125 l 799 1125 l 804 1117 l 778 1057 l 614 792 q 606 780 614 790 q 586 756 597 769 q 564 726 575 742 q 546 701 553 711 q 529 689 539 694 q 513 676 519 683 q 490 647 500 660 q 468 622 479 635 q 442 596 457 610 q 407 564 428 582 q 381 551 396 556 q 353 542 367 546 q 326 531 339 538 q 307 511 314 525 q 301 501 306 510 q 296 490 297 492 q 281 480 290 485 q 263 470 272 475 q 247 459 254 465 q 240 444 240 453 l 307 444 q 337 426 324 429 q 360 420 350 424 q 375 406 369 417 q 381 363 381 394 l 381 347 q 375 343 381 343 l 74 343 l 74 338 l 339 338 q 365 335 354 338 q 376 317 376 332 l 42 317 m 579 364 q 533 343 551 364 l 619 343 q 579 364 604 364 m 524 396 l 528 390 q 555 399 547 397 q 578 401 563 401 q 600 400 590 401 q 625 396 610 399 l 625 399 q 607 418 625 414 q 579 422 589 422 q 548 417 560 422 q 524 396 536 413 m 354 482 q 358 494 354 492 q 371 496 361 496 q 408 481 390 496 q 425 446 425 467 q 415 449 426 446 q 390 456 404 451 q 365 468 376 461 q 354 482 354 475 m 583 486 q 565 485 576 486 q 543 480 554 483 q 524 469 532 476 q 517 453 517 463 q 575 457 547 453 q 636 461 603 461 q 630 474 636 469 q 615 482 624 479 q 597 485 606 485 q 583 486 588 486 m 785 513 q 794 511 789 513 q 799 503 799 510 q 793 494 799 497 q 780 488 788 490 q 765 485 772 486 q 756 485 758 485 q 765 504 756 496 q 785 513 774 513 m 513 619 q 525 663 513 644 q 565 682 538 682 q 608 667 590 682 q 625 625 625 651 q 612 583 625 601 q 571 564 599 564 q 530 579 547 564 q 513 619 513 594 m 538 614 q 549 593 538 601 q 571 585 560 585 q 594 596 585 585 q 603 621 603 607 l 603 633 q 587 616 590 625 q 565 607 583 607 q 552 610 558 607 q 538 614 546 614 m 343 722 l 335 711 l 499 711 l 510 722 l 343 722 m 365 768 l 356 754 l 553 754 l 565 768 l 365 768 m 376 799 l 579 799 l 596 817 l 385 817 l 376 799 m 400 847 l 615 847 l 628 869 l 411 869 l 400 847 m 429 900 l 651 900 l 668 926 l 442 926 l 429 900 m 700 983 l 468 983 l 454 956 l 685 956 l 700 983 m 714 1010 l 732 1040 l 488 1040 l 475 1010 l 714 1010 m 510 1097 l 496 1064 l 749 1064 l 761 1097 l 510 1097 z "},"5":{"ha":1004,"x_min":21,"x_max":997,"o":"m 21 336 q 23 309 21 325 q 31 281 25 293 q 110 166 63 217 q 218 80 158 115 q 346 26 278 44 q 486 7 414 7 q 656 36 579 7 q 792 119 733 65 q 889 246 850 172 q 944 408 928 319 q 982 444 967 428 q 997 490 997 461 q 987 539 997 519 q 958 571 976 558 q 917 590 940 583 q 869 597 894 596 q 849 650 854 621 q 829 703 844 679 q 710 812 785 778 q 550 846 636 846 q 478 835 514 846 q 411 825 443 825 l 401 831 l 401 899 l 411 915 l 824 915 l 824 1089 l 775 1147 l 758 1150 l 110 1150 l 110 703 q 110 657 110 685 q 115 624 111 629 q 126 609 119 618 q 140 592 133 600 q 153 578 147 583 q 158 572 158 572 l 169 567 l 343 567 q 382 601 361 589 q 431 614 403 614 q 444 613 436 614 q 461 610 453 613 q 475 603 469 608 q 481 590 481 599 q 472 561 481 574 q 463 529 463 549 q 472 490 463 501 q 492 470 481 479 q 513 445 504 461 q 522 393 522 429 q 507 328 522 356 q 467 281 492 300 q 411 253 443 263 q 346 244 379 244 q 314 251 331 244 q 282 265 297 257 q 254 284 267 274 q 238 303 242 294 l 238 308 q 283 335 267 318 q 300 385 300 353 q 265 474 300 440 q 175 508 229 508 q 110 494 139 508 q 61 457 81 481 q 31 402 42 433 q 21 336 21 371 m 40 350 q 78 452 40 417 q 174 488 115 488 q 231 469 207 488 q 254 414 254 450 q 247 388 254 397 q 228 371 239 378 q 208 357 218 364 q 190 339 197 350 q 270 252 214 281 q 388 224 326 224 q 482 240 439 224 q 556 288 525 257 q 605 360 588 318 q 622 454 622 403 q 610 534 622 493 q 576 609 599 575 q 519 665 553 643 q 440 686 485 686 q 358 671 388 686 q 300 636 328 656 l 136 636 l 131 640 l 131 1125 l 758 1125 l 758 983 l 338 983 l 338 799 q 351 794 346 793 q 364 794 356 794 q 418 800 397 794 q 459 813 439 806 q 503 826 479 821 q 565 832 528 832 q 667 811 617 832 q 756 756 717 790 q 820 678 796 722 q 844 589 844 635 q 833 555 844 569 q 818 518 821 540 l 786 286 q 742 187 778 229 q 658 117 707 144 q 552 77 608 90 q 446 64 496 64 q 312 81 383 64 q 180 133 240 97 q 80 222 119 168 q 40 350 40 276 m 74 317 q 80 283 74 299 q 94 256 86 268 q 158 184 119 214 q 242 135 197 154 q 335 106 286 115 q 431 96 385 96 q 486 99 456 96 q 547 108 517 101 q 604 126 576 114 q 650 156 632 138 q 555 120 603 129 q 456 111 507 111 q 342 122 403 111 q 228 158 282 133 q 131 224 174 183 q 74 324 89 265 l 74 317 m 501 150 q 517 145 511 146 q 532 144 524 144 l 543 144 q 525 150 538 150 l 517 150 l 501 150 m 100 347 q 122 276 100 311 q 178 215 144 242 q 250 171 211 188 q 322 154 289 154 q 326 154 324 154 q 332 156 331 154 q 255 181 293 164 q 185 222 217 197 q 135 281 154 247 q 115 360 115 315 q 128 400 115 382 q 165 418 140 418 l 169 418 l 169 425 q 119 401 138 425 q 100 347 100 378 m 528 176 q 558 169 543 172 q 589 165 574 165 l 596 165 q 576 180 586 178 q 550 182 565 182 q 540 181 547 182 q 532 181 533 181 l 528 176 m 903 578 q 939 563 922 578 q 956 526 956 547 q 940 487 956 503 q 908 456 924 471 l 850 281 q 829 242 843 261 q 801 206 815 222 q 776 181 788 190 q 765 171 765 171 l 760 171 q 788 238 778 208 q 803 300 797 267 q 812 374 808 333 q 824 476 815 415 q 831 511 825 493 q 846 544 836 529 q 869 568 856 558 q 903 578 883 578 m 560 207 q 602 201 581 206 q 646 196 624 196 q 627 215 646 210 q 599 219 608 219 l 592 219 q 573 217 583 219 q 560 207 563 215 m 829 308 l 796 224 l 801 224 q 817 245 808 224 q 835 292 826 267 q 849 339 843 318 q 854 360 854 360 q 860 381 856 365 q 869 413 864 396 q 880 444 875 429 q 888 467 885 460 q 897 483 890 476 q 911 495 904 489 q 924 508 918 501 q 929 526 929 515 q 919 549 929 542 q 896 557 910 557 q 868 540 879 557 q 854 508 857 524 l 829 308 m 611 246 q 657 242 635 246 q 703 239 679 239 q 686 258 703 254 q 657 261 669 261 l 647 261 q 624 259 638 261 q 611 246 611 257 m 539 406 q 538 425 539 410 q 538 444 538 440 q 527 469 536 461 q 508 483 518 476 q 489 500 497 490 q 481 533 481 510 q 497 576 481 564 q 540 588 513 588 q 574 576 561 588 q 595 547 588 564 q 605 509 603 529 q 607 472 607 489 q 601 419 607 453 q 582 354 594 386 q 550 299 569 322 q 504 275 531 275 q 500 275 503 275 q 496 276 497 275 q 512 310 504 297 q 526 336 519 324 q 535 364 532 349 q 539 406 539 379 m 632 300 q 685 296 660 300 q 736 292 710 292 l 744 292 q 717 313 732 307 q 683 319 703 319 q 672 318 681 319 q 655 315 664 317 q 639 310 646 313 q 632 303 632 307 l 632 300 m 168 463 q 95 431 122 463 q 68 356 68 399 q 69 342 68 353 q 69 329 69 332 q 76 374 71 351 q 94 415 82 397 q 126 444 107 433 q 172 456 144 456 q 202 435 196 456 q 210 397 208 414 l 215 403 q 217 410 217 404 q 218 419 218 417 q 204 453 218 443 q 168 463 190 463 m 565 439 q 556 385 565 407 q 547 336 547 364 q 548 333 547 336 q 549 329 549 331 q 574 392 568 358 q 581 461 581 426 q 580 490 581 474 q 574 521 579 506 q 560 547 569 536 q 532 557 550 557 q 513 552 519 557 q 506 532 506 547 q 515 507 506 514 q 535 493 524 500 q 556 475 547 486 q 565 439 565 464 m 647 358 q 706 351 679 358 q 760 344 732 344 l 765 344 q 735 368 754 360 q 696 376 715 376 q 683 376 692 376 q 668 374 676 376 q 653 369 660 372 q 647 358 647 365 m 653 415 q 667 415 657 415 q 690 415 678 415 q 714 414 703 414 q 729 414 725 414 q 753 405 742 413 q 778 397 764 397 q 755 430 778 419 q 714 440 732 440 q 699 440 708 440 q 678 437 689 439 q 660 430 668 435 q 653 415 653 425 m 900 540 q 914 529 914 540 q 908 518 914 526 q 893 500 901 510 q 876 480 885 490 q 865 461 868 469 l 865 472 q 867 491 865 479 q 872 514 868 503 q 882 533 875 525 q 900 540 889 540 m 711 478 q 750 472 732 478 q 788 465 768 465 q 778 484 788 476 q 757 496 769 492 q 731 502 744 500 q 710 504 718 504 q 679 498 693 504 q 654 476 665 492 l 660 472 q 685 477 674 476 q 711 478 696 478 m 511 529 q 516 540 511 535 q 528 546 521 546 q 556 528 546 546 q 565 496 565 511 l 565 488 q 552 496 561 492 q 534 505 543 500 q 518 516 525 510 q 511 529 511 522 m 621 632 q 646 567 621 596 q 707 539 671 539 q 763 563 740 539 q 786 618 786 586 q 757 683 786 656 q 692 710 728 710 q 640 687 660 710 q 621 632 621 664 m 632 631 q 650 675 632 657 q 694 693 668 693 q 735 678 719 693 q 750 639 750 663 q 738 595 750 614 q 697 576 726 576 q 655 590 678 576 q 632 631 632 604 m 664 624 q 676 605 664 613 q 700 597 689 597 q 721 607 713 597 q 729 631 729 617 l 729 640 q 713 622 721 625 q 694 618 706 618 q 678 619 685 618 q 665 631 672 621 q 665 628 665 629 q 664 624 664 626 m 161 722 l 161 711 l 628 711 l 647 722 l 161 722 m 161 754 l 726 754 l 711 768 l 161 768 l 161 754 m 622 799 l 617 804 q 594 811 617 806 q 554 817 572 817 q 528 813 547 817 q 493 799 508 808 l 622 799 m 161 817 l 161 799 l 304 799 l 304 817 l 161 817 m 161 847 l 304 847 l 304 869 l 161 869 l 161 847 m 161 900 l 304 900 l 304 926 l 161 926 l 161 900 m 161 956 l 304 956 l 304 983 l 161 983 l 161 956 m 726 1010 l 726 1040 l 161 1040 l 161 1010 l 726 1010 m 161 1064 l 726 1064 l 726 1097 l 161 1097 l 161 1064 z "},"6":{"ha":1043,"x_min":21,"x_max":1022,"o":"m 21 503 q 28 463 21 476 q 47 441 36 450 q 67 424 57 432 q 83 400 78 417 q 122 297 99 343 q 182 208 146 251 q 196 193 186 203 q 215 174 206 183 q 233 156 225 164 q 244 146 242 147 l 400 47 q 447 27 421 36 q 502 11 474 18 q 560 0 531 4 q 615 -4 589 -4 q 773 24 699 -4 q 903 101 847 51 q 990 222 958 151 q 1022 379 1022 293 q 1012 473 1022 428 q 975 561 1001 518 q 876 669 935 632 q 742 732 818 707 q 700 738 731 738 q 646 739 669 739 q 580 736 613 739 q 514 733 547 733 l 514 831 q 523 866 514 850 q 546 894 532 882 q 577 913 560 906 q 611 919 594 919 q 651 913 636 919 q 674 894 665 906 q 687 867 682 882 q 698 836 692 853 q 714 802 704 819 q 742 769 724 785 l 1001 769 l 1007 774 l 1007 793 q 971 951 1007 885 q 874 1062 935 1018 q 737 1127 814 1106 q 578 1149 660 1149 q 431 1122 500 1149 q 304 1048 361 1094 q 206 938 247 1001 q 146 800 165 874 q 125 689 129 740 q 119 572 121 638 q 103 574 114 574 q 46 556 71 574 q 21 503 21 539 m 140 608 q 169 809 140 714 q 254 976 197 904 q 397 1090 311 1049 q 596 1132 482 1132 q 713 1115 656 1132 q 817 1065 771 1099 q 891 981 863 1032 q 919 864 919 931 q 919 850 919 858 q 918 842 919 842 l 893 836 l 717 836 q 708 856 713 836 q 692 899 703 875 q 660 942 681 922 q 604 961 639 961 q 519 940 553 961 q 466 883 486 918 q 438 803 446 847 q 429 717 429 760 q 432 697 429 706 q 446 689 435 689 q 451 690 447 689 q 457 692 456 690 q 554 717 503 710 q 642 724 606 724 q 876 645 790 724 q 961 413 961 567 q 926 261 961 326 q 833 151 890 196 q 701 85 775 107 q 547 63 626 63 q 428 76 485 63 q 324 120 371 90 q 244 197 278 150 q 197 307 211 243 q 187 401 186 354 q 176 494 188 447 q 167 516 174 507 q 155 535 161 525 q 144 559 149 546 q 140 593 140 572 l 140 608 m 301 157 q 345 124 314 138 q 414 101 376 110 q 488 88 451 92 q 544 83 524 83 q 662 94 604 83 q 768 142 719 106 l 763 142 q 665 108 711 118 q 564 99 619 99 q 433 113 494 99 q 306 157 371 126 l 301 157 m 343 204 q 322 201 331 204 q 306 188 314 199 l 311 188 q 329 190 321 188 q 347 193 338 193 q 379 188 363 193 l 379 193 q 364 203 379 201 q 343 204 349 204 m 93 432 q 53 456 65 442 q 42 497 42 469 l 42 519 q 96 547 61 547 q 141 524 124 547 q 161 474 158 500 l 176 313 q 181 297 179 303 q 182 283 182 292 l 182 276 q 164 303 171 282 q 156 333 157 325 l 129 499 q 119 512 129 501 q 104 525 110 522 l 94 525 q 72 518 81 525 q 63 496 63 511 q 67 476 63 483 q 79 465 72 469 q 94 455 86 460 q 110 442 103 450 q 121 397 122 424 q 129 349 119 371 q 148 316 133 339 q 178 269 163 293 q 206 225 194 244 q 218 203 218 206 q 213 199 218 199 q 170 254 189 228 q 136 308 151 281 q 110 366 121 336 q 93 432 99 396 m 358 421 q 397 296 358 349 q 499 214 435 243 l 542 214 q 620 228 588 214 q 673 269 653 243 q 703 333 693 296 q 713 413 713 369 q 707 475 713 444 q 687 530 701 506 q 649 569 672 554 q 588 583 625 583 q 551 578 568 583 q 514 572 533 572 q 491 575 503 572 q 467 578 479 578 q 417 563 438 578 q 383 524 396 547 q 365 473 371 500 q 358 421 358 446 m 675 219 l 867 219 l 874 229 l 679 229 l 675 219 m 325 240 q 303 238 311 240 q 286 224 294 235 l 290 224 q 319 226 306 224 q 347 229 332 229 l 358 229 q 346 238 353 236 q 332 240 339 240 l 325 240 m 493 344 q 505 399 493 381 q 531 430 517 417 q 558 458 546 443 q 571 504 569 472 q 607 515 589 515 q 661 493 639 515 q 690 442 683 471 l 690 400 q 684 344 690 374 q 664 290 678 315 q 628 249 650 265 q 574 233 606 233 q 535 243 550 233 q 510 269 519 253 q 497 304 501 285 q 493 344 493 324 m 303 282 q 279 276 294 282 q 264 260 264 271 q 289 263 276 260 q 314 265 301 265 q 335 263 325 265 q 356 260 344 260 q 349 272 356 267 q 334 278 343 276 q 316 281 325 281 q 303 282 307 282 m 908 286 l 717 286 l 704 271 l 897 271 l 908 286 m 404 385 q 419 441 404 418 q 451 479 433 464 q 484 503 469 494 q 499 519 499 513 q 489 540 499 535 q 467 546 479 546 q 428 532 443 546 q 402 497 413 518 q 388 453 392 476 q 383 414 383 431 q 394 360 383 386 q 406 310 406 335 l 404 307 q 376 358 383 324 q 368 417 368 392 q 374 468 368 442 q 392 516 379 494 q 426 552 406 538 q 475 567 446 567 q 512 553 501 567 q 529 515 522 539 q 494 481 513 494 q 460 452 476 467 q 435 418 444 438 q 425 369 425 399 q 433 327 425 347 q 442 286 442 307 l 442 281 q 412 329 419 296 q 404 385 404 363 m 290 328 q 276 326 285 328 q 258 319 267 324 q 244 310 250 315 q 238 296 238 304 q 285 302 261 296 q 335 308 310 308 q 329 317 335 314 q 316 323 324 321 q 301 326 308 325 q 290 328 293 328 m 728 322 l 924 322 l 931 339 l 732 339 l 728 322 m 281 381 q 228 354 250 381 l 231 354 q 254 357 243 354 q 278 360 265 360 q 304 357 292 360 q 329 354 317 354 l 332 354 q 281 381 313 381 m 742 375 l 933 375 l 936 396 l 744 396 l 742 375 m 269 438 q 235 428 253 438 q 213 400 218 418 l 215 400 q 244 406 231 400 q 274 411 258 411 q 298 408 286 411 q 322 406 310 406 l 326 406 q 303 429 324 421 q 269 438 282 438 m 747 447 l 747 426 l 939 426 l 939 447 l 747 447 m 78 494 q 93 510 78 510 q 118 490 111 510 q 125 457 125 471 q 94 467 111 457 q 78 494 78 478 m 272 489 q 256 487 265 489 q 237 481 246 485 q 221 472 228 478 q 213 457 214 465 l 218 457 q 248 460 233 457 q 278 464 263 464 q 308 460 294 464 q 338 457 322 457 l 338 463 q 328 474 338 468 q 308 482 319 479 q 287 487 297 485 q 272 489 276 489 m 474 536 q 488 522 488 536 l 488 519 q 474 509 482 511 q 457 503 467 507 q 434 490 447 500 q 404 457 421 481 l 404 468 q 425 516 404 496 q 474 536 446 536 m 742 478 l 936 478 l 928 501 l 735 501 l 742 478 m 222 628 q 251 562 222 589 q 318 535 281 535 q 369 560 349 535 q 390 614 390 585 q 365 675 390 649 q 303 701 339 701 q 246 683 269 701 q 222 628 222 664 m 721 536 l 919 536 l 907 564 l 704 564 l 721 536 m 243 631 q 256 670 243 654 q 296 686 269 686 q 337 672 321 686 q 353 632 353 657 q 339 588 353 606 q 297 571 325 571 q 258 589 272 571 q 243 631 243 607 m 679 588 l 886 589 l 863 610 l 644 610 l 679 588 m 264 625 q 277 601 264 610 q 304 592 290 592 q 328 607 319 592 q 336 636 336 622 q 317 624 322 636 q 299 613 313 613 q 281 619 289 613 q 264 625 274 625 m 457 608 l 446 597 l 529 597 l 535 608 l 457 608 m 435 632 l 842 632 l 821 644 l 433 644 l 435 632 m 558 693 l 540 676 l 753 676 l 735 693 l 558 693 m 186 754 l 385 754 l 388 765 l 192 765 l 186 754 m 204 799 l 394 799 l 400 817 l 208 817 l 204 799 m 217 847 l 413 847 l 424 869 l 225 869 l 217 847 m 751 857 l 893 857 l 894 869 l 746 869 l 751 857 m 457 925 l 254 925 l 242 900 l 435 900 l 457 925 m 718 926 l 729 900 l 885 900 l 879 926 l 721 925 l 718 926 m 276 956 l 489 956 l 547 983 l 294 983 l 276 956 m 660 983 l 690 956 l 869 956 l 856 983 l 660 983 m 322 1010 l 832 1010 l 801 1040 l 356 1040 l 322 1010 m 763 1064 l 697 1097 q 583 1106 640 1106 q 483 1097 533 1106 l 404 1064 l 763 1064 z "},"7":{"ha":983,"x_min":26,"x_max":976,"o":"m 322 76 q 366 33 343 56 q 415 -9 389 10 q 469 -40 440 -28 q 531 -51 497 -51 l 538 -51 q 544 -51 540 -51 q 550 -46 549 -50 q 515 23 525 -15 q 506 99 506 61 q 513 164 506 125 q 535 242 521 203 q 567 316 549 282 q 607 365 586 350 l 624 365 q 669 370 647 365 q 708 386 692 375 q 735 416 725 397 q 744 463 744 435 q 735 510 744 493 q 708 550 726 526 q 707 551 708 550 q 706 553 706 551 q 708 560 706 557 q 713 567 710 563 l 976 950 l 976 1063 q 969 1076 976 1063 q 951 1106 961 1090 q 931 1134 940 1121 q 918 1147 922 1147 l 901 1150 l 26 1150 l 26 799 l 47 761 l 74 736 l 290 736 q 290 790 290 760 q 292 850 290 822 q 299 897 294 878 q 313 915 303 915 l 524 915 l 517 894 l 300 567 q 292 561 297 561 l 288 561 q 263 567 274 561 q 238 572 251 572 q 177 549 201 572 q 153 493 153 526 q 160 460 153 474 q 174 434 167 446 q 189 410 182 422 q 196 382 196 399 q 183 292 196 338 q 147 206 169 247 q 94 127 125 164 q 31 64 64 90 l 31 58 q 39 46 33 56 q 47 33 44 36 q 85 -3 65 8 q 136 -15 106 -15 q 188 -6 164 -15 q 235 17 213 3 q 278 47 257 31 q 322 76 299 63 m 290 138 l 279 138 q 199 85 246 108 q 106 61 153 61 l 106 76 q 64 61 89 61 l 64 71 q 118 147 92 108 q 165 226 144 185 q 199 310 186 267 q 211 404 211 354 q 206 432 211 422 q 192 449 200 442 q 179 465 185 457 q 174 489 174 474 q 188 533 174 515 q 231 550 203 550 q 264 540 251 550 q 284 514 276 529 q 294 481 292 499 q 296 446 296 463 q 282 344 296 394 q 244 247 268 294 q 186 158 219 200 q 115 81 153 115 q 133 90 122 83 q 149 101 144 97 q 215 176 182 135 q 272 262 247 217 q 313 356 297 307 q 328 454 328 404 q 319 499 328 478 q 311 542 311 521 q 312 551 311 549 q 317 561 313 554 l 588 983 l 221 983 l 221 799 l 43 799 l 43 1125 l 908 1125 l 908 989 q 904 976 908 986 q 897 963 900 965 l 629 572 q 535 508 575 551 q 471 413 496 465 q 433 301 446 360 q 421 190 421 243 q 424 131 421 158 q 428 75 428 103 l 428 71 q 427 63 428 67 q 422 58 426 58 q 415 60 421 58 q 407 64 410 63 q 373 81 388 74 q 346 95 358 88 q 320 113 333 103 q 290 138 307 122 m 432 172 q 466 373 432 283 q 581 529 500 463 q 607 544 590 538 q 639 550 624 550 q 665 547 651 550 q 689 539 678 544 q 707 523 700 533 q 714 499 714 513 q 663 444 714 444 q 638 447 649 444 q 614 450 628 450 l 607 450 q 535 370 564 415 q 488 275 506 325 q 463 171 471 225 q 453 64 454 117 q 435 94 439 75 q 431 135 431 114 q 431 156 431 146 q 432 172 432 165 m 179 192 l 179 186 q 244 309 215 244 q 274 444 274 374 q 272 469 274 454 q 265 499 271 485 q 251 524 260 514 q 226 535 242 535 q 206 520 211 535 q 200 494 200 506 q 206 476 200 483 q 218 465 211 469 q 231 454 225 460 q 238 439 236 449 l 238 399 q 222 291 238 342 q 179 192 206 240 m 307 222 q 333 216 318 221 q 358 211 347 211 l 358 218 q 347 226 358 225 q 331 228 336 228 q 319 227 324 228 q 307 222 314 226 m 654 524 q 566 486 604 524 q 503 401 528 449 q 465 311 478 354 q 453 256 453 268 l 453 235 q 477 309 460 267 q 517 389 494 351 q 567 452 540 426 q 619 478 593 478 q 640 474 631 478 q 660 471 649 471 q 678 478 669 471 q 686 494 686 485 q 654 524 686 524 m 328 267 q 374 260 350 267 l 374 263 q 373 268 374 265 q 369 271 372 271 l 328 271 l 328 267 m 396 304 q 393 301 393 304 q 396 299 393 299 q 397 301 397 299 q 396 304 397 304 m 332 314 q 360 310 343 313 q 393 307 378 307 q 384 317 393 315 q 367 319 375 319 l 354 319 q 344 319 351 319 q 338 318 339 319 l 332 314 m 338 360 l 350 360 q 378 357 367 360 q 407 354 390 354 l 411 356 q 398 372 407 368 q 374 376 389 376 q 353 374 361 376 q 338 360 346 371 m 346 415 q 392 412 372 415 q 435 408 411 408 q 417 430 435 425 q 389 435 400 435 q 363 432 381 435 q 346 415 346 429 m 215 497 q 217 510 215 506 q 229 514 218 514 q 258 496 251 514 q 264 460 264 478 l 264 449 q 263 428 264 439 q 256 418 261 418 l 253 418 q 245 441 251 431 q 233 461 239 451 q 221 479 226 471 q 215 497 215 488 m 404 471 q 429 469 419 471 q 458 460 439 467 l 458 463 q 452 476 458 471 q 437 486 446 482 q 419 492 428 490 q 404 493 410 493 q 375 487 386 493 q 353 465 364 481 l 358 465 q 381 468 369 465 q 404 471 393 471 m 607 493 q 606 494 607 493 q 606 496 606 494 q 618 506 606 504 q 640 508 631 508 l 650 508 q 664 506 657 508 q 671 496 671 504 q 660 488 671 488 l 656 488 q 607 493 631 488 m 432 614 q 452 553 432 578 q 510 529 472 529 q 560 551 540 529 q 581 603 581 574 q 562 664 581 635 q 507 693 543 693 q 451 670 471 693 q 432 614 432 647 m 443 621 q 466 663 443 649 q 513 678 489 678 q 549 663 533 678 q 565 624 565 647 q 545 578 565 596 q 499 561 525 561 q 459 580 475 561 q 443 621 443 599 m 475 608 q 483 592 475 597 q 500 588 490 588 q 533 618 533 588 q 533 624 533 621 q 532 629 532 628 q 517 613 525 618 q 496 608 508 608 l 489 608 q 482 609 485 608 q 475 614 479 610 l 475 608 m 476 736 l 707 736 l 718 754 l 488 754 l 476 736 m 758 817 l 529 817 l 519 799 l 747 799 l 758 817 m 563 869 l 549 847 l 781 847 l 793 869 l 563 869 m 75 847 l 189 847 l 189 869 l 75 869 l 75 847 m 813 900 l 831 926 l 603 926 l 585 900 l 813 900 m 75 926 l 75 900 l 189 900 l 189 926 l 75 926 m 619 956 l 849 956 l 868 983 l 640 983 l 619 956 m 75 983 l 75 956 l 189 956 l 189 983 l 75 983 m 882 1010 l 882 1040 l 75 1040 l 75 1010 l 882 1010 m 75 1064 l 882 1064 l 882 1097 l 75 1097 l 75 1064 z "},"8":{"ha":1131,"x_min":21,"x_max":1106,"o":"m 21 492 q 32 449 21 465 q 58 420 43 433 q 90 393 74 407 q 114 358 106 379 l 182 203 q 193 186 183 200 q 207 167 203 172 q 367 41 281 86 q 565 -4 454 -4 q 740 25 656 -4 q 890 108 824 54 q 998 237 956 161 q 1047 406 1040 313 q 1065 422 1054 415 q 1084 437 1075 429 q 1099 453 1093 444 q 1106 478 1106 463 q 1097 522 1106 504 q 1073 551 1088 539 q 1040 573 1058 564 q 1001 592 1021 582 q 988 604 994 594 q 973 625 981 614 q 959 646 965 636 q 949 660 953 656 q 992 726 978 693 q 1007 804 1007 760 q 986 908 1007 861 q 931 994 965 956 q 851 1063 896 1033 q 756 1111 806 1092 q 657 1140 707 1131 q 563 1150 607 1150 q 413 1130 488 1150 q 281 1070 339 1110 q 186 969 222 1031 q 150 828 150 908 q 151 788 150 806 q 157 755 153 771 q 168 722 161 739 q 186 686 175 706 q 180 680 186 683 q 165 673 174 676 q 148 666 157 669 q 135 660 139 663 q 103 626 113 644 q 83 588 94 607 q 65 568 76 575 q 44 553 54 561 q 28 531 35 544 q 21 492 21 517 m 99 582 l 99 585 q 110 615 99 601 q 140 639 122 629 q 176 654 157 649 q 210 660 194 660 l 233 660 l 233 649 q 235 618 233 631 q 243 594 238 606 q 258 573 249 583 q 281 550 267 563 q 296 547 283 550 q 319 544 308 544 q 373 560 351 544 q 394 613 394 576 q 372 672 394 649 q 315 696 350 696 q 274 685 292 696 q 246 675 257 675 q 211 692 226 675 q 185 733 196 710 q 170 781 175 757 q 165 821 165 806 q 201 957 165 899 q 294 1054 238 1015 q 422 1113 351 1093 q 560 1132 492 1132 q 688 1115 621 1132 q 810 1062 754 1097 q 903 973 867 1026 q 939 847 939 919 q 919 755 939 799 q 865 678 900 711 q 880 668 865 675 q 913 650 894 661 q 950 624 932 639 q 975 588 968 608 q 944 558 961 569 q 918 525 928 547 q 906 481 910 504 q 901 433 903 457 q 900 383 900 408 q 897 338 900 360 q 860 210 889 264 q 784 123 831 157 q 676 73 738 89 q 542 57 615 57 q 413 72 476 57 q 298 119 349 86 q 215 207 247 153 q 183 340 183 261 q 184 374 183 357 q 185 410 185 392 q 182 465 185 438 q 170 515 179 492 q 144 556 161 538 q 99 582 128 574 m 311 146 l 311 142 q 319 137 311 142 q 340 126 328 132 q 363 114 351 119 q 383 104 375 108 q 459 83 419 89 q 536 78 499 78 q 652 92 594 78 q 757 142 710 107 q 776 158 764 146 q 789 172 789 169 l 789 178 q 746 152 767 169 q 706 125 725 135 q 544 89 626 89 q 425 106 486 89 q 311 146 364 122 m 317 401 q 335 324 317 361 q 384 258 354 286 q 452 214 414 231 q 529 197 490 197 q 618 213 576 197 q 690 258 660 229 q 739 328 721 288 q 757 418 757 368 q 749 478 757 449 q 726 533 742 508 q 687 572 711 557 q 628 588 663 588 q 584 576 600 588 q 550 546 568 565 l 544 546 q 467 582 515 582 q 406 565 433 582 q 358 522 378 549 q 327 464 338 496 q 317 401 317 432 m 882 214 l 907 292 q 913 384 911 336 q 922 472 915 432 q 947 536 929 511 q 1001 561 965 561 q 1039 549 1025 561 q 1053 513 1053 536 q 1044 478 1053 497 q 1017 460 1036 460 q 1001 463 1007 460 q 994 447 996 456 q 990 432 992 439 q 983 378 986 406 q 974 323 981 350 q 954 272 967 296 q 918 229 942 247 q 902 216 913 225 q 882 207 892 207 l 882 214 m 451 339 q 453 381 451 360 q 467 421 456 403 q 517 431 497 421 q 554 442 536 442 q 581 434 569 442 q 607 426 592 426 q 626 429 617 426 q 646 432 635 432 q 662 424 656 432 q 671 403 668 415 q 674 378 674 390 q 675 357 675 365 l 675 351 q 641 256 675 293 q 547 218 607 218 q 503 228 521 218 q 473 256 485 239 q 456 294 461 272 q 451 339 451 315 m 757 239 q 786 233 772 238 q 814 224 800 229 q 815 226 814 225 q 815 229 815 228 q 803 246 815 242 q 781 250 790 250 q 757 239 764 250 m 301 254 q 278 251 292 254 q 264 235 264 249 l 264 229 l 301 244 l 301 254 m 31 494 q 51 535 31 518 q 92 551 71 551 q 147 524 129 551 q 171 463 164 496 l 171 443 q 174 351 171 394 q 176 260 176 308 l 171 260 q 147 329 161 292 q 108 394 132 367 q 87 417 100 406 q 61 439 74 428 q 40 464 49 450 q 31 494 31 478 m 336 396 q 344 453 336 422 q 369 508 353 483 q 410 550 386 533 q 467 567 435 567 q 510 554 492 567 q 529 514 529 542 q 516 483 529 494 q 485 472 503 472 q 466 478 474 472 q 449 483 458 483 q 419 467 431 483 q 401 430 408 451 q 392 385 394 408 q 389 350 389 363 q 397 308 389 328 q 404 265 404 288 l 404 260 q 378 278 390 261 q 356 318 365 296 q 342 362 347 340 q 336 396 336 383 m 275 301 q 254 294 265 301 q 243 276 243 286 q 244 271 243 271 l 296 289 q 288 299 296 296 q 275 301 279 301 m 772 289 q 782 283 772 286 q 803 277 792 281 q 827 272 815 274 q 843 269 839 269 q 828 293 843 285 q 801 301 814 301 q 785 298 799 301 q 772 289 772 294 m 690 356 q 688 385 690 364 q 681 428 686 407 q 666 467 675 450 q 643 483 657 483 q 626 481 633 483 q 607 478 618 478 q 577 490 589 478 q 565 519 565 501 q 585 559 565 546 q 628 572 604 572 q 676 560 656 572 q 712 527 697 547 q 734 482 726 507 q 742 432 742 457 q 731 351 742 389 q 685 286 719 314 l 685 294 q 688 325 685 310 q 690 356 690 340 m 949 483 q 947 453 949 475 q 944 406 946 431 q 940 358 942 381 q 939 328 939 336 l 939 301 q 956 333 951 310 q 964 383 961 356 q 970 438 967 411 q 985 483 974 465 q 997 494 989 492 q 1014 498 1006 496 q 1028 504 1022 500 q 1033 519 1033 508 q 1025 538 1033 531 q 1006 546 1017 546 q 967 526 979 546 q 949 483 954 506 m 260 349 q 233 340 246 349 q 221 317 221 332 q 244 323 222 317 q 290 333 267 329 l 290 336 q 278 347 290 346 q 260 349 267 349 m 783 328 q 822 324 800 325 q 863 322 843 322 q 848 342 863 336 q 822 349 833 349 q 799 346 814 349 q 783 331 783 343 l 783 328 m 357 392 l 357 378 q 358 364 357 371 q 363 354 358 357 q 362 362 363 358 q 361 369 361 365 q 367 411 361 388 q 385 456 374 435 q 413 490 397 476 q 449 504 429 504 q 465 501 458 504 q 482 499 471 499 q 502 501 490 499 q 514 514 514 503 q 503 540 514 531 q 478 550 493 550 q 426 535 449 550 q 388 496 403 519 q 365 444 372 472 q 357 392 357 417 m 646 504 q 680 489 667 504 q 700 453 693 474 q 709 408 707 432 q 711 368 711 385 l 711 358 q 719 372 718 361 q 721 393 721 382 l 721 413 q 716 457 721 432 q 700 504 711 482 q 671 542 689 526 q 628 557 653 557 q 599 549 613 557 q 586 522 586 540 q 594 501 586 510 q 615 493 601 493 q 630 499 624 493 q 646 504 636 504 m 260 400 q 227 390 244 400 q 210 364 210 379 q 249 372 229 364 q 290 379 269 379 l 290 382 q 278 396 290 392 q 260 400 267 400 m 828 401 q 802 398 818 401 q 786 379 786 394 l 868 379 q 852 398 868 394 q 828 401 836 401 m 61 490 q 69 467 61 474 q 93 453 78 460 q 113 438 107 446 q 124 421 119 429 q 132 404 128 413 q 146 390 136 396 l 146 426 q 144 458 146 440 q 138 492 143 476 q 121 519 132 508 q 90 531 110 531 q 68 517 75 531 q 61 490 61 503 m 254 458 q 222 447 239 458 q 204 419 204 436 q 250 426 228 419 q 297 433 272 433 q 280 451 297 444 q 254 458 263 458 m 829 458 q 803 453 818 458 q 788 433 788 449 q 788 431 788 433 q 789 426 788 428 q 850 433 819 433 q 863 433 857 433 q 876 432 869 432 q 858 453 871 447 q 829 458 844 458 m 1000 531 q 1012 529 1007 531 q 1017 519 1017 528 q 1008 510 1017 517 q 988 493 999 503 q 969 472 978 483 q 960 447 960 460 l 951 447 q 953 473 951 458 q 961 500 956 488 q 976 522 967 513 q 1000 531 986 531 m 78 492 q 85 502 78 500 q 99 504 92 504 q 125 486 119 504 q 131 453 131 468 l 83 478 q 81 482 82 478 q 78 489 79 486 l 78 492 m 265 515 q 247 513 258 515 q 226 507 236 511 q 208 495 215 503 q 200 476 200 488 q 219 481 207 476 q 244 489 232 485 l 306 489 q 311 496 311 490 q 296 513 311 510 q 269 515 281 515 l 265 515 m 831 515 q 799 508 817 515 q 782 483 782 500 l 799 483 q 815 484 803 483 q 840 485 826 485 q 866 488 854 486 q 882 489 878 489 l 882 492 q 876 501 882 497 q 860 508 869 506 q 843 513 851 511 q 831 515 835 515 m 613 519 q 607 531 607 521 q 619 540 607 540 l 628 540 q 662 531 644 540 q 685 504 679 522 l 679 504 q 653 517 661 511 q 633 522 646 522 q 624 522 629 522 q 613 519 619 521 m 440 525 q 457 533 449 529 q 475 536 465 536 q 490 529 485 536 q 494 513 494 522 q 467 517 478 513 q 440 525 457 522 m 704 631 q 726 574 704 597 q 783 550 747 550 q 835 571 815 550 q 856 624 856 592 q 837 678 856 656 q 783 701 818 701 q 727 683 750 701 q 704 631 704 665 m 254 633 q 272 669 254 657 q 310 681 290 681 q 364 628 364 681 q 311 576 364 576 q 270 592 286 576 q 254 633 254 607 m 719 628 q 736 671 719 656 q 781 686 753 686 q 820 669 806 686 q 835 628 835 653 q 819 594 835 613 q 789 576 804 576 q 743 590 767 576 q 719 628 719 604 m 279 646 q 287 613 279 628 q 314 597 294 597 q 343 629 343 597 q 338 644 343 635 q 330 635 335 638 q 319 633 325 633 l 315 633 q 296 640 303 633 q 279 646 289 646 m 747 651 q 752 619 747 636 q 776 601 757 601 q 804 612 793 601 q 815 639 815 622 l 815 643 q 808 654 815 653 q 797 638 801 643 q 783 633 793 633 q 765 642 771 633 q 747 651 758 651 m 435 811 q 443 756 435 782 q 468 708 451 729 q 508 676 485 688 q 563 664 532 664 q 614 678 592 664 q 651 713 636 692 q 673 762 665 735 q 681 817 681 789 q 674 873 681 844 q 654 924 668 901 q 617 962 640 947 q 563 976 594 976 q 503 962 528 976 q 464 924 479 947 q 442 871 449 900 q 435 811 435 842 m 503 807 q 506 838 503 818 q 515 875 508 857 q 532 906 521 893 q 560 919 543 919 l 617 919 q 638 909 629 919 q 653 885 647 899 q 661 856 658 871 q 664 833 664 842 q 659 792 664 818 q 644 743 654 767 q 617 702 633 719 q 579 685 601 685 q 540 697 556 685 q 517 728 525 710 q 506 768 508 747 q 503 807 503 789 m 397 722 l 246 722 l 244 726 l 397 726 l 397 722 m 701 726 l 700 722 l 854 722 l 857 726 l 701 726 m 206 764 l 394 764 l 394 774 l 204 774 l 206 764 m 711 764 l 890 764 l 893 774 l 714 774 l 711 764 m 714 799 l 899 799 l 903 817 l 714 817 l 714 799 m 200 817 l 201 799 l 396 799 l 397 817 l 200 817 m 203 847 l 397 847 l 401 869 l 208 869 l 203 847 m 711 847 l 904 847 l 906 869 l 711 869 l 711 847 m 217 900 l 413 900 l 422 926 l 224 926 l 217 900 m 704 900 l 893 900 l 883 926 l 696 926 l 704 900 m 650 983 l 683 956 l 863 956 l 836 983 l 650 983 m 240 956 l 440 956 l 475 983 l 253 983 l 240 956 m 285 1010 l 814 1010 q 806 1026 814 1015 q 794 1040 797 1038 l 322 1040 l 285 1010 m 372 1064 l 736 1064 q 724 1074 736 1068 q 695 1086 711 1081 q 665 1096 679 1092 q 649 1100 651 1100 q 600 1105 625 1103 q 550 1107 575 1107 q 503 1105 526 1107 q 457 1100 481 1103 q 438 1097 450 1100 q 412 1088 425 1093 q 388 1076 399 1083 q 372 1064 376 1069 z "},"9":{"ha":978,"x_min":21,"x_max":954,"o":"m 21 265 q 59 138 21 192 q 156 50 97 85 q 283 -2 214 15 q 413 -19 351 -19 q 549 -1 483 -19 q 679 54 615 18 q 760 116 729 82 q 813 190 792 150 q 850 276 835 231 q 882 371 865 321 q 884 377 882 374 q 888 382 886 381 q 910 400 899 392 q 932 418 922 408 q 948 440 942 428 q 954 469 954 453 q 941 519 954 496 q 908 557 928 542 q 909 584 908 571 q 910 611 910 597 q 874 814 910 717 q 776 986 839 911 q 624 1106 713 1061 q 429 1150 535 1150 q 272 1122 346 1150 q 142 1044 199 1094 q 53 924 86 994 q 21 767 21 853 q 40 637 21 701 q 95 522 58 572 q 187 439 132 471 q 314 407 242 407 q 353 413 335 407 q 392 418 372 418 q 404 413 399 418 q 417 403 408 408 q 438 394 426 399 q 462 388 450 390 q 483 386 474 385 q 484 367 485 383 q 483 347 483 350 q 472 291 483 318 q 442 242 461 264 q 397 208 422 221 q 340 194 371 194 l 329 194 q 312 197 321 194 q 301 206 303 199 q 310 233 308 222 q 313 260 313 244 q 298 311 313 285 q 260 360 283 338 q 210 398 238 383 q 158 413 183 413 q 103 400 128 413 q 60 367 78 388 q 31 321 42 347 q 21 265 21 294 m 42 268 q 69 351 42 315 q 144 388 96 388 q 215 363 185 388 q 244 296 244 339 q 231 257 244 272 q 218 226 218 242 q 236 203 218 214 q 278 187 254 193 q 324 177 301 181 q 356 174 347 174 q 451 195 410 174 q 520 252 492 217 q 563 334 549 288 q 576 429 576 381 q 570 476 576 453 q 551 519 564 500 q 519 551 539 539 q 474 564 500 564 q 421 549 433 564 q 401 516 408 533 q 377 483 393 499 q 314 468 361 468 q 207 493 257 468 q 120 559 157 518 q 63 653 83 600 q 42 763 42 706 q 74 917 42 849 q 160 1032 106 985 q 286 1104 214 1079 q 440 1129 358 1129 q 609 1090 536 1129 q 731 985 682 1050 q 806 835 781 919 q 831 663 831 751 q 831 647 831 656 q 832 626 832 638 q 829 596 832 611 q 819 574 826 581 l 778 532 q 768 506 772 525 q 762 459 764 486 q 759 401 760 432 q 758 342 758 371 q 721 208 758 265 q 624 113 683 151 q 494 56 565 75 q 357 38 424 38 q 250 51 306 38 q 148 93 194 65 q 72 165 101 121 q 42 268 42 208 m 306 760 q 349 688 315 719 q 425 656 382 656 q 478 672 456 656 q 514 712 500 688 q 534 765 528 736 q 540 818 540 793 q 535 872 540 844 q 516 920 529 899 q 482 955 503 942 q 431 968 461 968 q 372 955 396 968 q 334 919 349 942 q 313 869 319 897 q 306 810 306 840 l 306 760 m 389 724 q 381 766 383 750 q 378 804 378 782 q 381 841 378 821 q 392 879 383 861 q 414 909 400 897 q 449 921 428 921 q 484 910 471 921 q 503 882 497 899 q 512 846 510 865 q 514 810 514 826 q 511 772 514 793 q 500 731 508 750 q 477 700 492 713 q 440 688 463 688 q 410 698 422 688 q 389 724 397 708 m 857 547 q 901 534 883 547 q 918 493 918 521 q 908 461 918 471 q 887 447 899 451 q 864 440 875 443 q 850 428 853 438 l 810 283 q 800 259 807 274 q 784 231 793 244 q 764 208 775 218 q 740 199 753 199 q 746 226 740 211 q 758 257 751 240 q 770 290 764 274 q 778 319 776 306 q 783 399 782 358 q 789 472 783 439 q 809 526 794 506 q 857 547 824 547 m 504 350 q 504 368 504 357 q 503 382 504 379 l 493 401 q 442 435 468 415 q 415 488 415 456 q 432 527 415 513 q 475 542 449 542 q 512 531 496 542 q 539 506 528 521 q 556 472 550 490 q 561 435 561 453 q 558 381 561 411 q 544 324 554 351 q 519 272 535 296 q 478 236 503 249 q 477 239 478 238 q 476 242 476 240 q 482 259 476 253 q 493 278 488 265 q 502 306 500 297 q 504 332 504 315 l 504 350 m 581 628 q 603 570 581 593 q 661 547 626 547 q 721 572 699 547 q 743 633 743 597 q 720 694 743 674 q 665 714 697 714 q 605 688 629 714 q 581 628 581 663 m 63 263 q 90 172 63 210 q 160 108 118 133 q 252 71 203 83 q 346 58 301 58 q 410 63 371 58 q 488 77 449 67 q 562 103 528 88 q 613 143 596 119 q 486 93 550 111 q 353 75 422 75 q 265 85 313 75 q 175 118 217 96 q 106 176 133 140 q 78 263 78 213 q 83 292 78 276 q 96 320 88 307 q 117 342 104 333 q 147 350 131 350 q 191 330 178 350 q 204 285 204 310 q 204 275 204 281 q 203 267 204 271 q 216 283 214 275 q 218 304 218 292 q 198 351 218 335 q 150 367 178 367 q 85 335 107 367 q 63 263 63 303 m 668 1010 l 629 1040 l 213 1040 l 183 1010 l 668 1010 m 596 631 q 615 678 596 657 q 661 699 633 699 q 706 683 685 699 q 726 640 726 668 q 710 589 726 610 q 663 568 693 568 q 615 585 635 568 q 596 631 596 601 m 597 1064 q 567 1085 585 1076 q 528 1098 549 1093 q 485 1106 507 1103 q 443 1108 463 1108 q 390 1105 418 1108 q 338 1095 363 1101 q 292 1081 313 1089 q 258 1064 271 1072 l 597 1064 m 99 269 q 131 183 99 217 q 208 129 163 149 q 302 102 253 110 q 385 94 351 94 q 415 98 396 94 q 433 110 433 101 q 410 110 426 110 q 377 110 394 110 q 343 111 360 111 q 322 111 328 111 q 262 124 297 113 q 195 156 226 136 q 142 203 164 176 q 119 261 119 231 q 127 293 119 276 q 154 310 135 310 q 171 304 167 310 q 182 288 175 299 q 187 294 186 289 q 188 301 188 299 q 177 321 188 313 q 156 329 167 329 q 115 311 132 329 q 99 269 99 293 m 440 482 q 452 456 440 464 q 479 443 464 449 q 508 429 494 438 q 524 401 521 421 q 527 376 525 396 q 529 350 529 357 l 535 361 l 535 422 q 524 486 535 457 q 478 521 513 515 q 449 510 458 521 q 440 482 440 499 m 861 526 q 833 517 843 526 q 817 494 822 508 q 810 463 811 479 q 808 429 808 446 l 808 394 q 809 375 808 390 q 810 356 810 360 q 811 360 810 354 q 815 376 813 367 q 820 395 818 385 q 825 413 822 406 q 840 440 829 429 q 863 460 851 451 q 884 478 875 469 q 893 497 893 486 q 884 519 893 513 q 861 526 875 526 m 500 983 l 536 956 l 711 956 l 693 983 l 500 983 m 158 983 l 136 956 l 314 956 l 344 983 l 158 983 m 135 610 l 550 610 l 550 621 l 126 621 l 135 610 m 292 926 l 118 926 l 104 900 l 283 900 l 292 926 m 569 900 l 746 900 l 731 926 l 556 926 l 569 900 m 574 869 l 579 847 l 767 847 l 760 869 l 574 869 m 94 869 l 86 847 l 271 847 l 275 869 l 94 869 m 582 817 l 582 799 l 785 799 l 779 817 l 582 817 m 671 517 q 633 508 653 517 q 607 479 614 499 l 619 479 q 672 482 647 479 q 724 485 696 485 l 742 485 q 713 512 735 507 q 671 517 690 517 m 79 817 l 79 799 l 267 799 l 268 817 l 79 817 m 671 460 q 651 458 663 460 q 630 451 640 456 q 613 440 619 447 q 606 422 606 432 l 613 422 q 635 424 618 422 q 669 428 651 426 q 703 431 688 429 q 726 433 719 433 l 726 436 q 719 448 726 443 q 703 456 713 453 q 685 459 694 458 q 671 460 675 460 m 667 403 q 650 401 660 403 q 630 397 640 400 q 613 387 619 393 q 606 371 606 381 q 663 374 635 371 q 722 378 692 378 q 715 391 722 386 q 699 399 708 396 q 680 402 689 401 q 667 403 671 403 m 279 722 l 76 722 l 79 710 l 283 710 l 279 722 m 364 522 l 233 522 q 257 506 240 511 q 293 500 274 500 q 310 500 299 500 q 334 502 322 500 q 355 509 346 504 q 364 522 364 514 m 97 667 l 315 667 l 308 676 l 93 676 l 97 667 m 794 754 l 789 764 l 576 764 l 575 754 l 794 754 m 175 563 l 182 553 l 383 553 l 404 563 l 175 563 m 76 765 l 75 754 l 267 754 l 267 764 l 76 765 m 461 490 q 472 507 461 506 q 508 485 496 504 q 522 443 519 465 q 506 456 515 451 q 485 464 496 460 q 468 474 475 468 q 461 490 461 479 m 658 346 q 647 345 654 346 q 631 342 639 344 q 617 335 622 340 q 611 324 611 331 l 707 324 q 701 335 707 331 q 688 342 696 339 q 671 345 679 344 q 658 346 663 346 m 621 642 q 629 609 621 625 q 657 593 638 593 q 677 601 668 593 q 686 619 686 608 q 685 622 686 621 q 685 625 685 624 q 671 621 676 622 q 658 619 665 619 q 638 631 644 619 q 621 642 632 642 m 601 278 q 616 277 606 278 q 638 275 626 276 q 660 273 650 274 q 674 272 669 272 l 682 272 q 665 290 682 288 q 638 293 649 293 l 632 293 q 613 291 624 293 q 601 281 601 289 l 601 278 m 864 507 q 876 496 876 507 l 876 490 q 853 478 865 485 q 831 464 840 472 q 829 468 829 465 q 829 472 829 471 q 840 496 829 485 q 864 507 850 507 m 592 242 q 617 235 597 239 q 643 231 636 232 l 649 231 q 658 236 657 231 q 641 249 651 247 q 619 251 631 251 q 604 250 611 251 q 592 242 597 249 m 717 729 l 715 722 l 799 722 l 793 729 l 717 729 m 581 206 l 581 200 q 595 198 581 200 q 617 194 610 196 l 628 194 l 617 206 l 581 206 m 528 676 l 522 667 l 558 667 l 563 676 l 528 676 m 614 729 l 572 729 l 569 722 l 611 722 l 614 729 z "}," ":{"ha":694,"x_min":0,"x_max":0,"o":""},"!":{"ha":492,"x_min":21,"x_max":469,"o":"m 108 131 q 111 98 108 114 q 124 68 114 82 q 153 27 139 47 q 183 -10 167 7 q 219 -36 199 -26 q 267 -46 239 -46 q 317 -35 293 -46 q 360 -5 342 -24 q 388 38 378 14 q 399 89 399 63 q 398 113 399 106 q 388 135 397 119 q 361 183 375 160 q 331 222 347 206 q 292 249 314 239 q 239 260 269 260 q 189 249 213 260 q 147 222 165 239 q 119 181 129 204 q 108 131 108 157 m 133 131 q 165 204 133 175 q 240 233 197 233 q 313 206 285 233 q 342 135 342 178 q 311 58 342 90 q 236 26 281 26 q 163 58 193 26 q 133 131 133 89 m 165 113 q 188 74 165 85 q 233 63 210 63 q 288 78 264 63 q 311 128 311 93 q 310 146 311 138 q 300 161 310 154 q 281 109 296 131 q 232 88 265 88 q 196 97 213 88 q 165 119 179 107 l 165 113 m 200 139 q 211 120 200 126 q 233 114 222 114 q 263 126 251 114 q 274 157 274 139 q 242 148 257 157 q 200 139 228 139 m 85 1097 q 63 1086 74 1097 q 42 1059 51 1075 q 26 1026 32 1043 q 21 997 21 1010 q 22 972 21 985 q 26 949 24 960 q 29 930 28 938 q 31 921 31 922 l 99 719 l 99 710 q 89 692 99 699 q 67 676 79 685 q 46 656 56 668 q 36 619 36 643 q 48 578 36 593 q 73 549 60 563 q 98 519 86 536 q 110 474 110 503 q 92 437 110 447 q 47 435 74 426 l 42 431 q 41 423 42 429 q 40 414 40 417 q 81 319 40 354 q 181 285 122 285 q 230 298 207 285 q 276 311 253 311 q 319 303 299 311 q 363 296 339 296 q 424 317 397 296 q 450 374 450 338 q 437 428 450 415 q 408 447 424 442 q 380 458 393 453 q 367 489 367 464 q 382 526 367 513 q 416 551 397 539 q 451 578 435 563 q 467 624 467 594 q 457 660 467 643 q 435 689 447 676 q 413 710 422 701 q 403 722 403 718 l 404 725 l 465 917 q 469 944 469 931 q 465 974 469 958 q 464 977 465 974 q 461 983 463 981 q 407 1047 435 1018 q 372 1082 379 1075 q 322 1097 349 1097 l 85 1097 m 61 404 q 62 407 61 406 q 63 410 63 408 q 117 426 94 410 q 153 467 139 443 q 175 522 168 492 q 182 579 182 551 q 129 689 182 646 l 57 921 q 51 949 53 932 q 49 976 49 965 q 54 1013 49 997 q 67 1038 60 1028 q 80 1055 74 1049 q 89 1064 86 1061 l 339 1064 q 368 1016 363 1044 q 374 960 374 988 q 373 940 374 953 q 372 926 372 928 l 326 678 q 310 625 315 650 q 306 569 306 600 q 347 456 306 506 q 375 437 357 444 q 393 414 393 429 q 383 395 393 401 q 361 386 374 389 q 335 383 349 383 q 315 383 322 383 q 272 390 288 383 q 238 419 257 397 l 233 419 q 186 381 217 400 q 128 361 156 361 q 89 374 111 361 q 61 404 67 386 m 114 394 q 125 388 119 389 q 138 388 131 388 q 155 390 144 388 q 174 399 165 393 q 190 411 183 404 q 197 426 197 418 q 156 413 176 426 q 114 394 135 400 m 264 431 q 286 408 267 413 q 318 404 306 404 q 332 404 326 404 q 347 410 339 404 q 331 417 342 414 q 310 424 321 421 q 288 429 299 428 q 272 431 278 431 l 264 431 m 249 483 q 233 481 242 483 q 225 469 225 479 l 264 476 q 257 483 263 482 q 249 483 251 483 m 57 614 q 70 650 57 632 q 104 668 83 668 q 133 658 121 668 q 151 635 144 649 q 162 606 158 622 q 165 578 165 590 q 163 554 165 571 q 156 520 160 538 q 145 490 151 503 q 132 476 139 476 l 129 476 q 124 503 128 483 q 119 528 121 522 q 106 552 115 543 q 85 569 96 561 q 65 586 74 576 q 57 614 57 596 m 243 517 q 228 515 236 517 q 221 503 221 513 l 265 503 q 257 513 264 510 q 243 517 250 517 m 321 583 q 338 652 321 621 q 399 683 356 683 q 428 669 417 683 q 440 638 440 654 q 425 603 440 611 q 391 588 410 594 q 356 567 372 581 q 336 518 339 554 l 333 518 q 325 526 328 518 q 322 546 322 535 q 321 567 321 557 q 321 583 321 578 m 243 550 q 218 547 231 550 q 206 528 206 543 q 219 528 208 528 q 274 533 229 529 q 262 547 271 544 q 243 550 253 550 m 108 621 q 133 582 129 604 q 140 533 138 560 q 145 550 144 542 q 146 568 146 558 q 144 589 146 576 q 137 614 142 601 q 124 635 132 626 q 104 643 117 643 q 88 636 93 643 q 82 619 82 629 q 86 602 82 610 q 101 594 90 594 q 102 606 101 597 q 104 617 103 614 q 108 621 104 621 m 249 590 q 218 586 236 590 q 200 564 200 582 l 279 569 q 249 590 272 590 m 390 658 q 358 640 371 658 q 346 603 346 621 q 347 600 346 603 q 347 596 347 597 q 365 622 354 608 q 392 636 376 636 q 393 626 392 628 q 388 617 394 624 q 391 616 389 617 q 393 615 393 615 q 414 638 414 615 q 408 654 414 650 q 390 658 401 658 m 235 632 q 216 626 224 632 q 201 611 208 619 l 276 611 l 275 619 q 258 631 274 629 q 235 632 243 632 m 175 719 q 193 674 175 692 q 239 657 211 657 q 284 672 267 657 q 301 714 301 686 q 282 758 301 744 q 236 772 263 772 q 193 760 211 772 q 175 719 175 747 m 192 713 q 205 745 192 733 q 238 757 218 757 q 267 747 260 757 q 275 715 275 736 q 231 674 275 674 q 202 685 213 674 q 192 713 192 696 m 213 707 q 219 695 213 697 q 233 693 226 693 q 255 703 247 693 q 263 726 263 713 q 238 719 249 726 q 213 710 226 711 l 213 707 m 118 818 l 124 799 l 321 799 l 326 818 l 118 818 m 101 869 l 110 847 l 331 847 l 338 869 l 101 869 m 92 900 l 340 900 l 347 926 l 88 926 l 92 900 m 85 956 l 344 956 l 343 983 l 85 983 l 85 956 m 111 1040 q 91 1031 96 1040 q 86 1010 86 1021 l 339 1010 l 328 1040 l 111 1040 z "},"\"":{"ha":603,"x_min":14,"x_max":594,"o":"m 353 746 q 366 723 353 733 q 398 704 379 713 q 436 691 417 696 q 468 686 456 686 q 551 710 525 686 q 586 774 578 735 q 592 864 594 814 q 590 964 590 914 q 589 1003 590 981 q 582 1046 588 1025 q 566 1081 576 1067 q 538 1094 556 1094 l 326 1094 l 306 1082 l 306 908 l 353 749 l 353 746 m 331 918 l 331 1068 l 543 1068 l 543 917 l 493 749 l 381 749 l 331 918 m 465 857 l 399 857 l 404 846 l 460 846 l 465 857 m 378 893 l 385 882 l 481 882 l 486 893 l 378 893 m 360 925 l 504 925 l 504 942 l 360 942 l 360 925 m 360 964 l 504 964 l 504 986 l 360 986 l 360 964 m 360 1008 l 504 1008 l 504 1040 l 360 1040 l 360 1008 m 61 746 q 74 723 61 733 q 106 704 88 713 q 144 691 125 696 q 176 686 164 686 q 260 710 233 686 q 294 774 286 735 q 301 864 303 814 q 299 964 299 914 q 297 1003 299 981 q 290 1046 296 1025 q 274 1081 285 1067 q 246 1094 264 1094 l 35 1094 l 14 1082 l 14 908 l 61 749 l 61 746 m 39 918 l 39 1068 l 251 1068 l 251 917 l 201 749 l 89 749 l 39 918 m 174 857 l 107 857 l 113 846 l 168 846 l 174 857 m 86 893 l 93 882 l 189 882 l 194 893 l 86 893 m 68 925 l 213 925 l 213 942 l 68 942 l 68 925 m 68 964 l 213 964 l 213 986 l 68 986 l 68 964 m 68 1008 l 213 1008 l 213 1040 l 68 1040 l 68 1008 z "},"$":{"ha":892,"x_min":21,"x_max":881,"o":"m 474 -103 q 522 -137 497 -122 q 576 -151 547 -151 q 601 -149 586 -151 q 621 -136 617 -147 q 596 -79 606 -104 q 586 -22 586 -54 q 588 -10 586 -18 q 590 1 590 -1 l 596 7 q 803 92 736 18 q 869 301 869 165 q 867 349 869 326 q 864 394 864 371 q 872 424 864 413 q 881 453 881 436 q 868 500 881 479 q 835 534 856 521 q 791 552 815 547 q 742 554 767 557 q 740 557 742 556 q 738 560 738 558 q 721 581 733 564 q 706 603 708 597 q 670 633 696 611 q 616 681 644 656 q 562 728 588 706 q 526 760 536 750 q 476 813 500 783 q 451 879 451 842 q 464 924 451 903 q 506 944 476 944 q 560 924 544 944 q 584 873 576 903 q 597 812 592 843 q 617 760 601 781 q 627 747 619 754 q 638 739 635 739 l 847 739 l 847 1060 l 785 1142 l 624 1142 q 625 1168 624 1157 q 626 1192 626 1179 q 623 1205 626 1201 q 611 1218 619 1208 q 595 1234 608 1222 q 579 1250 582 1246 l 563 1250 q 537 1245 549 1250 q 513 1234 525 1240 q 490 1223 501 1228 q 465 1218 478 1218 q 447 1224 458 1218 q 422 1237 436 1229 q 393 1250 408 1244 q 361 1256 378 1256 q 333 1252 350 1256 q 315 1233 315 1249 q 322 1217 315 1225 q 337 1200 329 1208 q 351 1183 344 1192 q 358 1163 358 1174 q 353 1154 358 1158 q 232 1113 288 1139 q 135 1049 176 1088 q 69 958 93 1011 q 46 833 46 904 q 60 738 46 782 q 100 652 75 693 q 156 574 125 611 q 221 501 188 538 q 220 494 221 497 q 219 486 219 490 q 240 415 219 446 q 306 385 261 385 q 334 393 322 385 q 361 401 346 401 l 368 401 q 403 362 389 386 q 417 310 417 338 q 401 256 417 281 q 353 232 385 232 q 302 249 324 232 q 263 292 281 267 q 228 349 244 318 q 194 405 213 379 q 152 448 175 431 q 99 465 129 465 q 44 451 68 465 q 21 401 21 436 q 28 373 21 385 q 47 350 35 361 q 46 338 46 343 q 46 328 46 333 q 52 266 46 294 q 58 203 58 238 q 50 155 58 179 q 42 107 42 131 q 58 74 42 85 q 93 64 74 64 q 145 82 121 64 q 189 117 169 100 q 192 117 190 117 q 194 118 194 118 q 210 113 203 118 q 219 106 211 111 q 234 94 226 100 q 249 82 242 88 q 258 75 256 76 q 276 65 263 72 q 303 51 289 58 q 330 36 317 43 q 347 28 343 29 q 354 24 350 28 q 358 17 358 19 q 354 -2 358 14 q 347 -25 350 -18 q 342 -37 346 -29 q 332 -53 338 -44 q 322 -71 326 -62 q 315 -82 317 -79 q 340 -122 322 -101 q 379 -142 357 -142 q 429 -129 404 -142 q 474 -103 454 -117 m 443 -36 q 402 -60 419 -51 q 357 -68 385 -68 q 358 -62 357 -67 q 358 -57 358 -58 q 363 -42 360 -53 q 368 -20 365 -32 q 374 2 371 -8 q 379 17 378 13 q 384 17 381 17 q 389 18 388 18 q 395 17 392 18 q 400 17 399 17 q 424 15 407 17 q 458 10 440 13 q 493 5 476 7 q 517 1 510 3 q 528 -38 521 -17 q 542 -78 535 -60 q 532 -83 540 -83 q 483 -67 507 -83 q 443 -36 460 -50 m 164 192 l 158 192 q 146 176 153 185 q 131 160 139 168 q 100 135 117 146 q 68 124 83 124 q 74 162 68 143 q 79 200 79 181 q 76 244 79 222 q 74 289 74 267 q 75 312 74 300 q 85 329 76 324 l 110 244 q 119 270 117 251 q 121 299 121 289 q 110 353 121 340 q 86 370 99 367 q 63 376 74 374 q 51 400 51 379 q 56 425 51 417 q 74 444 60 433 l 94 444 q 124 440 110 444 q 147 418 139 436 l 210 275 q 272 218 228 236 q 356 200 317 200 q 409 210 383 200 q 453 240 435 221 q 483 283 472 258 q 494 338 494 308 q 461 447 494 394 q 374 524 428 500 q 343 534 357 531 q 316 542 329 538 q 289 552 303 546 q 258 569 275 558 q 192 631 224 599 q 136 701 160 664 q 98 779 113 738 q 83 868 83 821 q 115 993 83 942 q 197 1077 146 1044 q 311 1125 247 1110 q 440 1140 375 1140 q 533 1130 492 1140 q 621 1096 574 1119 l 626 1096 q 633 1099 631 1096 q 635 1107 635 1103 q 637 1115 636 1111 q 642 1118 638 1118 l 775 1118 l 775 801 l 621 801 l 617 807 q 602 877 611 842 q 576 942 593 913 q 532 989 560 971 q 461 1007 504 1007 q 391 979 419 1007 q 363 911 363 951 q 383 847 363 878 q 432 797 404 817 l 653 624 q 674 606 663 617 q 694 584 685 596 q 710 560 704 572 q 717 535 717 547 q 714 507 717 521 q 711 479 711 493 l 711 469 l 764 333 q 768 310 767 326 q 769 281 769 293 q 740 175 769 221 q 666 99 711 129 q 565 53 621 68 q 458 38 510 38 q 295 81 371 38 q 164 192 219 125 m 179 228 q 189 208 179 222 q 206 186 199 193 q 319 99 253 129 q 456 69 385 69 q 512 72 481 69 q 573 83 543 75 q 629 106 603 92 q 672 142 656 119 l 668 143 q 617 115 640 126 q 572 95 594 103 q 525 84 549 88 q 471 81 501 81 q 386 92 425 81 q 312 125 347 104 q 244 172 276 146 q 179 228 213 199 m 447 171 q 459 151 453 164 q 472 128 465 139 q 485 108 478 117 q 504 100 493 100 q 501 122 504 110 q 491 144 497 133 q 476 163 485 156 q 456 171 467 171 l 447 171 m 489 196 q 506 178 493 192 q 533 151 519 165 q 558 126 547 138 q 571 115 569 115 q 550 174 571 146 q 497 201 529 201 q 489 196 492 201 m 517 244 q 519 241 517 243 q 522 238 521 239 q 533 231 524 236 q 552 219 542 225 q 572 208 563 214 q 583 201 581 203 q 596 191 589 199 q 611 176 603 183 q 628 163 619 168 q 643 157 636 157 q 633 192 643 176 q 606 220 622 208 q 572 238 590 232 q 535 244 553 244 l 517 244 m 785 286 l 785 329 q 775 355 782 336 q 760 394 768 374 q 746 434 753 415 q 738 460 739 453 q 733 475 735 467 q 732 490 732 483 q 746 525 732 517 q 782 533 760 533 l 806 533 q 824 517 815 525 q 832 493 832 508 q 826 470 832 481 q 821 447 821 460 q 826 394 821 419 q 832 343 832 369 q 831 309 832 322 q 821 275 829 296 q 810 360 821 319 q 800 446 800 401 q 803 470 800 458 q 806 493 806 482 q 785 518 806 518 q 769 516 781 518 q 757 507 757 514 l 757 469 q 765 447 760 463 q 777 413 771 431 q 788 378 783 394 q 796 354 793 361 q 798 330 797 346 q 800 298 799 314 q 805 270 801 282 q 817 258 808 258 q 805 218 817 240 q 779 186 793 196 l 779 196 q 782 241 779 219 q 785 286 785 263 m 547 286 q 560 280 551 282 q 576 276 568 278 q 592 272 585 274 q 600 271 599 271 q 618 263 606 268 q 645 252 631 258 q 673 240 660 246 q 690 232 686 235 l 690 238 q 677 267 690 256 q 646 283 664 278 q 609 290 628 289 q 578 292 590 292 q 563 292 572 292 q 553 290 554 292 l 547 286 m 350 424 q 328 412 339 424 q 303 400 318 400 q 260 419 278 400 q 243 465 243 438 q 263 511 243 499 q 311 524 283 524 q 373 507 346 524 q 419 464 400 490 q 448 405 438 438 q 458 342 458 372 q 456 310 458 328 q 443 286 454 293 q 435 326 442 303 q 416 372 428 350 q 388 408 404 393 q 350 424 371 424 m 532 333 q 565 338 542 336 q 607 340 588 340 q 651 333 626 340 q 696 317 676 326 l 703 317 q 691 342 703 332 q 663 356 679 351 q 629 363 646 361 q 603 365 613 365 q 584 364 596 365 q 561 359 572 363 q 540 351 550 356 q 526 339 531 346 l 532 333 m 342 456 q 374 447 358 456 q 401 426 389 439 q 424 397 414 413 q 443 369 435 382 l 449 369 q 443 386 449 375 q 419 424 432 404 q 390 459 406 443 q 356 485 375 475 q 311 496 336 496 q 281 491 293 496 q 268 464 268 486 q 274 442 268 451 q 294 432 279 432 q 317 444 308 432 q 342 456 326 456 m 606 444 q 581 443 596 444 q 551 437 565 442 q 526 423 536 432 q 515 400 515 414 q 558 406 538 400 q 603 413 579 413 q 646 407 625 413 q 690 401 667 401 l 700 401 q 659 435 681 425 q 606 444 638 444 m 283 468 q 285 479 283 475 q 294 486 288 483 l 313 486 l 322 486 q 336 485 329 486 q 343 478 343 483 l 343 475 q 320 463 332 471 q 297 454 308 454 q 283 468 283 454 m 769 486 q 774 499 769 493 q 786 504 779 504 q 784 478 786 490 q 779 454 782 467 q 771 468 772 457 q 769 486 769 479 m 579 529 q 551 527 567 529 q 521 519 535 525 q 497 501 507 513 q 488 474 488 490 q 535 485 514 474 q 582 496 557 496 q 617 494 601 496 q 653 490 633 493 l 653 496 q 644 512 653 506 q 624 522 636 518 q 600 528 613 526 q 579 529 588 529 m 383 614 q 406 548 383 578 q 465 518 428 518 q 524 540 501 518 q 547 597 547 561 q 521 661 547 635 q 458 688 494 688 q 405 667 426 688 q 383 614 383 646 m 400 607 q 415 653 400 635 q 457 671 429 671 q 497 654 483 671 q 511 613 511 638 q 499 573 511 592 q 464 554 488 554 q 422 569 443 554 q 400 607 400 583 m 424 614 q 435 587 424 599 q 461 575 446 575 q 487 587 476 575 q 497 614 497 599 q 479 605 486 614 q 457 596 472 596 q 440 605 444 596 q 424 614 435 614 m 135 760 l 139 754 l 410 754 l 404 760 l 135 760 m 126 799 l 369 799 l 351 817 l 119 817 l 126 799 m 642 847 l 740 847 l 740 869 l 642 869 l 642 847 m 119 847 l 331 847 l 321 869 l 118 869 l 119 847 m 642 900 l 740 900 l 740 926 l 635 926 l 642 900 m 121 926 l 118 900 l 317 900 l 310 926 l 121 926 m 604 983 l 624 956 l 740 956 l 740 983 l 604 983 m 131 956 l 314 956 l 333 983 l 144 983 l 131 956 m 469 1029 q 529 1027 506 1029 q 581 1010 553 1025 l 740 1010 l 740 1040 l 192 1040 l 167 1010 l 369 1010 q 415 1024 388 1018 q 469 1029 442 1029 m 667 1064 l 740 1064 l 740 1097 l 667 1097 l 667 1064 m 229 1064 l 603 1064 q 569 1086 593 1078 q 516 1100 544 1094 q 460 1108 488 1106 q 417 1110 432 1110 q 375 1106 399 1110 q 326 1097 351 1103 q 275 1083 300 1090 q 232 1067 250 1075 l 229 1064 m 389 1160 q 378 1172 386 1161 q 363 1193 371 1182 q 348 1214 354 1204 q 342 1226 342 1224 q 347 1233 342 1232 q 358 1235 350 1235 q 371 1235 368 1235 q 422 1224 400 1235 q 463 1192 443 1213 l 474 1192 q 512 1215 488 1201 q 558 1229 536 1229 q 565 1227 560 1229 q 574 1224 571 1225 l 574 1221 l 574 1218 l 532 1150 q 529 1149 532 1150 q 524 1149 526 1149 q 517 1149 521 1149 q 511 1150 513 1150 q 487 1151 504 1150 q 450 1155 469 1153 q 413 1158 431 1157 q 389 1160 396 1160 z "},"&":{"ha":1211,"x_min":21,"x_max":1206,"o":"m 247 136 q 311 81 274 106 q 391 38 349 56 q 478 10 433 19 q 564 0 524 0 q 722 38 647 0 q 858 131 797 76 l 868 131 q 912 103 888 118 q 962 74 936 88 q 1015 51 988 60 q 1068 42 1043 42 q 1121 54 1096 42 q 1165 86 1146 67 q 1194 131 1183 106 q 1206 183 1206 157 q 1197 218 1206 201 q 1176 248 1189 235 q 1149 273 1164 261 q 1121 294 1135 285 q 1072 275 1093 282 q 1021 268 1050 268 l 1019 268 q 1008 268 1017 268 q 991 269 1000 268 q 975 274 982 271 q 968 282 968 276 l 968 285 l 1032 394 q 1053 408 1038 407 q 1083 414 1068 410 q 1110 433 1099 418 q 1122 485 1122 447 q 1114 518 1122 504 q 1106 549 1106 532 q 1115 556 1106 551 q 1135 567 1124 560 q 1155 587 1146 575 q 1164 617 1164 599 q 1152 658 1164 640 q 1122 688 1140 676 q 1082 706 1104 700 q 1039 711 1060 711 q 956 689 994 711 q 901 622 917 667 l 832 426 q 817 406 828 415 q 811 410 811 406 q 808 425 810 415 q 806 438 806 435 q 811 469 806 454 q 824 497 817 483 q 838 526 832 511 q 843 557 843 540 q 819 613 843 589 q 763 638 796 638 q 708 611 725 638 q 683 553 690 585 l 682 553 l 679 553 q 669 563 676 556 q 658 574 661 571 q 645 592 656 578 q 632 611 635 607 l 632 619 q 633 628 632 626 q 643 638 635 631 q 723 695 683 667 q 789 768 763 724 q 815 830 808 799 q 822 896 822 861 q 801 1008 822 960 q 743 1088 781 1056 q 653 1138 706 1121 q 540 1154 601 1154 q 314 1076 397 1154 q 231 856 231 997 q 236 793 231 824 q 242 732 242 763 q 222 708 242 719 q 180 681 203 696 q 138 648 157 667 q 119 606 119 629 q 138 619 128 606 q 162 650 147 633 q 196 681 176 667 q 240 694 215 694 q 238 666 240 679 q 236 638 236 653 l 236 606 q 265 565 246 582 q 310 547 285 547 q 372 572 349 547 q 394 636 394 596 q 382 689 394 663 q 342 722 369 715 q 335 723 340 722 q 323 724 329 724 q 312 726 317 725 q 306 726 307 726 q 281 751 290 732 q 266 792 271 769 q 260 838 261 815 q 258 874 258 860 q 279 990 258 940 q 339 1072 300 1039 q 431 1122 378 1106 q 550 1138 485 1138 q 634 1125 593 1138 q 707 1089 675 1113 q 759 1031 739 1065 q 779 951 779 996 q 738 817 779 872 q 632 722 697 763 q 607 707 618 714 q 582 700 596 700 q 563 710 572 700 q 547 733 554 719 q 536 759 540 746 q 532 779 532 772 l 532 790 q 560 849 550 824 q 579 911 569 875 l 579 917 q 566 960 579 939 q 529 981 553 981 q 488 956 501 981 q 474 908 474 932 q 478 858 474 888 q 494 811 483 829 l 610 606 l 768 417 l 922 285 q 973 260 942 267 q 1029 253 1004 253 q 1077 260 1053 253 q 1125 267 1101 267 q 1126 256 1125 264 q 1126 238 1126 247 q 1126 221 1126 229 q 1126 210 1126 214 q 1113 170 1125 188 q 1083 140 1100 153 q 1044 122 1065 128 q 1004 115 1024 115 q 947 124 975 115 q 894 147 919 133 q 844 179 868 161 q 800 215 821 197 q 769 244 790 225 q 727 285 749 264 q 688 324 706 306 q 664 347 669 342 q 641 374 657 354 q 607 415 625 393 q 574 456 589 436 q 553 485 558 476 q 536 520 540 501 q 527 556 532 539 q 510 583 522 572 q 471 594 499 594 q 418 580 439 594 q 385 543 397 565 q 367 493 372 521 q 363 440 363 465 q 375 349 363 393 q 413 270 388 304 q 476 215 438 236 q 565 194 514 194 q 649 207 611 194 q 722 253 686 219 l 732 253 q 744 243 733 253 q 763 226 756 233 q 782 208 769 219 q 794 194 794 196 l 794 189 q 783 178 793 188 q 760 153 774 168 q 738 131 746 139 q 687 102 717 113 q 632 85 657 92 q 601 77 613 79 q 578 74 589 75 q 556 74 568 74 q 524 74 543 74 q 416 84 467 74 q 326 119 365 94 q 259 183 286 143 q 221 285 232 224 q 217 313 219 290 q 210 360 214 335 q 204 409 207 386 q 200 438 201 432 q 188 485 196 457 q 165 540 179 514 q 132 583 151 565 q 88 601 113 601 q 39 581 57 601 q 21 532 21 560 q 34 481 21 504 q 69 443 47 458 q 85 435 71 442 q 106 422 100 429 q 115 394 113 410 q 121 368 117 379 q 131 341 125 358 q 144 306 138 324 q 157 274 151 288 q 164 258 163 260 q 179 234 168 251 q 203 197 190 217 q 229 160 217 178 q 247 136 242 143 m 310 168 q 353 133 328 146 q 406 112 378 119 q 462 102 433 104 q 517 100 490 100 q 586 102 556 100 q 653 115 617 104 l 644 115 q 594 113 619 115 q 544 110 569 110 q 426 125 483 110 q 315 168 369 140 l 310 168 m 664 124 q 661 121 661 124 q 664 118 661 118 q 665 121 665 118 q 664 124 665 124 m 1011 143 l 1011 135 q 1039 142 1025 135 q 1064 162 1053 150 q 1083 188 1075 174 q 1090 215 1090 201 q 1090 224 1090 218 q 1085 232 1090 229 q 1053 183 1072 204 q 1011 143 1033 161 m 1032 221 q 1023 211 1029 218 q 1009 197 1017 204 q 994 183 1001 190 q 983 174 988 176 q 974 166 982 172 q 963 158 965 160 q 957 150 957 154 l 958 149 q 1013 171 986 153 q 1039 221 1039 189 l 1032 221 m 906 174 l 906 167 q 954 183 929 167 q 979 226 979 199 l 974 226 q 942 197 960 213 q 906 174 925 182 m 306 176 q 303 174 303 176 q 306 171 303 171 q 307 174 307 171 q 306 176 307 176 m 874 203 q 881 194 874 194 q 915 208 896 194 q 933 238 933 221 l 926 238 l 874 206 l 874 203 m 371 211 q 355 209 364 211 q 342 200 346 207 l 349 200 l 353 200 q 374 202 358 200 q 394 206 390 204 q 371 211 382 211 m 36 524 q 47 567 36 550 q 88 585 57 585 q 143 556 122 585 q 169 494 164 528 l 210 232 l 210 210 q 208 213 210 211 q 206 215 206 214 q 196 233 201 222 q 185 256 190 244 q 174 275 179 267 q 169 285 169 283 q 160 310 167 289 q 145 355 153 331 q 130 400 138 379 q 121 426 122 421 q 98 460 113 449 q 70 478 83 471 q 47 495 57 486 q 36 524 36 504 m 489 344 q 491 372 489 354 q 498 406 493 389 q 511 436 503 424 q 532 449 519 449 q 538 447 538 449 l 704 274 q 706 271 706 274 q 706 269 706 269 q 693 247 706 257 q 663 229 681 236 q 626 219 644 222 q 597 215 608 215 q 553 227 572 215 q 519 258 533 239 q 497 299 504 276 q 489 344 489 322 m 838 232 q 844 225 839 225 q 867 233 856 225 q 879 253 879 242 l 879 258 l 838 232 m 332 249 q 313 247 321 249 q 300 232 304 246 l 306 232 l 310 232 q 337 237 317 233 q 364 243 357 240 q 347 249 357 249 q 332 249 339 249 m 379 446 q 384 491 379 467 q 399 536 389 515 q 428 571 410 557 q 471 585 446 585 q 506 573 490 585 q 521 542 521 561 q 506 506 521 513 q 468 494 490 500 q 449 474 457 492 q 435 433 440 456 q 428 390 431 411 q 425 361 425 369 q 437 305 425 333 q 449 261 449 276 l 447 258 q 393 344 407 294 q 379 446 379 393 m 322 294 q 294 288 308 294 q 274 268 281 281 l 276 268 q 314 275 296 268 q 354 282 332 282 q 342 292 354 290 q 322 294 329 294 m 317 339 q 304 339 313 339 q 287 337 296 339 q 271 331 278 335 q 264 318 264 326 l 264 315 q 308 323 285 322 q 353 321 331 324 l 336 338 q 328 338 335 338 q 317 339 321 339 m 1026 558 q 1061 549 1049 558 q 1074 517 1074 540 q 1067 492 1074 501 q 1049 478 1060 483 q 1026 473 1039 474 q 1001 474 1014 472 q 988 456 997 468 q 969 428 979 443 q 951 401 960 414 q 938 385 942 389 q 927 373 933 381 q 914 359 921 365 q 901 348 907 353 q 894 343 896 343 l 889 343 l 889 353 q 894 368 889 354 q 908 401 900 382 q 924 441 915 421 q 938 474 932 461 q 969 531 949 504 q 1026 558 990 558 m 400 406 q 400 381 400 393 q 406 358 400 369 q 408 399 407 376 q 415 444 410 422 q 429 485 419 465 q 458 517 439 504 q 470 522 464 521 q 482 525 476 524 q 491 530 488 526 q 494 543 494 533 q 487 560 494 556 q 468 564 479 564 q 431 544 444 564 q 411 497 418 524 q 402 444 404 471 q 400 406 400 418 m 740 375 q 727 372 733 375 q 721 361 721 368 q 722 359 721 360 q 722 358 722 358 q 735 364 725 360 q 747 374 744 368 q 744 374 746 374 q 740 375 742 375 m 121 489 q 147 428 136 461 q 164 364 157 394 l 164 379 q 160 424 164 397 q 149 476 157 450 q 130 526 142 503 q 100 558 118 549 l 88 558 q 61 531 61 558 q 72 507 61 515 q 97 499 83 499 q 104 499 100 499 q 110 500 108 499 q 88 511 99 504 q 78 532 78 518 q 96 549 78 549 q 117 531 108 549 q 126 503 126 514 q 126 494 126 499 q 121 489 126 490 m 247 374 q 263 373 251 374 q 286 371 274 372 q 310 369 299 369 q 326 368 322 368 l 331 368 l 336 368 q 319 388 333 381 q 294 394 306 394 q 269 390 282 394 q 247 374 256 385 m 864 425 l 863 426 q 858 414 861 422 q 850 397 854 406 q 840 382 846 389 q 826 375 833 375 l 826 385 l 911 611 q 928 644 917 628 q 956 672 940 660 q 988 693 971 685 q 1024 701 1006 701 q 1078 685 1051 701 q 1106 638 1106 669 q 1097 612 1106 619 q 1077 602 1089 604 q 1051 601 1065 600 q 1026 601 1038 603 q 975 579 1001 597 q 938 538 949 561 q 924 511 935 532 q 903 466 914 490 q 881 421 892 442 q 868 394 871 400 q 858 377 865 388 q 842 367 850 367 l 842 374 q 846 382 843 375 q 852 397 849 389 q 859 413 856 406 q 863 422 863 419 q 863 423 863 422 q 864 425 864 424 m 710 411 q 689 392 689 411 l 689 385 q 706 397 696 393 q 722 410 715 401 q 716 410 719 410 q 710 411 713 411 m 1024 543 q 990 526 1007 543 q 961 487 974 510 q 940 441 949 464 q 932 406 932 418 l 932 400 q 949 435 939 414 q 972 472 958 456 q 1001 499 985 489 q 1042 500 1018 508 q 1052 508 1051 503 q 1053 521 1053 514 q 1044 540 1053 536 q 1024 543 1036 543 m 696 458 q 665 451 679 458 q 651 425 651 444 q 652 417 651 422 q 653 410 653 413 q 663 419 656 413 q 677 435 669 426 q 690 449 685 443 q 696 458 696 456 m 282 449 q 266 448 275 449 q 249 444 257 447 q 234 436 240 442 q 228 421 228 431 q 250 424 239 421 q 274 428 261 428 q 303 424 289 428 q 333 421 318 421 q 328 436 333 431 q 314 444 322 442 q 297 448 306 447 q 282 449 288 449 m 704 553 q 720 603 704 579 q 765 628 736 628 q 799 617 786 628 q 811 583 811 607 q 806 564 811 572 q 792 547 800 556 q 779 531 785 539 q 774 511 774 522 l 774 432 q 726 485 747 456 q 704 553 704 515 m 1035 679 q 992 669 1011 679 q 957 644 972 660 q 930 608 942 628 q 911 568 918 589 q 899 535 907 556 q 885 494 892 514 q 873 459 878 474 q 868 443 868 444 l 868 438 q 888 480 875 450 q 919 542 901 510 q 956 598 936 574 q 996 622 975 622 l 1063 622 q 1076 631 1074 622 q 1079 646 1079 639 q 1065 672 1079 665 q 1035 679 1050 679 m 650 500 q 622 484 629 500 q 614 451 614 468 q 624 458 618 451 q 638 471 631 464 q 653 485 644 478 q 668 494 661 492 q 660 499 664 499 q 650 500 656 500 m 753 471 q 750 468 750 471 q 753 465 750 465 q 756 468 756 465 q 753 471 756 471 m 732 543 q 733 506 732 526 q 750 474 735 486 l 750 547 q 756 558 750 554 q 769 567 763 563 q 783 576 776 571 q 789 590 789 582 q 782 606 789 600 q 765 613 775 613 q 746 605 753 613 q 735 586 739 597 q 732 563 732 575 q 732 543 732 551 m 221 489 q 274 488 250 492 q 326 483 299 483 q 331 483 328 483 q 336 485 335 483 q 281 513 317 513 q 248 508 264 513 q 221 489 232 504 m 115 497 q 113 494 113 497 q 115 492 113 492 q 118 494 118 492 q 115 497 118 497 m 607 553 q 578 538 588 553 q 569 503 569 522 q 579 505 576 503 q 584 510 582 507 q 589 517 586 513 q 600 526 592 522 q 616 533 603 529 q 632 538 629 536 q 638 543 638 538 q 624 551 633 550 q 607 553 614 553 m 1006 519 q 1012 530 1006 526 q 1024 533 1018 533 q 1040 526 1035 533 q 1044 510 1044 519 q 1038 510 1044 510 q 1024 511 1032 510 q 1011 514 1017 513 q 1006 519 1006 515 m 469 554 q 483 553 475 554 q 490 544 490 553 q 484 534 490 538 q 469 528 478 531 q 451 525 460 526 q 438 522 442 524 l 436 526 q 447 547 436 540 q 469 554 458 554 m 768 601 q 779 586 779 601 l 779 579 q 764 567 776 578 q 740 557 751 557 q 748 585 740 568 q 768 601 756 601 m 253 647 q 269 689 253 671 q 310 707 286 707 q 368 674 346 707 q 369 661 369 671 q 369 650 369 653 q 358 607 369 631 q 318 583 346 583 q 272 601 292 583 q 253 647 253 619 m 279 661 q 283 629 279 647 q 307 611 288 611 q 336 621 324 611 q 349 649 349 631 q 332 640 338 649 q 315 632 326 632 q 303 637 307 632 q 296 647 299 642 q 290 656 293 651 q 279 661 286 661 m 1038 668 q 1062 660 1053 668 q 1071 636 1071 651 q 1047 642 1057 636 q 1022 649 1036 649 q 992 642 1007 649 q 963 626 976 635 l 963 632 q 973 641 963 633 q 990 653 983 649 q 1038 668 1013 668 m 561 754 l 575 743 l 631 743 l 649 754 l 561 754 m 315 754 l 328 743 l 478 743 l 472 754 l 315 754 m 589 817 l 578 799 l 692 799 l 703 817 l 589 817 m 297 817 l 304 799 l 463 799 l 456 817 l 297 817 m 532 900 q 534 922 532 910 q 550 933 536 933 q 565 927 560 933 q 569 913 569 921 q 568 899 569 908 q 563 880 567 889 q 556 864 560 871 q 546 857 551 857 q 536 863 539 857 q 533 875 533 868 q 532 889 532 882 q 532 900 532 897 m 593 847 l 721 847 l 735 869 l 604 869 l 593 847 m 454 847 l 447 869 l 293 869 l 294 847 l 454 847 m 613 926 l 613 900 l 749 900 l 753 926 l 613 926 m 294 926 l 294 900 l 446 900 l 444 926 l 294 926 m 299 956 l 450 956 l 471 983 l 313 983 l 299 956 m 588 983 l 606 956 l 756 956 l 746 983 l 588 983 m 329 1010 l 731 1010 l 710 1040 l 349 1040 l 329 1010 m 372 1064 l 689 1064 q 609 1103 646 1096 q 531 1111 572 1111 q 494 1107 515 1111 q 449 1097 472 1103 q 406 1082 426 1090 q 372 1064 385 1074 z "},"'":{"ha":357,"x_min":47,"x_max":336,"o":"m 94 746 q 108 723 94 733 q 140 704 121 713 q 178 691 158 696 q 210 686 197 686 q 293 710 267 686 q 328 774 319 735 q 334 864 336 814 q 332 964 332 914 q 331 1003 332 981 q 324 1046 329 1025 q 308 1081 318 1067 q 279 1094 297 1094 l 68 1094 l 47 1082 l 47 908 l 94 749 l 94 746 m 72 918 l 72 1068 l 285 1068 l 285 917 l 235 749 l 122 749 l 72 918 m 207 857 l 140 857 l 146 846 l 201 846 l 207 857 m 119 893 l 126 882 l 222 882 l 228 893 l 119 893 m 101 925 l 246 925 l 246 942 l 101 942 l 101 925 m 101 964 l 246 964 l 246 986 l 101 986 l 101 964 m 101 1008 l 246 1008 l 246 1040 l 101 1040 l 101 1008 z "},",":{"ha":357,"x_min":21,"x_max":332,"o":"m 21 6 q 29 -21 21 -7 q 49 -47 38 -35 q 76 -67 61 -58 q 103 -75 90 -75 q 203 -51 160 -75 q 274 13 246 -26 q 317 103 303 53 q 332 203 332 153 q 329 244 332 222 q 317 287 326 267 q 293 320 308 307 q 253 333 278 333 l 182 333 l 108 333 q 78 331 97 333 q 57 328 58 329 l 51 324 q 51 317 51 324 q 49 303 50 311 q 48 285 49 294 q 47 271 47 276 q 47 263 47 271 q 47 246 47 256 q 46 225 46 236 q 46 210 46 215 q 46 197 46 206 q 47 178 46 189 q 47 160 47 168 q 47 147 47 151 q 53 128 47 135 q 68 115 60 121 q 83 103 76 110 q 89 88 89 97 q 88 78 89 82 q 83 69 88 74 l 21 8 l 21 6 m 57 -8 l 57 -3 q 109 51 89 22 q 129 119 129 79 l 129 142 q 124 145 128 143 q 119 147 121 147 q 98 151 114 149 q 78 153 82 153 l 72 157 l 72 307 l 249 307 q 265 297 261 307 q 271 274 269 288 q 271 249 272 261 q 269 231 269 236 q 261 158 269 193 q 236 92 253 122 q 193 36 219 61 q 129 -3 167 11 q 119 -7 126 -4 q 102 -13 111 -10 q 85 -19 93 -17 q 72 -24 76 -22 l 69 -24 q 60 -19 63 -24 q 57 -8 57 -14 m 182 96 q 167 94 176 96 q 158 85 158 93 l 197 85 q 192 94 197 93 q 182 96 188 96 m 171 132 l 171 121 l 213 121 q 217 125 215 121 q 218 132 218 129 l 171 132 m 99 178 q 106 172 101 175 q 114 168 111 168 l 229 168 q 222 178 229 175 q 173 182 193 181 q 128 183 153 183 q 113 184 121 183 q 99 178 104 185 m 104 210 q 144 204 126 204 q 186 204 163 204 l 228 204 q 233 214 233 206 l 233 219 q 185 224 203 224 q 142 225 168 225 l 114 225 q 103 214 103 225 q 103 211 103 214 q 104 210 103 210 m 103 267 q 109 250 103 254 q 129 246 115 246 l 233 246 q 236 252 235 246 q 238 261 238 258 q 236 269 238 264 q 233 276 235 275 q 212 279 228 278 q 192 282 196 281 l 189 282 l 186 282 q 170 281 182 282 q 145 279 158 281 q 120 277 132 278 q 104 276 108 276 q 103 271 103 275 q 103 267 103 268 z "},".":{"ha":357,"x_min":38,"x_max":328,"o":"m 38 196 q 49 135 38 167 q 81 76 61 103 q 129 33 101 50 q 189 17 157 17 q 240 26 215 17 q 285 51 265 35 q 316 91 304 68 q 328 142 328 114 q 315 206 328 174 q 278 264 301 238 q 226 306 256 290 q 164 322 197 322 q 74 286 110 322 q 38 196 38 250 m 63 196 q 91 271 63 240 q 167 301 119 301 q 242 269 213 301 q 271 193 271 238 q 238 122 271 149 q 164 94 206 94 q 91 123 119 94 q 63 196 63 151 m 93 175 q 101 153 93 164 q 120 136 108 143 q 144 125 132 129 q 167 121 157 121 q 188 124 176 121 q 210 132 200 126 q 228 146 221 138 q 235 167 235 154 q 234 169 235 168 q 233 172 233 171 q 206 151 218 156 q 171 146 193 146 q 129 155 147 146 q 94 182 111 164 q 94 178 94 181 q 93 175 93 176 m 122 214 q 140 185 122 194 q 172 176 157 176 q 201 183 186 176 q 215 208 215 190 q 194 206 204 208 q 172 203 183 203 q 146 208 157 203 q 122 214 135 214 z "},":":{"ha":357,"x_min":38,"x_max":332,"o":"m 42 600 q 53 539 42 571 q 85 481 65 507 q 133 438 106 454 q 193 421 161 421 q 244 430 219 421 q 289 456 269 439 q 320 495 308 472 q 332 546 332 518 q 319 610 332 578 q 283 668 306 642 q 231 710 260 694 q 168 726 201 726 q 78 690 114 726 q 42 600 42 654 m 67 600 q 95 675 67 644 q 171 706 124 706 q 246 674 217 706 q 275 597 275 642 q 242 526 275 553 q 168 499 210 499 q 95 527 124 499 q 67 600 67 556 m 97 579 q 105 558 97 568 q 124 540 113 547 q 149 529 136 533 q 171 525 161 525 q 192 528 181 525 q 215 536 204 531 q 232 550 225 542 q 239 571 239 558 q 238 574 239 572 q 238 576 238 575 q 210 555 222 560 q 175 550 197 550 q 133 559 151 550 q 99 586 115 568 q 98 583 99 585 q 97 579 97 581 m 126 618 q 144 590 126 599 q 176 581 161 581 q 205 588 190 581 q 219 613 219 594 q 198 610 208 613 q 176 607 188 607 q 150 613 161 607 q 126 618 139 618 m 38 196 q 49 135 38 167 q 81 76 61 103 q 129 33 101 50 q 189 17 157 17 q 240 26 215 17 q 285 51 265 35 q 316 91 304 68 q 328 142 328 114 q 315 206 328 174 q 278 264 301 238 q 226 306 256 290 q 164 322 197 322 q 74 286 110 322 q 38 196 38 250 m 63 196 q 91 271 63 240 q 167 301 119 301 q 242 269 213 301 q 271 193 271 238 q 238 122 271 149 q 164 94 206 94 q 91 123 119 94 q 63 196 63 151 m 93 175 q 101 153 93 164 q 120 136 108 143 q 144 125 132 129 q 167 121 157 121 q 188 124 176 121 q 210 132 200 126 q 228 146 221 138 q 235 167 235 154 q 234 169 235 168 q 233 172 233 171 q 206 151 218 156 q 171 146 193 146 q 129 155 147 146 q 94 182 111 164 q 94 178 94 181 q 93 175 93 176 m 122 214 q 140 185 122 194 q 172 176 157 176 q 201 183 186 176 q 215 208 215 190 q 194 206 204 208 q 172 203 183 203 q 146 208 157 203 q 122 214 135 214 z "},";":{"ha":357,"x_min":21,"x_max":332,"o":"m 21 6 q 29 -21 21 -7 q 49 -47 38 -35 q 76 -67 61 -58 q 103 -75 90 -75 q 203 -51 160 -75 q 274 13 246 -26 q 317 103 303 53 q 332 203 332 153 q 329 244 332 222 q 317 287 326 267 q 293 320 308 307 q 253 333 278 333 l 182 333 l 108 333 q 78 331 97 333 q 57 328 58 329 l 51 324 q 51 317 51 324 q 49 303 50 311 q 48 285 49 294 q 47 271 47 276 q 47 263 47 271 q 47 246 47 256 q 46 225 46 236 q 46 210 46 215 q 46 197 46 206 q 47 178 46 189 q 47 160 47 168 q 47 147 47 151 q 53 128 47 135 q 68 115 60 121 q 83 103 76 110 q 89 88 89 97 q 88 78 89 82 q 83 69 88 74 l 21 8 l 21 6 m 57 -8 l 57 -3 q 109 51 89 22 q 129 119 129 79 l 129 142 q 124 145 128 143 q 119 147 121 147 q 98 151 114 149 q 78 153 82 153 l 72 157 l 72 307 l 249 307 q 265 297 261 307 q 271 274 269 288 q 271 249 272 261 q 269 231 269 236 q 261 158 269 193 q 236 92 253 122 q 193 36 219 61 q 129 -3 167 11 q 119 -7 126 -4 q 102 -13 111 -10 q 85 -19 93 -17 q 72 -24 76 -22 l 69 -24 q 60 -19 63 -24 q 57 -8 57 -14 m 182 96 q 167 94 176 96 q 158 85 158 93 l 197 85 q 192 94 197 93 q 182 96 188 96 m 171 132 l 171 121 l 213 121 q 217 125 215 121 q 218 132 218 129 l 171 132 m 99 178 q 106 172 101 175 q 114 168 111 168 l 229 168 q 227 176 229 171 q 222 183 225 182 l 111 183 q 99 178 103 183 m 106 204 l 228 204 q 233 214 233 206 q 234 219 233 215 q 235 224 235 224 q 176 224 199 224 q 139 225 153 225 q 121 225 126 225 q 114 225 115 225 q 103 214 103 225 q 103 211 103 214 q 104 210 103 210 l 106 204 m 103 267 q 109 250 103 254 q 129 246 115 246 l 233 246 q 236 252 235 246 q 238 261 238 258 q 236 269 238 264 q 233 276 235 275 q 212 279 228 278 q 192 282 196 281 l 189 282 l 186 282 q 170 281 182 282 q 145 279 158 281 q 120 277 132 278 q 104 276 108 276 q 103 271 103 275 q 103 267 103 268 m 42 600 q 53 539 42 571 q 85 481 65 507 q 133 438 106 454 q 193 421 161 421 q 244 430 219 421 q 289 456 269 439 q 320 495 308 472 q 332 546 332 518 q 319 610 332 578 q 283 668 306 642 q 231 710 260 694 q 168 726 201 726 q 78 690 114 726 q 42 600 42 654 m 67 600 q 95 675 67 644 q 171 706 124 706 q 246 674 217 706 q 275 597 275 642 q 242 526 275 553 q 168 499 210 499 q 95 527 124 499 q 67 600 67 556 m 97 579 q 105 558 97 568 q 124 540 113 547 q 149 529 136 533 q 171 525 161 525 q 192 528 181 525 q 215 536 204 531 q 232 550 225 542 q 239 571 239 558 q 238 574 239 572 q 238 576 238 575 q 210 555 222 560 q 175 550 197 550 q 133 559 151 550 q 99 586 115 568 q 98 583 99 585 q 97 579 97 581 m 126 618 q 144 590 126 599 q 176 581 161 581 q 205 588 190 581 q 219 613 219 594 q 198 610 208 613 q 176 607 188 607 q 150 613 161 607 q 126 618 139 618 z "},"?":{"ha":676,"x_min":21,"x_max":667,"o":"m 339 415 q 359 408 347 415 q 386 390 371 400 q 420 373 401 381 q 461 365 439 365 q 501 370 479 365 q 541 385 522 375 q 572 410 560 394 q 585 450 585 426 q 583 467 585 456 q 576 491 581 479 q 567 512 572 503 q 557 521 563 521 l 514 521 q 503 530 508 521 q 499 543 499 539 q 504 561 499 551 q 517 580 510 571 q 534 594 525 589 q 551 600 543 600 l 624 600 q 641 608 633 600 q 654 626 649 615 q 663 649 660 638 q 667 667 667 660 q 656 701 667 688 q 633 724 646 714 q 609 740 619 733 q 599 750 599 746 l 614 794 q 621 823 618 811 q 624 845 624 835 q 625 867 625 856 q 625 896 625 879 q 606 994 625 946 q 554 1081 588 1043 q 476 1143 521 1119 q 378 1167 431 1167 q 294 1157 331 1167 q 217 1124 257 1147 l 211 1124 q 201 1131 208 1125 q 190 1139 193 1136 l 21 1139 l 21 869 l 89 811 l 106 811 q 173 813 136 811 q 233 817 210 814 q 258 828 249 818 q 272 853 267 839 q 281 884 276 868 q 292 911 285 900 q 304 929 299 922 q 324 938 310 936 q 352 917 343 938 q 361 885 361 897 q 358 856 361 878 q 348 812 354 835 q 333 771 342 789 q 315 753 325 753 q 294 756 304 753 q 272 758 285 758 q 220 737 240 758 q 200 683 200 715 q 208 647 200 663 q 217 611 217 631 q 210 574 217 594 q 190 542 204 553 l 117 472 l 117 463 q 122 454 117 463 q 136 435 128 446 q 153 412 144 424 q 169 393 163 400 q 196 374 181 378 q 228 371 211 371 q 263 378 247 371 q 291 393 278 385 q 316 408 304 401 q 339 415 328 415 m 344 488 l 339 488 q 277 469 303 476 q 214 461 251 461 q 183 461 199 461 q 153 467 168 461 l 153 469 q 158 478 153 474 q 212 515 183 494 q 265 561 240 536 q 308 615 290 586 q 328 678 325 644 q 328 688 328 679 q 328 704 328 696 q 328 719 328 713 q 328 731 328 728 q 332 740 328 732 q 341 755 336 747 q 350 769 346 763 q 356 778 354 776 q 372 829 368 806 q 376 882 376 853 q 372 918 376 900 q 359 950 368 936 q 335 973 350 964 q 300 982 321 982 q 237 950 261 982 q 201 885 213 918 l 58 885 l 53 890 q 49 899 51 893 q 47 906 47 904 l 47 1097 l 53 1113 q 69 1114 54 1114 q 94 1114 85 1114 q 142 1115 115 1114 q 190 1108 168 1115 q 198 1095 199 1106 q 204 1085 197 1085 q 205 1085 204 1085 q 207 1086 206 1086 q 286 1127 243 1110 q 374 1144 329 1144 q 452 1127 419 1144 q 506 1081 485 1110 q 537 1013 526 1051 q 547 932 547 974 q 547 894 547 915 q 545 854 547 875 q 540 815 543 833 q 531 783 536 796 l 456 640 q 446 610 447 624 q 444 582 444 597 q 451 544 444 558 q 470 519 458 529 q 498 501 482 510 q 531 482 514 493 q 497 449 524 458 q 447 439 469 439 q 393 454 419 439 q 344 488 367 469 m 249 49 q 301 11 269 22 q 364 0 332 0 q 416 12 393 0 q 453 42 439 24 q 476 86 468 61 q 483 138 483 111 q 473 201 483 171 q 443 256 463 232 q 396 294 424 281 q 333 308 368 308 q 282 298 306 308 q 240 270 258 288 q 210 228 221 253 q 200 176 200 204 q 214 111 200 138 q 249 49 228 85 m 228 175 q 261 253 228 224 q 340 282 294 282 q 413 253 383 282 q 442 181 442 225 q 408 103 442 133 q 331 74 375 74 q 257 102 286 74 q 228 175 228 131 m 81 1010 l 507 1010 l 492 1040 l 81 1040 l 81 1010 m 376 783 q 397 736 376 758 q 443 714 417 714 q 484 731 464 714 q 504 771 504 749 q 485 821 504 800 q 435 842 465 842 q 394 824 413 842 q 376 783 376 806 m 586 715 q 626 703 610 715 q 642 665 642 692 q 635 647 642 654 q 617 640 628 640 q 593 649 604 640 q 567 657 582 657 q 550 654 564 657 q 531 646 536 651 l 472 588 l 467 588 q 477 633 467 610 q 504 674 488 656 q 542 703 521 692 q 586 715 564 715 m 228 678 q 238 719 228 696 q 269 742 249 742 q 297 731 286 742 q 307 704 307 719 q 302 677 307 696 q 290 640 297 658 q 272 607 282 621 q 251 593 261 593 l 249 593 q 239 637 250 619 q 228 678 228 654 m 232 1064 l 479 1064 l 451 1097 q 368 1115 414 1115 q 275 1097 321 1115 l 232 1064 m 397 781 q 411 813 397 804 q 444 822 425 822 q 483 785 483 822 q 438 742 483 742 q 409 752 421 742 q 397 781 397 763 m 254 160 q 278 116 254 132 q 326 100 303 100 q 388 119 361 100 q 414 175 414 139 q 415 186 414 178 q 408 196 415 194 q 378 150 397 172 q 328 128 358 128 q 288 138 306 128 q 254 165 269 149 l 254 160 m 81 956 l 199 956 l 224 983 l 81 983 l 81 956 m 397 956 l 519 956 l 514 983 l 379 983 l 397 956 m 414 900 l 519 900 l 519 926 l 410 926 l 414 900 m 81 1064 l 168 1064 l 168 1097 l 81 1097 l 81 1064 m 81 900 l 178 900 l 189 926 l 81 926 l 81 900 m 358 511 q 369 490 358 499 q 395 474 381 481 q 426 465 410 468 q 450 461 442 461 q 461 461 453 461 q 472 463 469 461 q 478 469 478 464 l 478 472 q 451 477 471 474 q 425 482 431 481 q 391 499 406 486 q 358 511 376 511 m 356 678 q 395 672 372 676 q 436 667 418 667 q 421 692 436 685 q 390 700 406 700 q 369 698 382 700 q 356 683 356 696 l 356 678 m 586 700 q 549 688 567 700 q 519 661 531 676 l 524 661 q 548 669 536 661 q 575 678 560 678 q 597 672 589 678 q 617 665 606 665 q 586 700 617 700 m 292 175 q 309 159 301 164 q 331 154 317 154 q 369 192 369 154 q 347 188 367 192 q 310 179 326 183 q 292 175 294 175 m 325 521 l 313 521 q 302 517 313 521 q 278 510 292 514 q 251 501 265 506 q 228 493 236 496 q 218 489 222 490 q 214 482 214 488 q 240 483 221 482 q 277 489 258 485 q 310 501 296 493 q 325 521 325 508 m 275 692 q 269 665 275 676 q 264 640 264 654 l 265 636 q 283 665 278 644 q 288 697 288 685 q 267 715 288 715 q 249 703 251 715 q 246 678 246 690 l 254 678 l 265 699 q 265 700 265 700 q 267 700 267 700 q 275 692 275 700 m 343 638 q 348 632 343 633 q 359 630 353 631 q 371 630 365 629 q 376 631 376 631 q 395 628 381 631 q 414 625 410 626 l 414 631 q 405 640 411 633 q 397 646 399 646 l 350 646 q 343 638 343 646 m 413 776 q 422 762 413 767 q 440 757 432 757 q 459 762 450 757 q 468 778 468 767 q 467 783 468 783 q 438 776 456 776 q 413 776 421 776 m 339 610 l 339 599 q 356 594 339 594 q 379 593 374 593 l 392 593 q 384 605 390 601 q 369 610 378 608 q 352 610 361 611 q 339 610 343 610 m 333 571 q 335 565 333 568 q 339 561 336 561 l 376 561 q 347 579 367 579 q 338 578 342 579 q 333 571 333 578 m 413 860 l 518 860 l 518 878 l 413 878 l 413 860 z "},"A":{"ha":1408,"x_min":21,"x_max":1388,"o":"m 1063 106 q 1084 82 1068 99 q 1122 47 1100 65 q 1172 14 1144 28 q 1232 0 1200 0 q 1292 11 1264 0 q 1342 42 1321 22 q 1375 90 1363 63 q 1388 150 1388 118 q 1378 203 1388 175 q 1351 256 1368 232 q 1313 297 1335 281 q 1267 313 1292 313 q 1250 319 1257 313 q 1238 334 1243 325 q 1231 353 1233 343 q 1229 371 1229 364 q 1247 382 1229 382 q 1272 390 1261 382 q 1291 408 1283 397 q 1303 433 1299 419 q 1307 458 1307 447 q 1295 511 1307 490 q 1265 544 1283 532 q 1225 560 1247 556 q 1183 565 1203 565 l 1026 1021 l 925 1132 l 911 1150 l 547 1150 l 293 579 q 279 586 288 583 q 256 589 271 589 q 206 573 229 589 q 182 517 182 557 q 187 489 182 500 q 199 468 192 478 q 210 449 206 458 q 215 425 215 439 q 206 386 215 407 q 183 348 196 365 q 156 319 169 331 q 136 308 143 308 q 126 311 129 308 q 118 318 124 314 q 106 326 113 322 q 86 331 99 331 q 35 303 49 331 q 21 240 21 275 q 34 162 21 204 q 71 83 47 119 q 128 24 94 47 q 201 0 161 0 q 243 8 219 0 q 288 31 267 17 q 325 63 310 44 q 343 104 340 82 q 354 71 343 89 q 384 37 365 53 q 430 10 403 21 q 489 0 457 0 q 547 15 522 0 q 590 53 572 29 q 617 105 608 76 q 626 163 626 133 q 597 253 626 213 q 524 304 567 293 q 529 381 524 356 q 542 414 535 406 q 570 419 556 414 q 595 431 585 424 q 613 444 606 438 q 619 457 619 451 l 767 457 q 774 447 767 453 q 790 437 781 442 q 809 429 799 432 q 828 426 819 426 q 841 400 835 415 q 847 357 847 385 q 841 319 847 340 q 814 297 835 297 q 798 301 807 297 q 778 304 789 304 q 744 285 757 303 q 732 246 732 267 q 744 210 732 224 q 738 169 738 192 q 749 112 738 142 q 782 57 760 82 q 838 16 804 32 q 915 0 871 0 q 1006 31 967 0 q 1063 107 1044 61 l 1063 106 m 1099 513 q 1077 463 1083 486 q 1071 407 1071 440 q 1085 323 1071 363 q 1122 254 1099 283 q 1174 208 1144 225 q 1235 190 1204 190 q 1274 195 1263 190 q 1293 206 1286 200 q 1303 215 1300 211 q 1317 219 1307 219 q 1326 203 1325 219 q 1328 182 1328 188 q 1315 133 1328 154 q 1283 97 1303 111 q 1238 74 1264 82 q 1188 67 1213 67 q 1102 98 1139 67 q 1036 171 1065 129 q 1013 132 1028 151 q 981 97 999 113 q 941 72 963 82 q 897 63 919 63 q 851 70 874 63 q 810 93 828 78 q 781 131 792 108 q 769 183 769 154 q 785 180 772 181 q 810 179 797 179 q 870 196 846 179 q 910 238 894 213 q 932 295 925 264 q 939 356 939 326 q 933 423 939 386 q 912 492 926 460 q 872 545 897 524 q 810 567 847 567 q 781 558 799 567 q 753 529 763 550 l 611 529 q 531 575 581 575 q 538 603 535 589 q 542 628 542 617 q 517 690 542 664 q 454 717 492 717 q 397 693 418 717 q 376 635 376 669 q 386 595 376 611 q 408 569 396 579 q 434 553 421 558 q 456 549 447 549 q 474 551 463 549 q 463 540 469 549 q 447 521 456 532 q 432 498 439 510 q 422 478 425 486 q 408 497 415 488 q 388 506 400 506 q 361 499 376 506 q 339 476 346 492 l 339 483 q 337 504 339 492 q 332 528 335 517 q 324 550 329 540 q 315 564 319 560 l 560 1125 l 908 1125 l 1099 513 m 57 199 q 58 207 57 203 q 65 211 58 211 q 88 208 76 211 q 111 206 99 206 q 176 220 147 206 q 228 258 204 235 q 272 308 251 281 q 311 361 292 336 q 329 376 319 372 q 351 379 339 379 q 375 376 361 379 q 389 361 389 372 q 397 297 389 328 q 420 243 404 267 q 461 205 436 219 q 522 190 486 190 q 553 193 546 190 q 565 196 561 196 q 570 190 569 196 q 571 181 571 183 q 560 138 571 156 q 531 110 549 121 q 491 93 513 99 q 449 88 469 88 q 373 114 403 88 q 319 188 343 140 q 287 153 306 171 q 247 121 268 136 q 203 96 226 106 q 156 86 179 86 q 115 96 133 86 q 84 122 97 106 q 64 158 71 138 q 57 199 57 178 m 561 663 l 790 663 l 692 926 l 681 926 l 561 663 m 1096 406 q 1104 458 1096 432 q 1127 502 1113 483 q 1163 533 1142 521 q 1208 544 1183 544 q 1245 531 1231 544 q 1260 497 1260 518 q 1242 453 1260 469 q 1199 436 1224 436 q 1176 444 1185 436 q 1166 432 1171 440 q 1158 413 1161 424 q 1153 393 1156 403 q 1151 378 1151 383 q 1170 304 1151 338 q 1229 271 1189 271 q 1247 279 1236 271 q 1258 287 1253 283 q 1269 290 1263 290 q 1292 282 1281 290 q 1304 260 1304 274 q 1281 221 1304 232 q 1238 210 1258 210 q 1176 230 1203 210 q 1132 280 1150 250 q 1105 344 1114 310 q 1096 406 1096 378 m 49 274 q 61 301 49 292 q 89 310 74 310 q 105 306 99 310 q 118 296 111 301 q 142 286 131 286 q 169 299 153 286 q 202 333 186 313 q 229 380 218 354 q 240 431 240 406 q 224 467 240 453 q 208 484 215 474 q 201 515 201 494 q 214 552 201 538 q 249 567 226 567 q 283 555 269 567 q 304 526 297 543 q 314 490 311 510 q 317 454 317 471 q 299 391 317 429 q 253 317 282 353 q 189 255 225 281 q 115 229 153 229 q 94 231 106 229 q 72 239 82 233 q 56 253 63 244 q 49 274 49 261 m 763 247 q 767 271 763 265 q 783 276 771 276 q 800 274 793 276 q 815 272 807 272 q 831 276 821 272 q 849 291 840 281 q 865 318 858 301 q 871 360 871 335 q 867 396 871 378 q 857 428 864 414 q 839 452 850 443 q 811 461 828 461 q 784 473 796 461 q 772 499 772 485 q 790 531 772 518 q 825 544 807 544 q 870 521 851 544 q 901 465 889 497 q 918 399 913 432 q 924 349 924 367 q 917 301 924 326 q 895 253 910 275 q 860 216 881 231 q 813 201 839 201 q 778 215 793 201 q 763 247 763 228 m 861 639 q 887 567 861 597 q 957 538 913 538 q 1006 558 986 538 q 1026 607 1026 579 q 1019 643 1026 625 q 1001 676 1013 661 q 972 701 989 692 q 936 711 956 711 q 883 691 906 711 q 861 639 861 671 m 421 367 q 427 414 421 383 q 447 474 433 444 q 483 526 461 504 q 538 547 506 547 q 568 535 554 547 q 582 504 582 524 q 570 478 582 490 q 544 465 558 465 q 534 468 543 465 q 522 471 525 471 q 496 454 507 471 q 478 415 485 438 q 469 371 472 393 q 467 339 467 349 q 477 299 467 307 q 501 288 488 290 q 527 283 515 285 q 540 260 539 282 q 529 237 540 244 q 504 229 518 229 q 461 243 478 229 q 435 278 444 257 q 424 323 426 299 q 421 367 421 347 m 1214 260 q 1176 272 1192 260 q 1151 302 1161 283 q 1137 342 1142 321 q 1132 383 1132 364 q 1147 435 1132 410 q 1176 460 1161 460 q 1188 457 1183 460 q 1204 454 1193 454 q 1233 467 1221 454 q 1244 496 1244 481 q 1233 522 1244 513 q 1206 532 1221 532 q 1172 520 1189 532 q 1141 490 1154 508 q 1119 448 1128 471 q 1111 401 1111 425 q 1122 340 1111 372 q 1150 283 1132 308 q 1192 240 1168 257 q 1242 222 1215 222 q 1272 230 1257 222 q 1288 256 1288 238 q 1283 273 1288 265 q 1272 281 1279 281 q 1262 277 1265 281 q 1253 271 1258 274 q 1239 263 1247 267 q 1214 260 1231 260 m 67 281 q 74 268 67 274 q 90 258 81 263 q 108 252 99 254 q 124 250 118 250 q 185 272 154 250 q 243 328 217 294 q 286 399 269 361 q 303 465 303 436 q 287 529 303 510 q 246 549 271 549 q 218 519 218 549 q 223 494 218 504 q 235 476 228 485 q 248 456 242 467 q 254 424 254 444 q 244 374 254 401 q 218 324 235 347 q 178 284 201 300 q 129 268 156 268 q 106 278 118 268 q 93 286 100 282 q 75 290 86 290 q 67 281 67 290 m 550 1040 l 538 1010 l 917 1010 l 907 1040 l 550 1040 m 901 1064 l 890 1097 l 576 1097 l 561 1064 l 901 1064 m 404 642 q 418 680 404 664 q 454 696 432 696 q 494 680 476 696 q 513 642 513 664 q 499 605 513 621 q 460 589 486 589 q 420 603 436 589 q 404 642 404 617 m 876 642 q 890 679 876 665 q 925 693 904 693 q 967 681 949 693 q 985 643 985 668 q 967 605 985 621 q 928 589 950 589 q 892 606 907 589 q 876 642 876 622 m 783 247 q 794 234 783 236 q 814 232 806 232 q 855 243 838 232 q 883 273 872 254 q 900 314 894 292 q 906 360 906 336 q 898 406 906 378 q 878 460 890 433 q 849 504 865 486 q 813 522 832 522 q 799 516 806 522 q 793 501 793 510 q 810 483 793 483 q 843 470 828 483 q 869 438 858 457 q 887 396 881 418 q 893 356 893 374 q 890 322 893 340 q 878 287 886 303 q 856 260 869 271 q 825 250 843 250 q 817 251 821 250 q 810 256 814 253 q 793 258 801 258 q 783 247 783 258 m 708 956 l 933 956 l 925 983 l 699 983 l 708 956 m 496 247 q 512 251 504 247 q 519 264 519 256 q 515 269 519 269 q 506 268 511 269 q 496 267 500 267 q 464 289 474 267 q 454 343 454 311 q 460 396 454 368 q 475 447 465 424 q 498 484 485 469 q 526 499 511 499 q 546 499 538 499 q 554 507 554 500 q 544 521 554 517 q 526 525 535 525 q 492 508 507 525 q 465 465 476 490 q 448 407 454 439 q 442 346 442 375 q 454 276 442 306 q 496 247 467 247 m 710 813 l 750 699 l 647 699 l 710 813 m 729 900 l 949 900 l 942 926 l 719 926 l 729 900 m 743 869 l 750 847 l 965 847 l 958 869 l 743 869 m 525 983 l 514 956 l 667 956 l 679 983 l 525 983 m 489 900 l 642 900 l 654 926 l 500 926 l 489 900 m 818 588 l 813 603 l 554 603 l 551 588 l 818 588 m 763 817 l 769 799 l 979 799 l 974 817 l 763 817 m 556 626 l 804 626 l 799 640 l 554 640 l 556 626 m 618 847 l 628 869 l 475 869 l 465 847 l 618 847 m 939 454 q 999 463 969 463 q 1050 454 1022 463 q 1033 487 1050 478 q 1000 496 1015 496 q 969 489 988 496 q 939 454 951 482 m 782 768 l 788 754 l 993 754 l 989 768 l 782 768 m 444 799 l 596 799 l 604 817 l 451 817 l 444 799 m 424 656 q 420 649 421 656 q 419 639 419 643 q 429 615 419 625 q 454 604 439 604 q 482 617 471 604 q 493 647 493 631 q 492 657 493 651 q 485 663 492 663 q 472 650 478 663 q 453 638 467 638 q 438 647 442 638 q 424 656 435 656 m 594 569 l 610 553 l 749 553 l 765 569 l 594 569 m 240 514 q 254 532 240 532 q 276 513 269 532 q 282 472 282 494 q 280 445 282 457 q 275 426 278 433 q 269 450 275 439 q 258 472 264 461 q 246 492 251 482 q 240 514 240 503 m 90 194 q 85 172 85 185 q 106 128 85 147 q 149 110 128 110 q 119 142 136 117 q 90 194 101 167 m 806 167 q 803 153 803 158 q 823 115 803 131 q 871 99 843 99 q 892 101 878 99 q 841 126 860 108 q 806 167 822 144 m 431 768 l 425 754 l 575 754 l 582 768 l 431 768 m 1139 454 q 1150 476 1142 465 q 1169 496 1158 488 q 1189 509 1179 504 q 1204 514 1199 514 q 1224 494 1224 514 q 1204 475 1224 475 q 1174 472 1189 475 q 1139 454 1158 469 m 404 126 q 422 121 411 121 q 444 126 432 121 q 465 140 456 132 q 480 159 474 149 q 486 179 486 169 q 451 153 471 165 q 404 126 432 140 m 1003 406 q 1046 400 1025 406 q 1041 417 1046 410 q 1029 427 1036 424 q 1015 432 1022 431 q 1004 433 1008 433 q 973 425 989 433 q 957 400 957 417 q 980 404 968 403 q 1003 406 992 406 m 1164 104 q 1169 103 1167 104 q 1174 103 1171 103 q 1215 122 1197 103 q 1232 158 1232 140 q 1229 168 1232 163 q 1197 132 1214 149 q 1164 104 1179 115 m 467 111 q 476 110 469 110 q 519 128 499 110 q 539 164 539 146 q 536 176 539 172 q 508 144 525 160 q 467 111 490 128 m 858 176 q 853 164 853 171 q 870 135 853 149 q 907 121 888 121 q 931 129 919 121 q 890 144 907 132 q 858 176 874 157 m 135 190 q 126 172 126 182 q 147 140 126 154 q 190 125 168 125 q 200 126 197 125 q 160 151 179 133 q 135 190 142 169 m 899 643 q 908 615 899 624 q 926 606 917 606 q 953 617 943 606 q 964 640 964 629 q 963 649 964 643 q 954 654 961 654 q 947 641 954 649 q 928 633 940 633 q 915 637 924 633 q 899 643 906 640 m 332 443 q 352 470 339 460 q 385 481 365 481 q 406 466 401 481 q 411 435 411 451 q 397 449 404 442 q 378 456 389 456 q 355 452 367 456 q 332 443 343 449 m 175 203 q 172 190 172 199 q 185 166 172 176 q 219 156 199 156 q 239 158 225 156 q 207 176 224 165 q 175 203 190 186 m 1225 97 l 1232 97 q 1273 119 1257 97 q 1289 158 1289 140 q 1286 171 1289 168 q 1262 135 1278 153 q 1225 97 1246 117 m 372 156 q 396 146 382 146 q 433 160 415 146 q 450 188 450 174 q 411 167 431 176 q 372 156 392 158 m 322 396 q 343 422 331 417 q 369 426 356 426 q 390 413 385 426 q 396 388 396 399 q 382 399 389 394 q 364 404 375 404 q 343 403 353 404 q 322 396 333 401 m 1010 389 q 983 381 999 389 q 968 357 968 372 q 1011 367 992 367 q 1043 357 1028 367 q 1031 381 1042 372 q 1010 389 1021 389 m 1117 133 q 1138 126 1125 126 q 1167 140 1154 126 q 1181 164 1181 153 q 1179 169 1181 168 q 1148 144 1164 154 q 1117 133 1132 135 m 896 189 q 893 181 893 186 q 913 158 893 168 q 947 147 932 147 q 963 154 961 147 q 929 166 946 157 q 896 189 913 175 m 308 336 q 327 340 318 339 q 346 342 336 342 q 362 337 354 342 q 376 329 369 332 q 367 351 376 343 q 347 358 358 358 q 328 355 336 358 q 308 336 319 351 m 215 218 q 213 210 213 213 q 225 191 213 199 q 251 183 238 183 q 265 186 257 183 q 240 200 253 193 q 215 218 228 207 m 1090 174 q 1114 165 1103 165 q 1135 172 1126 165 q 1143 188 1143 179 q 1140 194 1143 192 q 1090 174 1124 175 m 293 263 q 311 264 300 264 q 354 256 333 264 q 348 269 354 263 q 331 276 342 276 q 293 263 311 276 m 1018 336 q 1000 333 1011 336 q 983 315 989 331 q 1013 319 997 319 q 1043 315 1031 319 q 1033 333 1040 329 q 1018 336 1025 336 m 301 300 q 319 301 311 301 q 336 301 328 301 q 352 300 344 301 q 365 293 360 299 q 340 317 365 317 q 301 300 319 317 m 358 189 q 375 182 363 182 q 400 190 388 182 q 413 210 413 199 q 387 197 400 203 q 358 189 374 192 m 1042 275 q 1033 288 1042 282 q 1017 293 1024 293 q 1001 288 1010 293 q 992 275 992 282 q 1004 277 999 276 q 1017 278 1010 278 q 1029 277 1024 278 q 1042 275 1035 276 m 933 203 q 931 196 931 200 q 940 183 931 189 q 960 176 950 176 q 972 182 968 176 q 953 188 963 185 q 933 203 943 192 m 1271 257 q 1263 242 1271 246 q 1247 239 1254 239 q 1240 240 1244 239 q 1232 243 1235 240 l 1271 257 z "},"C":{"ha":957,"x_min":22,"x_max":936,"o":"m 890 -12 q 919 -6 901 -12 q 936 17 936 0 q 932 28 936 24 q 921 42 928 33 q 906 75 913 53 q 899 143 899 97 q 903 192 899 167 q 913 242 907 217 q 923 292 918 267 q 928 343 928 318 q 915 409 928 378 q 880 464 903 440 q 826 501 857 488 q 760 515 796 515 q 695 494 725 515 q 665 433 665 472 q 679 384 665 406 q 713 342 693 363 q 688 284 706 308 q 648 244 671 260 q 600 220 625 228 q 553 213 575 213 q 511 225 529 213 q 481 256 493 238 q 463 299 469 275 q 457 344 457 322 q 460 376 457 354 q 471 419 464 397 q 486 458 478 442 q 506 475 494 475 q 544 483 526 475 q 573 503 561 492 q 591 529 585 515 q 597 556 597 543 q 565 624 597 596 q 483 653 533 653 q 485 699 485 669 q 486 761 485 728 q 492 829 488 794 q 508 892 497 864 q 538 937 519 919 q 586 954 557 954 q 626 933 613 954 q 647 882 640 911 q 653 822 653 853 q 656 771 654 790 l 724 707 l 907 707 l 907 1040 l 846 1132 l 668 1132 l 661 1124 q 585 1156 621 1142 q 504 1171 549 1171 q 327 1123 401 1171 q 205 1001 253 1075 q 134 835 157 926 q 111 657 111 744 q 22 583 22 657 q 34 544 22 560 q 74 515 46 529 q 103 428 97 469 q 118 349 110 388 q 144 273 126 310 q 206 197 161 236 q 254 112 222 149 q 326 50 286 75 q 414 13 367 25 q 508 0 461 0 q 575 7 540 0 q 642 25 610 14 q 699 52 674 36 q 736 86 724 68 q 768 43 749 61 q 810 13 788 25 q 853 -6 832 0 q 890 -12 875 -12 m 506 1150 q 596 1128 553 1150 q 681 1085 639 1106 l 694 1106 l 832 1106 l 832 782 l 672 782 q 668 856 672 815 q 651 931 664 896 q 611 990 638 967 q 539 1014 585 1014 q 475 992 500 1014 q 436 934 450 969 q 416 853 422 899 q 407 763 410 808 q 403 674 404 717 q 399 603 403 632 q 343 439 343 549 q 356 350 343 394 q 392 269 368 306 q 453 211 417 233 q 538 189 489 189 q 595 199 564 189 q 653 225 626 208 q 697 265 679 242 q 714 315 714 288 q 715 326 714 321 q 721 331 715 331 q 737 322 732 331 q 744 299 742 313 q 747 269 746 285 q 753 240 749 253 q 763 280 757 256 q 776 328 769 304 q 786 374 782 353 q 790 403 790 394 q 786 426 790 413 q 775 440 782 440 q 770 432 771 440 q 769 418 769 424 q 758 403 769 411 q 731 393 746 394 q 699 407 711 393 q 686 439 686 421 q 706 478 686 464 q 750 493 725 493 q 826 460 797 493 q 854 383 854 428 q 849 336 854 364 q 836 279 843 308 q 822 223 829 250 q 815 176 815 196 q 826 131 815 153 q 838 86 838 108 q 826 75 838 75 q 792 85 808 75 q 760 108 775 94 q 735 134 746 121 q 715 156 724 147 q 619 98 672 121 q 508 75 567 75 q 376 95 435 75 q 275 159 317 115 q 210 273 233 203 q 188 444 188 343 q 186 503 188 472 q 179 562 185 533 q 163 613 174 590 q 131 646 151 635 q 155 826 131 736 q 226 988 179 917 q 344 1105 274 1060 q 506 1150 414 1150 m 42 582 q 55 620 42 604 q 92 636 68 636 q 134 617 118 636 q 158 572 150 599 q 169 517 167 546 q 172 469 172 489 l 172 367 q 181 294 174 335 q 200 229 188 254 q 178 247 189 233 q 160 275 168 260 q 144 306 151 290 q 136 329 138 321 q 126 381 129 356 q 119 429 124 406 q 108 475 115 453 q 89 521 101 497 q 77 532 85 526 q 61 544 69 538 q 47 559 53 550 q 42 582 42 568 m 358 432 q 366 492 358 458 q 389 556 374 526 q 429 606 404 586 q 488 626 454 626 q 530 615 511 626 q 549 575 549 603 q 527 534 549 546 q 483 522 506 522 q 471 525 476 522 q 458 528 465 528 q 432 508 443 528 q 413 462 421 488 q 400 410 404 436 q 396 374 396 385 q 401 315 396 350 q 425 251 406 281 q 374 333 390 282 q 358 432 358 383 m 197 700 q 205 670 197 685 q 224 644 213 656 q 249 624 235 632 q 278 617 264 617 q 333 642 310 617 q 357 696 357 667 q 333 753 357 732 q 272 774 308 774 q 219 753 240 774 q 197 700 197 732 m 393 1097 l 342 1064 l 664 1064 l 600 1097 l 393 1097 m 219 703 q 236 744 219 731 q 272 757 253 757 q 310 742 296 757 q 324 706 324 726 q 309 669 324 683 q 272 656 294 656 q 235 669 250 656 q 219 703 219 683 m 156 332 q 156 369 156 344 q 157 425 157 394 q 154 484 157 451 q 144 545 151 517 q 125 592 138 574 q 93 611 113 611 q 73 602 79 611 q 67 583 67 593 q 74 568 67 576 q 88 557 81 560 q 117 524 106 550 q 135 464 128 497 q 147 394 143 431 q 156 332 151 358 m 711 194 q 615 138 668 154 q 508 121 561 121 q 390 140 444 121 q 303 181 335 158 q 333 150 313 164 q 383 127 354 136 q 443 113 411 118 q 508 107 475 107 q 624 128 571 107 q 714 193 678 149 l 711 194 m 801 1010 l 801 1040 l 600 1040 l 638 1010 l 801 1010 m 285 1010 l 447 1010 l 478 1040 l 314 1040 l 285 1010 m 393 900 l 403 926 l 226 926 l 215 900 l 393 900 m 243 956 l 410 956 l 425 983 l 261 983 l 243 956 m 461 575 q 428 563 443 575 q 403 532 414 550 q 385 494 392 514 q 379 460 379 474 q 380 451 379 457 q 381 444 381 446 q 390 469 382 450 q 409 506 399 488 q 431 540 419 525 q 454 556 443 556 q 472 549 463 556 q 492 542 482 542 q 515 552 503 542 q 528 576 528 563 q 513 600 528 592 q 485 608 499 608 q 453 589 465 608 q 485 597 467 597 q 503 593 493 597 q 514 578 514 589 q 507 567 514 571 q 494 563 500 563 q 478 569 485 563 q 461 575 472 575 m 382 847 l 386 869 l 200 869 l 192 847 l 382 847 m 801 956 l 801 983 l 664 983 l 678 956 l 801 956 m 374 799 l 378 817 l 183 817 l 178 799 l 374 799 m 801 900 l 801 926 l 689 926 l 697 900 l 801 900 m 285 581 q 267 578 278 581 q 246 570 257 575 q 226 558 235 565 q 213 542 217 551 q 245 551 231 547 q 278 556 260 556 q 308 552 293 556 q 339 543 324 549 q 315 572 335 564 q 285 581 296 581 m 272 531 q 239 518 257 531 q 213 493 221 506 q 243 499 228 496 q 274 501 258 501 q 299 500 286 501 q 325 494 313 499 q 304 521 322 511 q 272 531 286 531 m 801 847 l 801 869 l 701 869 l 701 847 l 801 847 m 272 469 q 240 458 257 469 q 218 429 222 446 q 253 437 236 433 q 289 440 271 440 q 303 440 296 440 q 317 438 310 439 q 298 459 315 449 q 272 469 281 469 m 718 1085 l 707 1064 l 801 1064 l 801 1085 l 718 1085 m 801 799 l 801 817 l 701 817 l 701 799 l 801 799 m 239 710 q 248 685 239 694 q 272 676 257 676 q 294 689 288 676 q 301 715 301 701 q 283 709 288 715 q 267 703 279 703 q 252 706 258 703 q 239 710 246 710 m 132 522 q 117 548 126 539 q 101 561 108 557 q 87 570 93 567 q 81 582 81 574 q 85 594 81 589 q 97 599 89 599 q 114 590 107 599 q 125 568 121 581 q 131 543 129 556 q 132 522 132 531 m 285 353 q 256 345 272 353 q 239 319 239 338 q 300 333 268 333 q 315 333 307 333 q 329 331 322 332 q 323 340 329 336 q 310 347 317 344 q 296 351 303 350 q 285 353 289 353 m 276 407 q 249 399 264 407 q 233 376 233 392 q 288 388 263 388 q 319 383 303 388 q 302 401 317 396 q 276 407 288 407 m 296 304 q 268 296 285 304 q 251 275 251 288 q 308 285 281 285 q 324 284 317 285 q 339 282 332 283 q 321 299 336 293 q 296 304 306 304 m 307 257 q 286 247 297 257 q 269 229 275 238 q 296 236 282 233 q 324 239 310 239 q 333 238 328 239 q 342 238 338 238 q 328 251 342 246 q 307 257 314 257 m 333 214 q 316 208 325 214 q 303 194 307 201 l 357 194 q 349 208 357 201 q 333 214 340 214 m 446 1117 l 561 1117 l 504 1125 l 446 1117 m 738 175 q 742 165 738 172 q 752 151 746 158 q 765 140 758 144 q 774 135 771 135 q 776 136 776 135 q 771 143 776 136 q 758 158 765 150 q 745 172 751 165 q 739 178 739 178 q 738 175 738 178 z "},"D":{"ha":1310,"x_min":24,"x_max":1289,"o":"m 31 250 q 33 228 31 240 q 49 210 36 215 q 43 171 43 193 q 60 112 43 143 q 106 55 76 81 q 173 13 135 29 q 256 -4 211 -4 q 315 7 289 -4 q 364 37 342 18 q 405 78 386 56 q 440 124 424 100 q 587 35 514 68 q 751 1 660 1 q 918 34 840 1 q 1058 125 996 67 q 1162 264 1119 183 q 1222 442 1204 344 q 1242 447 1231 444 q 1263 458 1253 450 q 1281 478 1274 465 q 1289 517 1289 492 q 1274 577 1289 551 q 1225 618 1258 603 q 1186 810 1225 715 q 1074 981 1147 906 q 898 1103 1001 1057 q 664 1150 794 1150 l 24 1150 l 24 968 l 90 900 l 186 900 l 186 606 q 165 603 179 606 q 138 595 151 601 q 113 576 124 589 q 103 540 103 563 q 113 504 103 519 q 135 479 122 489 q 160 465 147 469 q 182 460 174 460 q 194 446 190 451 q 199 417 199 440 q 192 383 199 403 q 173 347 185 364 q 147 317 161 329 q 121 306 133 306 q 108 307 113 306 q 94 308 103 308 q 50 297 69 308 q 31 250 31 285 m 378 204 q 328 144 354 168 q 278 108 303 121 q 228 90 253 94 q 185 85 204 85 q 97 115 132 85 q 63 194 63 144 q 79 192 69 193 q 96 190 89 190 q 152 208 121 190 q 212 257 183 225 q 260 336 240 289 q 279 443 279 383 q 273 493 279 464 q 258 540 267 522 q 233 574 251 557 q 206 603 214 592 l 206 983 l 47 983 l 47 1125 l 636 1125 q 858 1090 761 1125 q 1023 990 956 1056 q 1126 831 1090 925 q 1161 618 1161 738 q 1118 577 1131 604 q 1100 514 1106 550 q 1090 427 1093 474 q 1076 339 1088 381 q 1026 230 1060 278 q 945 149 992 182 q 842 98 899 115 q 722 81 785 81 q 630 86 676 81 q 538 106 583 92 q 452 143 493 119 q 378 204 411 167 m 426 207 q 558 137 489 163 q 699 111 628 111 q 832 139 771 111 q 714 126 771 126 q 563 147 635 126 q 426 207 492 168 m 108 172 q 107 161 107 169 q 122 128 107 143 q 154 114 138 114 l 171 114 q 137 140 153 126 q 108 172 121 154 m 147 193 q 144 179 144 185 q 167 141 144 156 q 208 126 189 126 q 218 127 210 126 q 228 128 226 128 q 188 152 213 135 q 147 193 164 169 m 192 210 q 189 200 189 204 q 209 167 189 182 q 246 151 229 151 l 265 151 q 192 210 222 172 m 299 189 q 261 202 278 192 q 229 228 244 213 q 247 193 229 201 q 283 185 264 185 q 299 189 292 185 m 456 429 q 473 337 456 381 q 521 260 490 293 q 593 206 551 226 q 685 186 635 186 q 778 208 736 186 q 849 264 819 229 q 895 344 879 299 q 911 438 911 389 q 901 511 911 478 q 868 576 892 544 q 869 599 868 583 q 869 633 869 614 q 858 780 869 715 q 815 890 846 844 q 732 959 785 935 q 599 983 679 983 l 478 983 l 478 526 q 456 429 456 481 m 1204 492 q 1167 397 1189 447 q 1118 298 1146 346 q 1056 210 1090 250 q 982 147 1022 171 q 1060 242 1035 192 q 1096 344 1085 293 q 1108 424 1106 385 q 1115 494 1111 463 q 1138 572 1122 542 q 1200 601 1154 601 q 1243 588 1222 601 q 1264 550 1264 575 q 1258 521 1264 532 q 1242 503 1251 510 q 1223 495 1233 497 q 1204 492 1213 493 m 897 206 q 885 203 894 206 q 874 194 875 201 l 921 194 q 910 203 919 200 q 897 206 900 206 m 558 357 q 563 407 558 382 q 579 454 567 432 q 615 456 599 454 q 644 466 632 458 q 665 487 657 474 q 672 522 672 500 q 644 583 672 558 q 582 607 615 607 q 549 600 565 607 l 549 900 l 692 900 q 765 876 735 900 q 815 813 796 851 q 844 728 835 775 q 853 638 853 682 q 852 613 853 624 q 850 592 851 603 q 824 601 843 600 q 801 603 806 603 q 753 583 771 603 q 736 536 736 564 q 745 496 736 511 q 766 472 754 481 q 789 459 778 463 q 804 456 800 456 q 810 442 808 453 q 813 418 811 431 q 814 394 814 406 q 814 382 814 383 q 806 318 814 350 q 782 260 799 286 q 738 217 765 233 q 674 201 711 201 q 619 215 640 201 q 583 251 597 229 q 564 301 569 274 q 558 357 558 329 m 46 256 q 65 279 46 269 q 104 289 83 289 q 137 299 118 289 q 171 325 156 308 q 197 365 186 342 q 208 417 208 389 q 199 460 208 447 q 174 475 189 474 q 140 490 156 476 q 124 533 124 504 q 135 567 124 553 q 168 581 146 581 q 217 565 199 581 q 247 524 236 549 q 260 472 257 500 q 264 419 264 443 q 249 352 264 388 q 212 286 235 317 q 160 235 189 256 q 101 215 131 215 q 65 225 83 215 q 46 256 46 235 m 954 226 q 944 240 951 238 q 922 243 936 243 q 893 232 904 243 l 954 226 m 88 258 q 96 249 88 250 q 108 247 104 247 q 164 265 139 247 q 207 310 189 283 q 234 369 225 338 q 243 428 243 401 q 239 463 243 442 q 226 506 235 485 q 202 541 217 526 q 167 556 188 556 q 154 549 157 556 q 151 535 151 542 q 158 519 151 525 q 172 508 164 513 q 190 499 181 503 q 206 492 199 496 q 225 466 218 485 q 232 424 232 447 q 222 374 232 401 q 196 322 211 346 q 162 282 181 299 q 126 265 143 265 q 113 267 117 265 q 101 269 110 269 q 92 265 97 268 q 88 258 88 261 m 396 247 q 388 259 396 253 q 372 265 381 265 q 360 262 369 265 q 347 247 350 258 l 396 247 m 1004 263 q 985 283 1004 278 q 956 289 965 289 q 932 285 949 289 q 910 267 915 282 q 926 268 918 268 q 943 268 935 268 q 1004 263 978 268 m 828 381 q 826 402 828 389 q 822 430 825 415 q 815 458 819 444 q 804 481 811 472 q 770 494 789 482 q 751 533 751 506 q 767 571 751 560 q 807 582 782 582 q 849 569 832 582 q 876 535 865 556 q 890 492 886 515 q 894 447 894 468 q 872 353 894 407 q 793 249 850 300 q 821 320 814 288 q 828 381 828 353 m 339 292 q 351 292 343 292 q 368 293 358 293 q 399 290 385 293 q 388 303 399 299 q 368 308 376 308 q 351 303 361 308 q 339 292 342 299 m 472 438 q 479 488 472 463 q 501 533 486 514 q 536 565 515 553 q 585 578 557 578 q 621 567 603 578 q 639 536 639 557 q 627 503 639 521 q 596 485 615 485 q 577 490 586 485 q 561 499 568 494 q 549 485 557 496 q 534 460 542 474 q 521 431 526 446 q 515 407 515 417 q 516 383 515 400 q 519 347 517 367 q 525 306 521 326 q 538 269 529 285 q 524 286 532 275 q 509 308 517 297 q 495 330 501 319 q 488 344 489 340 q 475 390 478 367 q 472 438 472 414 m 974 333 q 963 333 971 333 q 948 330 956 332 q 935 324 940 328 q 929 313 929 319 q 943 315 936 314 q 957 315 950 315 q 991 313 974 315 q 1025 307 1008 310 q 1003 327 1018 321 q 974 333 989 333 m 410 333 q 402 347 408 342 q 389 354 396 351 q 375 358 382 357 q 367 358 368 358 q 346 355 361 358 q 329 332 331 351 q 369 339 350 339 q 390 338 381 339 q 410 333 400 336 m 933 360 q 952 364 940 363 q 978 365 964 365 q 1018 363 999 365 q 1044 356 1038 360 q 1022 381 1040 372 q 989 389 1003 389 q 959 383 974 389 q 933 360 944 378 m 844 342 q 859 390 854 363 q 864 431 864 418 q 863 468 864 446 q 855 511 861 490 q 835 547 849 532 q 799 561 822 561 q 781 555 789 561 q 772 538 772 549 q 788 515 772 518 q 822 511 804 511 q 799 522 810 514 q 788 539 788 531 q 804 553 788 553 q 831 540 821 553 q 847 508 842 526 q 854 469 853 489 q 856 438 856 450 q 844 342 856 393 m 371 408 q 343 403 356 408 q 321 383 331 399 q 369 388 346 388 q 417 383 393 388 q 399 403 417 399 q 371 408 381 408 m 1147 535 q 1142 506 1144 528 q 1136 459 1139 485 q 1131 408 1133 433 q 1126 369 1128 383 q 1146 443 1140 401 q 1158 524 1151 485 q 1172 552 1161 542 q 1196 563 1183 563 q 1215 550 1215 563 q 1209 538 1215 539 q 1192 536 1203 536 q 1178 516 1183 536 q 1169 481 1172 496 q 1182 507 1176 500 q 1197 518 1188 514 q 1224 526 1210 524 q 1238 547 1238 528 q 1225 573 1238 564 q 1197 582 1213 582 q 1165 566 1179 582 q 1147 535 1150 550 m 994 447 q 979 445 989 447 q 960 439 969 443 q 944 428 951 435 q 938 414 938 422 q 965 418 951 417 q 993 419 979 419 q 1051 413 1021 419 q 1044 427 1051 421 q 1028 438 1038 433 q 1009 445 1018 443 q 994 447 1000 447 m 376 465 q 340 458 357 465 q 315 431 322 450 q 345 435 331 433 q 375 438 360 438 q 401 435 389 438 q 428 431 414 433 q 409 456 428 447 q 376 465 390 465 m 565 543 q 516 510 538 543 q 494 425 494 478 q 503 461 496 443 q 521 494 511 479 q 542 517 531 508 q 561 526 553 526 q 576 522 572 526 q 590 518 581 518 q 609 524 603 518 q 615 538 615 531 q 597 556 615 556 q 602 548 597 553 q 607 540 607 543 q 596 533 607 533 q 581 538 588 533 q 565 543 575 543 m 994 513 q 959 506 976 513 q 936 475 942 499 q 999 482 971 482 q 1063 475 1028 482 q 1033 506 1046 499 q 994 513 1019 513 m 439 485 q 412 517 431 507 q 372 526 393 526 q 354 524 365 526 q 333 517 343 522 q 314 503 322 511 q 306 486 306 496 q 371 499 339 499 q 406 495 389 499 q 439 485 422 492 m 165 542 q 193 535 181 542 q 210 514 206 529 l 203 514 q 177 520 189 514 q 165 542 165 526 m 915 653 q 946 581 915 608 q 1017 553 976 553 q 1066 574 1049 553 q 1083 628 1083 594 q 1056 697 1083 665 q 989 728 1029 728 q 937 704 958 728 q 915 653 915 681 m 283 656 q 290 622 283 639 q 307 592 296 606 q 333 570 318 579 q 365 561 349 561 q 415 581 393 561 q 438 628 438 600 q 416 695 438 664 q 357 726 394 726 q 304 707 325 726 q 283 656 283 688 m 931 650 q 946 690 931 671 q 985 710 961 710 q 1036 694 1013 710 q 1060 647 1060 678 q 1040 606 1060 619 q 997 592 1021 592 q 951 607 972 592 q 931 650 931 622 m 300 650 q 318 689 300 675 q 360 703 336 703 q 397 690 383 703 q 411 656 411 676 q 394 615 411 631 q 353 599 376 599 q 317 613 333 599 q 300 650 300 626 m 957 656 q 969 627 957 638 q 999 617 981 617 q 1022 628 1013 617 q 1031 650 1031 639 q 1030 660 1031 653 q 1022 674 1029 667 q 1009 653 1018 657 q 988 649 1000 649 q 972 652 979 649 q 957 656 965 656 m 321 664 q 331 640 321 653 q 354 626 342 626 q 378 635 365 626 q 390 658 390 643 q 388 665 390 661 q 383 669 386 669 q 354 656 375 656 q 321 664 338 656 m 942 1010 l 896 1040 l 76 1040 l 76 1010 l 942 1010 m 844 1064 l 697 1097 l 76 1097 l 76 1064 l 844 1064 m 440 956 l 440 983 l 243 983 l 243 956 l 440 956 m 440 900 l 440 926 l 243 926 l 243 900 l 440 900 m 440 847 l 440 869 l 243 869 l 243 847 l 440 847 m 440 799 l 440 817 l 243 817 l 243 799 l 440 799 m 440 754 l 440 768 l 243 768 l 243 754 l 440 754 m 1008 956 l 978 983 l 771 983 l 814 956 l 1008 956 m 1054 900 l 1033 926 l 847 926 l 864 900 l 1054 900 m 1086 847 l 1072 869 l 876 869 l 889 847 l 1086 847 m 1107 799 l 1099 817 l 900 817 l 900 799 l 1107 799 m 1117 754 l 1115 768 l 906 768 l 906 754 l 1117 754 z "},"E":{"ha":1047,"x_min":22,"x_max":1029,"o":"m 375 100 q 506 25 435 50 q 654 0 578 0 q 766 22 713 0 q 867 83 819 43 q 898 56 882 71 q 931 29 914 42 q 966 8 949 17 q 1001 -1 983 -1 q 1010 7 1010 -1 q 1001 45 1010 17 q 992 97 992 74 q 997 144 992 115 q 1010 205 1003 174 q 1024 265 1018 236 q 1029 313 1029 294 q 1017 382 1029 346 q 982 448 1004 418 q 928 497 960 478 q 860 517 897 517 q 792 492 822 517 q 761 428 761 468 q 773 390 761 404 q 800 364 785 375 q 776 297 794 328 q 732 244 757 267 q 678 208 707 221 q 622 194 649 194 q 581 209 599 194 q 553 244 564 224 q 536 289 542 265 q 531 332 531 313 q 531 345 531 335 q 534 367 532 356 q 540 391 536 379 q 549 410 543 403 l 714 410 l 714 708 l 643 817 l 521 817 l 521 900 l 681 900 l 681 804 l 738 732 l 967 732 l 967 1049 l 906 1150 l 22 1150 l 22 974 l 100 900 l 151 900 l 151 588 q 103 574 126 588 q 79 533 79 561 q 95 481 79 494 q 131 457 111 467 q 160 435 147 449 q 172 390 172 422 q 169 363 172 379 q 161 331 167 347 q 147 302 156 315 q 125 283 138 289 q 56 269 81 282 q 31 225 31 257 q 35 201 31 207 q 54 188 39 194 q 48 175 49 183 q 47 157 47 167 q 58 108 47 135 q 90 56 69 81 q 142 16 111 32 q 214 0 174 0 q 308 26 267 0 q 375 100 350 51 m 831 160 q 779 129 808 146 q 717 98 750 113 q 647 74 683 83 q 571 64 610 64 q 497 72 533 64 q 426 97 460 81 q 367 138 393 114 q 324 190 340 161 q 264 106 297 138 q 175 75 231 75 q 99 97 129 75 q 67 175 69 119 q 144 197 110 175 q 204 256 179 219 q 242 339 229 293 q 256 432 256 385 q 240 521 256 481 q 181 581 225 561 l 181 983 l 49 983 l 49 1125 l 889 1125 l 889 817 l 701 817 l 701 983 l 449 983 l 449 644 l 504 644 l 504 799 l 632 799 l 643 775 l 643 510 q 633 488 643 497 q 610 471 624 478 q 582 460 597 464 q 557 457 567 457 q 526 466 544 457 q 507 481 507 475 q 518 490 507 490 q 533 483 525 490 q 563 475 540 475 q 608 494 590 475 q 625 539 625 513 q 601 587 625 571 q 547 603 576 603 q 478 582 507 603 q 430 530 449 561 q 401 461 411 499 q 392 390 392 424 q 408 301 392 342 q 454 231 425 261 q 524 183 483 200 q 611 167 564 167 q 694 185 657 167 q 760 231 732 204 q 805 289 789 258 q 824 344 821 319 l 856 344 q 853 315 856 329 q 851 286 851 301 q 857 253 851 271 q 875 236 863 236 q 871 250 871 242 q 874 272 871 260 q 882 294 878 283 q 893 336 889 314 q 897 378 897 358 q 884 429 897 411 q 853 447 871 447 q 846 408 853 419 q 819 396 839 396 q 793 410 803 396 q 783 439 783 425 q 809 483 783 469 q 863 497 835 497 q 905 484 886 497 q 936 451 924 471 q 955 407 949 432 q 961 360 961 382 q 954 309 961 335 q 940 258 947 283 q 925 211 932 233 q 918 169 918 189 q 931 97 918 136 q 967 35 943 58 q 935 51 956 36 q 894 85 915 65 q 856 126 874 106 q 831 160 838 146 m 51 228 q 59 251 51 243 q 78 264 67 260 q 102 269 89 268 q 128 271 115 271 q 156 297 144 281 q 176 329 168 313 q 187 361 183 346 q 190 388 190 376 q 188 409 190 396 q 179 435 185 422 q 167 457 174 447 q 153 467 161 467 q 118 482 133 468 q 103 524 103 496 q 144 568 103 568 q 190 551 171 568 q 219 511 208 535 q 235 460 231 488 q 240 411 240 433 q 229 335 240 374 q 198 265 218 296 q 150 214 178 233 q 89 194 122 194 q 62 201 72 194 q 51 228 51 208 m 72 1064 l 861 1064 l 861 1097 l 72 1097 l 72 1064 m 72 1010 l 72 1040 l 863 1040 l 863 1010 l 72 1010 m 240 647 q 264 581 240 608 q 328 554 288 554 q 381 574 356 554 q 407 624 407 593 q 400 658 407 640 q 381 690 393 676 q 353 713 369 704 q 318 722 336 722 q 261 702 282 722 q 240 647 240 682 m 414 396 q 423 458 414 425 q 450 519 432 492 q 495 564 468 546 q 558 582 522 582 q 590 569 578 582 q 603 538 603 557 q 589 507 603 519 q 556 494 575 494 q 542 497 546 494 q 535 502 538 499 q 530 509 532 506 q 524 515 528 513 q 499 495 511 515 q 478 448 488 475 q 464 395 469 421 q 458 358 458 369 q 467 284 458 322 q 504 215 476 246 q 459 247 476 225 q 432 294 442 268 q 418 347 422 319 q 414 396 414 374 m 260 649 q 275 690 260 675 q 314 706 290 706 q 369 650 369 706 q 356 608 369 624 q 315 593 343 593 q 276 610 292 593 q 260 649 260 626 m 72 232 q 79 222 72 225 q 94 218 86 218 q 144 238 121 218 q 186 288 168 258 q 214 350 204 317 q 224 411 224 383 q 221 451 224 428 q 210 496 218 475 q 187 532 201 517 q 149 547 172 547 q 131 542 139 547 q 124 526 124 538 q 132 506 124 514 q 154 497 140 497 l 157 497 q 148 510 154 504 q 142 524 142 517 q 146 530 142 528 q 153 532 150 532 q 181 516 169 532 q 198 478 192 500 q 207 434 204 456 q 210 403 210 413 q 201 349 210 376 q 178 300 192 322 q 151 263 165 278 q 125 249 136 249 q 113 248 122 249 q 95 246 104 247 q 79 241 86 244 q 72 232 72 238 m 204 956 l 419 956 l 419 983 l 204 983 l 204 956 m 419 900 l 419 926 l 204 926 l 204 900 l 419 900 m 431 390 q 432 361 431 381 q 439 329 433 342 q 442 376 439 343 q 455 445 446 410 q 481 508 464 481 q 522 535 497 535 q 538 526 531 535 q 557 518 546 518 q 578 526 568 518 q 588 544 588 533 q 564 567 588 567 q 551 566 563 567 q 533 563 540 565 q 555 556 540 560 q 569 546 569 553 q 560 536 568 536 q 540 543 550 536 q 518 550 529 550 q 478 531 494 550 q 451 485 461 511 q 435 433 440 460 q 431 390 431 406 m 347 192 q 390 154 361 172 q 451 122 418 136 q 517 101 485 108 q 571 93 549 93 q 610 99 585 93 q 663 113 636 104 q 712 132 689 121 q 744 154 735 143 q 706 140 728 147 q 659 125 683 132 q 612 113 635 118 q 571 108 589 108 q 459 134 514 108 q 347 192 404 160 m 419 847 l 419 869 l 204 869 l 204 847 l 419 847 m 419 799 l 419 817 l 204 817 l 204 799 l 419 799 m 863 956 l 863 983 l 728 983 l 728 956 l 863 956 m 863 900 l 863 926 l 728 926 l 728 900 l 863 900 m 863 847 l 863 869 l 728 869 l 728 847 l 863 847 m 419 754 l 419 768 l 204 768 l 204 754 l 419 754 m 279 660 q 287 628 279 643 q 313 614 294 614 q 353 654 353 614 q 351 665 353 658 q 342 671 349 671 q 333 666 335 671 q 329 656 331 661 q 324 645 328 650 q 313 640 321 640 q 295 650 301 640 q 279 660 289 660 m 97 157 q 124 117 101 133 q 174 101 147 101 q 206 110 190 101 q 150 128 176 114 q 97 157 124 142 m 275 472 q 328 476 300 476 q 381 472 353 476 q 356 494 374 490 q 325 499 338 499 q 297 491 311 499 q 275 472 283 483 m 142 176 q 166 145 143 158 q 213 132 189 132 q 244 143 233 132 q 190 154 214 144 q 142 176 165 164 m 328 444 q 299 439 318 444 q 281 419 281 433 q 304 424 292 422 q 328 425 317 425 q 351 424 339 425 q 375 419 364 424 q 355 439 372 433 q 328 444 338 444 m 278 374 q 322 378 300 378 q 368 374 344 378 q 348 392 367 388 q 318 396 329 396 q 297 388 311 396 q 278 374 282 381 m 532 768 l 532 754 l 614 754 l 614 768 l 532 768 m 185 203 q 206 172 189 179 q 242 164 224 164 q 258 167 253 164 q 269 174 264 171 q 224 183 242 175 q 185 203 206 190 m 853 178 q 858 160 853 169 q 869 141 863 150 q 884 126 876 132 q 896 121 892 121 q 892 136 896 126 q 881 156 888 146 q 867 172 875 165 q 853 178 860 178 m 532 711 l 614 711 l 614 722 l 532 722 l 532 711 m 286 336 l 300 336 q 369 328 333 336 q 348 344 363 339 q 322 349 333 349 q 303 347 311 349 q 286 336 296 346 m 532 676 l 614 676 l 614 686 l 532 686 l 532 676 m 217 225 q 235 202 219 210 q 265 194 250 194 q 283 201 276 194 q 248 210 264 204 q 217 225 232 217 m 328 306 q 309 303 324 306 q 289 289 294 300 q 306 291 297 290 q 324 292 314 292 q 341 291 332 292 q 360 289 350 290 q 341 301 351 297 q 328 306 331 306 m 532 638 l 614 638 l 614 644 l 532 644 l 532 638 m 322 267 q 310 265 319 267 q 299 257 301 264 l 346 257 q 335 264 344 261 q 322 267 325 267 z "},"F":{"ha":1006,"x_min":21,"x_max":988,"o":"m 24 243 q 43 192 24 207 q 56 118 43 153 q 94 57 69 83 q 151 15 118 31 q 222 0 183 0 q 319 31 279 0 q 386 106 360 63 q 466 31 418 61 q 563 0 514 0 q 624 11 594 0 q 676 42 654 22 q 712 88 699 61 q 725 149 725 115 q 711 201 725 175 q 676 249 697 228 q 628 285 654 271 q 578 304 601 300 q 561 344 567 319 q 556 407 556 369 l 733 407 l 733 711 l 661 817 l 515 817 l 515 900 l 701 900 l 701 811 l 760 740 l 988 740 l 988 1064 l 919 1150 l 21 1150 l 21 968 l 94 900 l 160 900 l 160 601 q 103 585 128 601 q 78 538 78 569 q 86 499 78 514 q 107 477 94 485 q 133 467 119 469 q 156 464 146 464 q 166 434 161 451 q 171 401 171 417 q 169 374 171 393 q 162 337 167 356 q 150 303 157 318 q 133 289 143 289 q 113 296 125 289 q 86 303 100 303 q 41 287 58 303 q 24 243 24 271 m 349 200 q 281 103 321 133 q 183 74 242 74 q 99 103 135 74 q 63 188 63 133 l 99 188 q 168 206 138 188 q 219 256 199 225 q 251 326 240 286 q 263 407 263 365 q 238 526 263 474 q 178 597 214 578 l 178 983 l 42 983 l 42 1125 l 908 1125 l 908 817 l 715 817 l 715 983 l 447 983 l 447 657 l 506 657 l 506 799 l 654 799 l 663 792 l 663 469 l 538 469 l 547 482 q 565 478 556 478 q 604 492 586 478 q 622 532 622 507 q 597 581 622 561 q 544 600 572 600 q 488 584 510 600 q 452 542 465 568 q 434 485 439 517 q 429 422 429 453 q 436 342 429 383 q 460 268 443 301 q 504 213 476 235 q 575 192 532 192 q 614 208 594 192 q 636 233 633 224 q 646 208 643 222 q 649 188 649 194 q 613 98 649 132 q 525 64 576 64 q 468 76 496 64 q 417 106 440 88 q 376 149 394 125 q 349 200 358 174 m 42 244 q 54 271 42 260 q 82 282 67 282 q 106 274 96 282 q 128 267 115 267 q 152 281 142 267 q 170 317 163 296 q 182 363 178 339 q 186 407 186 388 q 179 459 186 443 q 164 486 172 475 q 143 488 154 486 q 122 497 132 490 q 106 513 113 503 q 99 540 99 524 q 114 569 99 557 q 144 582 129 582 q 193 563 174 582 q 224 517 213 544 q 240 460 235 490 q 244 407 244 429 q 235 339 244 375 q 208 272 226 303 q 161 221 189 242 q 96 200 133 200 q 58 213 75 200 q 42 244 42 225 m 543 583 q 585 569 563 583 q 607 532 607 554 q 596 509 607 517 q 571 501 585 501 q 558 503 564 501 q 546 508 551 504 q 510 453 522 483 q 499 381 499 424 q 501 354 499 372 q 510 319 504 336 q 526 288 517 301 q 547 275 535 275 q 565 280 557 275 q 583 285 574 285 q 612 275 599 285 q 625 249 625 265 q 604 217 625 226 q 565 208 583 208 q 510 226 533 208 q 470 273 486 243 q 447 342 454 303 q 439 422 439 381 q 446 483 439 454 q 466 535 453 513 q 499 570 479 557 q 543 583 518 583 m 72 1064 l 875 1064 l 875 1097 l 72 1097 l 72 1064 m 72 1010 l 875 1010 l 875 1040 l 72 1040 l 72 1010 m 244 651 q 271 586 244 615 q 333 557 297 557 q 388 575 365 557 q 410 626 410 593 q 404 658 410 640 q 388 693 399 676 q 363 721 378 710 q 328 732 347 732 q 268 710 292 732 q 244 651 244 688 m 264 656 q 281 696 264 679 q 321 713 297 713 q 361 695 344 713 q 378 654 378 678 q 365 614 378 631 q 328 597 351 597 q 282 613 300 597 q 264 656 264 628 m 61 249 q 74 226 61 233 q 101 219 88 219 q 155 239 132 219 q 194 287 178 258 q 217 348 210 315 q 225 407 225 381 q 222 450 225 424 q 210 501 219 476 q 185 544 201 526 q 144 563 169 563 q 122 543 122 563 q 128 527 122 532 q 143 519 135 522 q 160 515 151 517 q 176 507 169 513 q 203 461 196 492 q 211 407 211 431 q 205 358 211 388 q 186 302 199 329 q 155 256 174 275 q 111 236 136 236 q 101 240 104 236 q 94 250 97 244 q 86 260 90 256 q 75 264 82 264 q 65 258 69 264 q 61 249 61 253 m 208 956 l 415 956 l 415 983 l 208 983 l 208 956 m 464 381 q 470 335 464 360 q 488 289 476 311 q 517 252 500 267 q 558 238 535 238 q 592 253 592 238 q 582 265 592 265 q 566 261 575 265 q 550 257 557 257 q 518 272 532 257 q 495 308 504 288 q 482 349 486 329 q 478 381 478 369 q 481 424 478 400 q 492 468 485 447 q 510 505 499 489 q 536 525 521 521 q 549 522 543 522 q 558 522 554 522 q 574 528 571 522 q 578 540 578 533 q 565 558 578 551 q 544 564 551 564 q 514 547 526 564 q 543 556 531 556 q 558 553 550 556 q 565 543 565 550 q 565 539 565 542 q 557 536 564 536 q 547 538 553 536 q 532 539 540 539 q 499 515 513 532 q 478 477 486 499 q 467 431 471 456 q 464 381 464 406 m 208 900 l 415 900 l 415 926 l 208 926 l 208 900 m 208 847 l 415 847 l 415 869 l 208 869 l 208 847 m 208 799 l 415 799 l 415 817 l 208 817 l 208 799 m 753 956 l 875 956 l 875 983 l 753 983 l 753 956 m 753 900 l 875 900 l 875 926 l 753 926 l 753 900 m 208 754 l 415 754 l 415 768 l 208 768 l 208 754 m 753 847 l 875 847 l 875 869 l 753 869 l 753 847 m 275 478 q 336 483 303 483 q 366 482 351 483 q 396 478 381 481 q 389 492 396 486 q 373 502 382 499 q 353 507 364 506 q 336 508 343 508 q 319 506 329 508 q 299 500 308 504 q 282 490 289 496 q 275 478 275 485 m 285 424 q 308 428 296 426 q 336 429 321 429 q 365 428 351 429 q 389 424 378 426 q 382 438 389 432 q 367 447 375 443 q 349 451 358 450 q 336 453 340 453 q 324 451 332 453 q 306 445 315 449 q 291 436 297 442 q 285 424 285 431 m 99 171 q 119 117 99 142 q 168 93 140 93 q 176 94 172 93 q 183 96 179 94 q 99 171 142 122 m 288 657 q 299 634 288 646 q 319 622 311 622 q 342 631 332 622 q 351 653 351 640 q 344 674 351 665 q 334 658 340 667 q 319 650 328 650 q 301 653 310 650 q 288 657 293 657 m 146 178 q 164 131 146 150 q 204 113 182 113 q 222 117 214 113 q 184 142 203 128 q 146 178 165 156 m 292 375 q 336 381 313 381 q 358 379 347 381 q 381 375 369 378 q 363 394 381 389 q 336 399 344 399 q 309 393 326 399 q 292 375 292 388 m 539 754 l 628 754 l 628 768 l 539 768 l 539 754 m 543 97 q 585 116 571 97 q 600 154 600 135 q 589 178 600 169 q 573 137 583 157 q 543 97 563 117 m 444 125 q 488 137 472 125 q 503 167 503 149 q 499 186 503 175 q 476 153 489 167 q 444 125 463 139 m 492 103 q 535 118 518 103 q 551 151 551 133 q 544 172 551 164 q 522 135 535 151 q 492 103 510 118 m 539 711 l 628 711 l 628 722 l 539 722 l 539 711 m 299 332 q 336 338 315 338 q 355 336 346 338 q 374 332 364 335 q 358 348 371 342 q 336 354 346 354 q 315 349 328 354 q 299 332 301 343 m 539 676 l 628 676 l 628 686 l 539 686 l 539 676 m 218 206 q 231 178 218 189 q 263 167 244 167 q 270 167 267 167 q 278 169 274 168 l 218 206 m 188 189 q 204 151 189 169 q 239 132 219 132 q 257 139 247 132 q 214 162 233 147 q 188 189 194 176 m 306 293 q 322 295 314 294 q 336 296 329 296 q 351 296 343 296 q 367 293 360 296 q 353 307 364 301 q 336 313 343 313 q 319 307 329 313 q 306 293 308 301 m 539 638 l 628 638 l 628 644 l 539 644 l 539 638 m 185 521 q 171 523 179 521 q 154 528 163 525 q 140 535 146 531 q 135 544 135 539 q 143 553 135 553 q 168 542 154 553 q 185 521 182 532 m 361 257 q 350 266 358 264 q 336 268 342 268 q 323 266 332 268 q 311 257 314 264 l 361 257 m 418 161 q 463 201 463 164 l 418 161 z "},"G":{"ha":1089,"x_min":21,"x_max":1067,"o":"m 21 506 q 27 464 21 482 q 49 439 33 446 q 64 430 58 435 q 74 415 69 425 q 85 388 79 406 q 101 342 90 371 q 155 241 117 301 q 250 124 193 181 q 383 28 307 68 q 551 -12 460 -12 q 626 -3 586 -12 q 705 25 667 7 q 774 70 743 43 q 824 133 806 97 q 856 92 836 114 q 900 50 875 69 q 952 18 925 31 q 1006 6 979 6 q 1026 17 1026 6 q 1023 30 1026 21 q 1014 53 1019 39 q 997 114 1006 74 q 989 217 989 154 q 992 263 989 239 q 1000 308 996 286 q 1008 344 1004 329 q 1014 365 1013 360 q 1031 379 1022 374 q 1048 392 1040 385 q 1061 409 1056 399 q 1067 438 1067 419 q 1040 503 1067 474 q 974 533 1013 533 q 937 523 949 533 q 921 513 925 513 q 917 532 917 513 q 909 563 917 547 q 889 590 901 578 q 861 610 876 603 q 831 618 846 618 q 773 594 790 618 q 756 538 756 569 q 756 518 756 529 q 758 501 756 508 l 735 501 q 711 515 725 508 q 685 521 697 521 q 638 501 658 521 q 617 457 617 482 q 626 419 617 432 q 645 398 635 407 q 665 377 656 389 q 674 343 674 365 q 666 291 674 317 q 644 246 658 265 q 606 214 629 226 q 551 201 582 201 q 510 213 526 201 q 485 241 494 224 q 472 281 475 258 q 468 324 468 303 q 471 365 468 339 q 485 406 474 390 q 542 426 519 406 q 565 488 565 447 q 544 553 565 528 q 486 593 522 579 q 482 653 482 624 q 491 728 482 681 q 517 821 500 775 q 558 900 533 867 q 614 933 582 933 q 642 919 631 933 q 663 884 654 904 q 675 842 671 864 q 679 807 679 821 l 760 738 l 943 738 l 943 1068 l 890 1150 l 713 1150 l 690 1132 q 603 1160 640 1154 q 515 1167 565 1167 q 390 1139 446 1167 q 292 1065 335 1111 q 217 958 249 1018 q 165 833 186 897 q 135 703 144 768 q 125 583 125 639 q 95 582 113 583 q 61 573 78 581 q 33 550 44 565 q 21 506 21 535 m 147 571 q 169 760 147 658 q 238 948 192 861 q 352 1092 283 1035 q 515 1150 421 1150 q 612 1135 564 1150 q 703 1097 660 1121 l 726 1125 l 864 1125 l 864 817 l 700 817 q 693 877 699 846 q 675 935 688 908 q 640 978 663 961 q 582 996 617 996 q 500 961 533 996 q 446 876 467 926 q 415 773 425 826 q 404 682 406 719 l 404 574 q 360 497 372 539 q 347 411 347 456 q 362 324 347 367 q 402 249 376 282 q 463 194 428 215 q 539 174 497 174 q 624 193 582 174 q 697 244 665 213 q 749 316 729 275 q 768 400 768 357 q 765 436 768 417 q 754 467 761 456 q 772 478 761 478 q 801 458 786 468 q 836 449 817 449 q 864 454 854 449 q 876 460 874 460 q 881 456 881 460 q 882 449 882 451 q 867 392 871 415 q 864 331 864 368 q 891 190 864 254 q 969 86 918 125 q 965 80 969 83 q 957 76 961 76 q 905 90 929 76 q 861 123 881 104 q 828 160 842 142 q 810 186 815 178 q 754 136 786 160 q 685 94 722 113 q 606 65 647 76 q 524 54 564 54 q 401 70 458 54 q 299 118 343 86 q 226 199 254 150 q 192 314 199 249 q 188 381 189 346 q 185 451 188 417 q 174 515 182 485 q 150 567 167 544 l 147 571 m 282 169 q 331 128 303 144 q 392 101 360 111 q 458 85 424 90 q 524 81 492 81 q 671 113 599 81 q 794 199 743 146 q 742 161 772 179 q 676 128 711 143 q 601 105 640 114 q 524 96 563 96 q 460 101 494 96 q 393 117 426 107 q 331 140 360 126 q 282 169 301 153 m 847 167 q 856 147 847 158 q 874 126 864 136 q 896 110 885 117 q 913 103 907 103 q 917 108 917 103 q 914 115 917 110 q 904 122 911 119 q 892 132 900 124 q 874 150 883 140 q 858 167 865 160 q 851 174 851 174 q 847 167 847 174 m 401 165 q 385 176 397 176 q 366 171 375 176 q 357 154 357 165 l 401 165 m 882 332 q 885 383 882 353 q 897 442 888 414 q 924 490 906 469 q 972 510 942 510 q 1006 500 992 510 q 1019 469 1019 490 q 1000 433 1019 442 q 961 419 981 424 q 941 391 949 410 q 929 349 933 372 q 924 303 925 326 q 922 264 922 281 q 925 209 922 240 q 933 158 928 178 q 892 247 903 199 q 882 332 882 296 m 376 193 q 368 206 372 201 q 356 210 364 210 q 328 201 342 210 q 314 181 314 193 q 376 193 344 193 m 42 504 q 53 541 42 528 q 92 554 65 554 q 128 540 114 554 q 151 506 143 526 q 163 465 160 486 q 167 428 167 443 q 174 308 167 363 q 210 192 182 253 q 172 242 189 214 q 140 301 154 271 q 116 363 126 332 q 97 419 106 393 q 84 438 93 431 q 66 451 75 444 q 49 470 57 458 q 42 504 42 482 m 350 228 q 325 244 343 244 q 293 236 310 244 q 276 213 276 228 q 313 223 296 219 q 350 228 331 226 m 833 219 q 826 231 833 226 q 813 235 819 235 q 799 231 806 235 q 790 219 792 226 l 833 219 m 338 264 q 307 285 333 285 q 270 274 288 285 q 253 246 253 264 q 338 264 297 264 m 839 257 q 828 272 839 265 q 807 278 818 278 q 790 273 799 278 q 779 257 782 268 q 792 259 786 258 q 806 260 799 260 q 822 259 814 260 q 839 257 831 258 m 371 408 q 375 461 371 433 q 390 513 379 489 q 419 551 400 536 q 468 567 439 567 q 511 551 493 567 q 529 511 529 535 q 515 482 529 490 q 485 474 500 474 q 476 475 481 474 q 468 476 472 476 q 461 475 464 476 q 443 454 451 471 q 428 417 435 438 q 419 377 422 397 q 415 344 415 357 q 422 288 415 308 q 446 233 429 267 q 417 267 431 246 q 394 313 404 289 q 377 362 383 336 q 371 408 371 388 m 696 340 q 690 381 696 364 q 674 403 683 397 q 648 422 658 411 q 638 451 638 432 q 651 482 638 469 q 679 494 664 494 q 710 485 697 494 q 730 462 722 476 q 741 431 738 447 q 744 397 744 414 q 741 372 744 390 q 729 331 738 353 q 708 286 721 308 q 675 250 694 264 q 691 297 686 274 q 696 340 696 321 m 896 332 q 899 303 896 325 q 908 268 901 281 q 910 305 908 282 q 915 351 911 328 q 924 394 918 374 q 942 425 931 414 q 956 434 947 431 q 974 442 965 438 q 988 451 982 446 q 993 465 993 457 q 987 483 993 476 q 972 489 981 489 q 933 469 949 489 q 910 424 918 450 q 899 372 901 399 q 896 332 896 346 m 325 308 q 293 331 318 331 q 251 319 272 331 q 229 293 229 308 q 269 305 249 300 q 308 310 289 310 q 317 309 313 310 q 325 308 321 308 m 846 300 q 835 321 846 314 q 808 328 824 328 q 781 321 793 328 q 768 300 769 314 q 782 303 775 303 q 797 303 790 303 q 822 303 810 303 q 846 300 835 303 m 656 450 q 669 424 656 435 q 694 414 682 414 q 705 389 701 406 q 708 351 708 372 q 704 306 708 328 q 726 385 726 344 q 707 444 726 422 q 689 438 696 438 q 674 454 674 438 q 678 463 674 457 q 694 469 683 469 q 688 476 694 475 q 679 478 682 478 q 663 469 669 478 q 656 450 656 460 m 63 507 q 69 485 63 494 q 83 469 75 476 q 100 456 92 463 q 114 439 108 449 q 138 372 128 411 q 158 303 147 332 q 151 371 153 331 q 143 448 149 411 q 126 511 138 485 q 89 538 114 538 q 68 528 74 538 q 63 507 63 518 m 314 354 q 279 381 306 381 q 235 370 257 381 q 214 347 214 360 q 256 352 235 350 q 297 354 276 354 l 314 354 m 389 396 q 392 368 389 385 q 399 339 394 351 q 399 371 399 350 q 405 415 400 392 q 420 458 410 438 q 451 490 431 479 q 466 494 457 493 q 484 499 475 496 q 499 506 493 501 q 506 522 506 511 q 495 544 506 538 q 469 551 485 551 q 431 535 446 551 q 406 494 415 518 q 392 442 396 469 q 389 396 389 415 m 850 353 q 838 373 850 367 q 811 379 826 379 q 786 370 796 379 q 776 353 776 361 q 807 357 793 357 q 850 353 829 357 m 317 403 q 267 435 310 435 q 224 424 243 435 q 204 394 204 414 q 279 406 244 406 q 297 406 289 406 q 317 403 307 406 m 853 401 q 841 422 851 415 q 818 429 831 429 q 794 422 804 429 q 782 401 785 415 q 813 406 796 406 q 853 401 832 406 m 933 438 q 945 459 936 444 q 974 474 954 474 q 979 465 979 474 q 960 453 979 460 q 933 438 942 446 m 325 461 q 303 488 319 481 q 265 494 288 494 q 222 485 242 494 q 200 456 203 475 q 237 464 219 461 q 274 467 254 467 q 299 465 286 467 q 325 461 313 464 m 128 450 q 111 467 119 460 q 96 480 103 474 q 85 494 89 486 q 81 514 81 501 q 89 521 81 521 q 114 499 103 521 q 128 450 125 476 m 775 542 q 790 584 775 569 q 833 599 806 599 q 875 584 860 599 q 890 542 890 569 q 874 501 890 518 q 833 483 858 483 q 790 500 806 483 q 775 542 775 517 m 467 535 q 481 532 474 535 q 488 521 488 529 q 481 512 488 514 q 465 508 475 510 q 444 503 456 507 q 422 492 432 500 q 440 519 429 504 q 467 535 451 535 m 804 544 q 796 533 796 544 q 808 513 796 524 q 833 503 819 503 q 860 515 849 503 q 871 539 871 528 q 860 550 871 550 q 849 543 853 550 q 833 536 844 536 q 819 540 824 536 q 804 544 814 543 m 192 631 q 215 560 192 593 q 278 528 238 528 q 335 551 314 528 q 357 610 357 574 q 352 643 357 626 q 338 674 347 660 q 315 698 328 689 q 283 707 301 707 q 252 701 268 707 q 222 686 236 696 q 200 662 208 676 q 192 631 192 647 m 213 622 q 228 665 213 643 q 267 686 244 686 q 313 670 294 686 q 331 624 331 654 q 314 583 331 600 q 274 567 297 567 q 233 583 253 567 q 213 622 213 600 m 238 624 q 248 599 238 611 q 272 588 258 588 q 302 603 294 588 q 310 638 310 618 q 299 633 303 638 q 291 624 294 629 q 283 615 288 619 q 272 611 279 611 q 256 624 261 611 q 244 636 251 636 q 239 631 240 636 q 238 624 238 626 m 381 754 l 382 768 l 199 768 l 196 754 l 381 754 m 388 799 l 392 817 l 211 817 l 206 799 l 388 799 m 404 847 l 413 869 l 231 869 l 222 847 l 404 847 m 426 900 l 440 926 l 254 926 l 242 900 l 426 900 m 458 956 l 483 983 l 292 983 l 275 956 l 458 956 m 836 1010 l 836 1040 l 340 1040 l 313 1010 l 836 1010 m 706 1064 q 694 1069 706 1064 q 670 1080 683 1074 q 645 1092 657 1086 q 633 1097 633 1097 l 422 1097 l 367 1064 l 706 1064 m 836 1064 l 836 1097 l 743 1097 l 715 1064 l 836 1064 m 836 956 l 836 983 l 671 983 l 692 956 l 836 956 m 836 900 l 836 926 l 708 926 l 719 900 l 836 900 m 836 847 l 836 869 l 724 869 l 724 847 l 836 847 m 597 1117 q 556 1123 582 1121 q 515 1125 531 1125 q 456 1117 485 1125 l 597 1117 z "},"H":{"ha":1501,"x_min":21,"x_max":1478,"o":"m 782 208 q 797 129 782 167 q 837 63 811 92 q 899 16 863 33 q 981 -1 936 -1 q 1080 21 1040 -1 q 1151 90 1119 43 q 1224 27 1185 54 q 1313 0 1264 0 q 1376 13 1346 0 q 1428 49 1406 26 q 1465 101 1451 71 q 1478 164 1478 131 q 1469 211 1478 185 q 1447 261 1461 238 q 1415 301 1433 285 q 1378 317 1397 317 q 1364 314 1372 317 q 1340 351 1349 328 q 1332 389 1332 374 q 1334 417 1332 399 q 1340 438 1336 436 q 1356 433 1349 435 q 1371 432 1364 432 q 1422 453 1403 432 q 1440 510 1440 475 q 1430 555 1440 535 q 1404 590 1419 575 q 1372 612 1389 604 q 1340 619 1354 619 l 1340 900 l 1478 900 l 1478 1064 l 1418 1150 l 785 1150 l 785 974 l 854 900 l 944 900 l 944 711 l 568 711 l 568 900 l 718 900 l 718 1074 l 664 1150 l 42 1150 l 42 969 l 107 900 l 200 900 l 200 629 q 192 630 196 629 q 185 631 189 631 q 119 610 147 631 q 92 557 92 589 q 117 495 92 517 q 169 467 143 474 q 186 413 186 447 q 183 383 186 400 q 173 350 179 367 q 157 320 167 333 q 135 301 147 307 q 111 310 122 308 q 94 313 100 313 q 42 294 64 313 q 21 244 21 276 q 35 170 21 213 q 77 90 50 128 q 142 26 104 53 q 225 0 179 0 q 322 27 281 0 q 401 100 364 54 q 429 65 411 82 q 469 33 447 47 q 515 9 490 18 q 560 0 539 0 q 624 14 593 0 q 679 51 656 28 q 717 107 703 75 q 732 175 732 139 q 697 278 732 240 q 596 317 663 317 q 585 333 589 322 q 578 358 581 344 q 574 386 575 372 q 572 410 572 400 q 592 464 572 442 q 636 499 611 486 l 833 499 q 881 459 850 467 q 933 451 913 451 q 946 417 946 439 q 942 372 946 396 q 929 330 938 349 q 909 299 921 311 q 882 286 897 286 q 865 292 872 286 q 847 297 857 297 q 798 269 814 297 q 782 208 782 240 m 813 190 q 833 180 822 183 q 856 176 844 176 q 933 201 900 176 q 989 261 967 225 q 1022 339 1011 297 q 1033 417 1033 381 q 1024 490 1033 456 q 998 551 1015 525 q 956 592 981 576 q 897 607 931 607 q 844 585 861 607 q 824 526 826 564 l 642 526 q 644 538 643 533 q 644 549 644 543 q 621 600 644 588 q 574 613 597 613 q 513 592 538 613 q 474 543 489 572 q 452 480 458 514 q 446 417 446 446 q 458 345 446 383 q 492 274 469 307 q 544 219 514 240 q 613 197 575 197 q 649 206 632 197 q 682 222 665 214 q 625 121 671 153 q 526 89 579 89 q 433 119 468 89 q 374 201 397 150 q 340 160 360 181 q 297 122 321 139 q 245 95 272 106 q 189 85 218 85 q 146 94 169 85 q 102 118 122 103 q 68 154 82 133 q 54 199 54 175 q 85 193 65 193 q 149 210 114 193 q 213 261 183 228 q 262 343 242 294 q 282 454 282 392 q 271 544 282 503 q 226 617 260 585 l 226 983 l 68 983 l 68 1125 l 644 1125 l 644 983 l 489 983 l 489 686 l 974 686 l 974 983 l 810 983 l 810 1125 l 1394 1125 l 1394 983 l 1244 983 l 1244 586 q 1204 522 1213 554 q 1196 432 1196 489 q 1206 353 1196 393 q 1238 279 1217 313 q 1292 224 1260 246 q 1365 203 1324 203 q 1394 208 1379 203 q 1422 221 1410 214 q 1408 164 1422 188 q 1371 125 1393 140 q 1322 102 1349 110 q 1269 94 1294 94 q 1193 113 1233 94 q 1110 193 1153 132 q 1051 108 1090 139 q 968 78 1013 78 q 920 83 947 78 q 869 101 893 88 q 829 135 846 114 q 813 190 813 157 m 861 157 q 897 122 868 135 q 954 108 925 108 q 1001 122 983 108 q 929 131 969 122 q 861 157 889 140 m 97 175 q 106 151 99 163 q 125 129 114 139 q 149 113 136 119 q 176 107 163 107 q 204 115 192 107 q 147 138 178 118 q 97 175 117 158 m 519 115 q 551 119 533 115 q 583 132 568 124 q 609 155 599 140 q 619 190 619 169 q 581 153 606 171 q 519 115 556 135 m 1271 121 q 1292 119 1278 119 q 1352 138 1328 119 q 1376 186 1376 157 q 1332 148 1361 163 q 1271 121 1303 133 m 142 183 q 150 164 143 174 q 168 147 157 154 q 192 134 179 139 q 218 129 206 129 q 246 139 236 129 q 193 153 221 139 q 142 183 165 167 m 476 131 q 535 144 508 131 q 563 193 563 157 q 527 158 550 174 q 476 131 504 143 m 919 172 q 942 146 919 156 q 989 136 965 136 q 1022 146 1013 136 q 969 154 996 149 q 919 172 943 160 m 1228 143 q 1256 139 1240 139 q 1304 151 1281 139 q 1328 190 1328 164 q 1282 160 1307 171 q 1228 143 1257 150 m 449 154 q 497 163 476 154 q 518 206 518 172 q 490 177 507 189 q 449 154 472 165 m 188 204 q 207 171 189 183 q 246 158 225 158 q 279 168 265 158 q 239 176 263 168 q 188 204 215 185 m 1196 172 q 1222 168 1206 168 q 1264 177 1243 168 q 1285 207 1285 186 q 1242 183 1264 192 q 1196 172 1219 175 m 965 199 q 985 174 965 183 q 1024 165 1004 165 q 1053 172 1042 165 q 1009 181 1033 176 q 965 199 985 186 m 231 222 q 242 197 231 206 q 268 189 253 189 q 304 201 288 189 q 265 204 281 201 q 231 222 250 207 m 435 186 q 476 192 464 188 q 489 218 489 196 q 468 201 479 208 q 435 186 457 194 m 1175 200 q 1188 198 1182 199 q 1199 197 1193 197 q 1239 224 1235 197 l 1175 200 m 1018 219 q 1030 203 1018 208 q 1054 197 1042 197 q 1075 203 1069 197 l 1018 219 m 806 240 q 817 267 806 254 q 842 279 829 279 q 864 272 854 279 q 885 265 874 265 q 920 281 906 265 q 945 319 935 296 q 960 368 956 342 q 965 417 965 394 q 963 441 965 428 q 954 467 960 454 q 942 488 949 479 q 926 499 935 496 q 904 494 915 494 q 867 506 885 494 q 850 540 850 518 q 866 574 850 561 q 900 586 882 586 q 953 567 931 586 q 989 522 975 549 q 1009 467 1003 496 q 1015 417 1015 438 q 1003 334 1015 374 q 969 265 990 294 q 918 217 947 235 q 856 200 889 200 q 823 210 840 200 q 806 240 806 221 m 824 242 q 834 222 824 231 q 856 214 844 214 q 917 235 889 214 q 963 287 944 256 q 992 353 982 318 q 1003 417 1003 388 q 997 462 1003 435 q 978 513 990 489 q 946 553 965 536 q 900 571 926 571 q 878 561 889 571 q 868 540 868 551 q 879 521 868 531 q 903 511 890 511 q 932 518 915 511 q 965 488 946 515 q 983 417 983 460 q 976 361 983 392 q 956 305 969 331 q 923 262 942 279 q 882 244 904 244 q 863 253 869 244 q 838 261 856 261 q 827 255 831 261 q 824 242 824 249 m 467 417 q 472 472 467 442 q 489 528 476 503 q 522 572 501 554 q 574 589 542 589 q 605 581 592 589 q 618 550 618 574 q 565 503 618 506 q 537 471 550 492 q 524 417 524 450 q 534 353 524 388 q 571 301 544 319 q 594 294 581 294 q 624 293 610 294 q 649 286 639 292 q 660 264 660 281 q 643 230 660 242 q 606 218 626 218 q 549 239 574 218 q 505 290 524 260 q 476 356 486 321 q 467 417 467 390 m 51 253 q 64 281 51 272 q 92 290 76 290 q 115 285 104 290 q 136 281 125 281 q 165 297 151 281 q 190 336 179 314 q 206 381 200 358 q 211 417 211 404 q 204 461 211 444 q 190 488 197 478 q 144 505 168 492 q 121 554 121 518 q 131 589 121 574 q 164 604 142 604 q 210 591 192 604 q 240 558 229 578 q 256 513 251 538 q 260 467 260 489 q 250 392 260 435 q 220 312 240 350 q 170 247 200 274 q 100 221 140 221 q 60 231 69 221 q 51 253 51 242 m 1217 432 q 1222 495 1217 464 q 1240 551 1228 526 q 1272 590 1253 575 q 1317 604 1290 604 q 1364 591 1344 604 q 1383 550 1383 578 q 1371 515 1383 531 q 1339 500 1358 500 q 1315 508 1322 500 q 1304 515 1307 515 q 1287 503 1294 514 q 1274 477 1279 492 q 1267 449 1269 463 q 1264 431 1264 436 q 1269 388 1264 414 q 1285 338 1275 363 q 1309 294 1294 313 q 1342 276 1324 276 q 1358 287 1351 276 q 1385 297 1364 297 q 1407 292 1393 297 q 1421 268 1421 288 q 1401 235 1421 247 q 1363 224 1382 224 q 1299 244 1326 224 q 1254 295 1272 264 q 1226 363 1236 326 q 1217 432 1217 400 m 67 253 q 78 236 67 239 q 101 233 90 233 q 163 258 136 233 q 209 319 190 283 q 237 395 228 356 q 246 464 246 435 q 243 501 246 481 q 232 539 240 521 q 210 569 224 557 q 174 582 196 582 q 151 572 158 582 q 144 546 144 561 q 161 515 144 522 q 197 500 178 507 q 215 471 207 489 q 224 419 224 453 q 217 375 224 401 q 199 324 211 349 q 168 283 186 300 q 125 265 150 265 q 106 271 114 265 q 89 276 99 276 q 72 269 78 276 q 67 253 67 263 m 482 417 q 491 361 482 392 q 517 303 500 331 q 556 258 533 276 q 607 239 579 239 q 628 242 618 239 q 639 258 639 244 q 629 275 639 272 q 607 278 619 278 q 590 278 599 278 q 575 281 582 278 q 544 304 557 289 q 522 338 531 319 q 508 378 513 357 q 503 417 503 399 q 513 475 503 449 q 550 519 522 501 q 563 524 554 522 q 581 529 571 526 q 597 537 590 532 q 604 550 604 542 q 581 578 604 578 q 535 560 554 578 q 505 518 517 543 q 488 465 493 493 q 482 417 482 438 m 1229 432 q 1238 376 1229 408 q 1262 313 1246 343 q 1301 260 1278 282 q 1356 239 1325 239 q 1380 242 1364 239 q 1396 260 1396 244 q 1389 273 1396 269 q 1375 276 1382 276 q 1357 269 1363 276 q 1339 263 1351 263 q 1300 281 1317 263 q 1272 326 1283 300 q 1254 382 1260 353 q 1249 432 1249 411 q 1252 465 1249 447 q 1263 499 1256 483 q 1282 524 1269 514 q 1311 535 1294 535 q 1323 531 1321 535 q 1335 528 1325 528 q 1355 535 1346 528 q 1364 556 1364 542 q 1348 583 1364 575 q 1317 590 1332 590 q 1273 574 1290 590 q 1246 532 1256 557 q 1233 480 1236 507 q 1229 432 1229 453 m 403 243 q 390 265 400 258 q 369 272 381 272 q 349 265 358 272 q 338 243 340 258 q 369 247 354 247 q 403 243 386 247 m 1136 263 q 1124 277 1132 272 q 1107 282 1115 282 q 1092 277 1099 282 q 1082 263 1085 272 l 1136 263 m 408 289 q 395 315 407 306 q 368 324 383 324 q 340 315 353 324 q 324 289 326 306 q 367 296 347 296 q 388 294 378 296 q 408 289 397 292 m 1146 296 q 1133 315 1143 308 q 1108 321 1122 321 q 1085 315 1096 321 q 1074 296 1075 308 q 1106 300 1088 300 q 1146 296 1125 300 m 415 338 q 399 364 413 356 q 369 372 386 372 q 335 363 350 372 q 319 338 321 353 q 367 343 340 343 q 415 338 393 343 m 1158 333 q 1142 357 1154 349 q 1114 365 1129 365 q 1085 357 1099 365 q 1069 333 1072 349 q 1114 338 1090 338 q 1158 333 1135 338 m 1168 378 q 1145 402 1160 394 q 1115 410 1131 410 q 1084 401 1099 410 q 1063 378 1069 393 q 1115 382 1088 382 q 1168 378 1140 382 m 422 390 q 402 418 418 408 q 367 428 386 428 q 333 419 349 428 q 310 390 317 410 q 337 395 324 393 q 365 397 350 397 q 422 390 390 397 m 1174 426 q 1151 456 1168 446 q 1114 467 1133 467 q 1077 456 1094 467 q 1056 426 1060 446 q 1085 433 1071 431 q 1115 436 1100 436 q 1174 426 1144 436 m 431 444 q 405 471 421 463 q 371 479 389 479 q 333 470 351 479 q 307 444 315 461 q 372 451 339 451 q 431 444 406 451 m 1183 482 q 1159 513 1178 503 q 1117 524 1140 524 q 1074 513 1093 524 q 1051 482 1054 503 q 1117 494 1085 494 q 1183 482 1150 494 m 440 504 q 413 534 432 524 q 372 544 394 544 q 328 534 349 544 q 297 504 307 524 q 368 513 332 513 q 440 504 404 513 m 163 547 q 165 560 163 554 q 175 567 167 567 q 192 558 183 567 q 209 538 201 550 q 222 514 217 526 q 226 494 226 501 q 213 516 219 508 q 194 524 206 524 q 173 531 183 524 q 163 547 163 539 m 888 539 q 894 551 888 550 q 904 553 901 553 q 923 546 917 553 q 929 536 929 539 q 919 527 929 531 q 907 524 910 524 q 892 530 896 524 q 888 539 888 536 m 583 557 q 571 542 583 542 q 560 541 567 542 q 536 533 553 540 q 553 553 544 546 q 576 563 561 560 q 583 557 583 563 m 661 560 l 661 546 l 807 546 l 811 560 l 661 560 m 1317 576 q 1333 572 1324 576 q 1343 561 1343 568 q 1340 549 1343 553 q 1335 546 1338 546 q 1322 551 1325 546 q 1310 557 1318 557 q 1291 551 1303 557 q 1272 542 1279 546 q 1294 567 1279 558 q 1317 576 1310 576 m 1036 657 q 1062 588 1036 618 q 1126 558 1088 558 q 1184 583 1161 558 q 1207 640 1207 607 q 1180 708 1207 679 q 1113 736 1153 736 q 1058 713 1081 736 q 1036 657 1036 689 m 285 665 q 306 599 285 626 q 369 571 328 571 q 422 599 403 571 q 442 657 442 626 q 419 717 442 690 q 363 744 397 744 q 308 721 331 744 q 285 665 285 697 m 646 597 l 656 582 l 819 582 l 825 597 l 646 597 m 1057 656 q 1071 699 1057 683 q 1113 715 1085 715 q 1153 699 1139 715 q 1168 656 1168 682 q 1155 615 1168 632 q 1115 597 1142 597 q 1074 616 1092 597 q 1057 656 1057 635 m 306 667 q 320 706 306 692 q 358 721 335 721 q 401 705 383 721 q 418 663 418 689 q 403 624 418 639 q 365 610 388 610 q 324 626 342 610 q 306 667 306 643 m 974 626 l 974 654 l 489 654 l 489 626 l 974 626 m 1078 647 q 1090 626 1078 635 q 1113 618 1101 618 q 1141 627 1126 618 q 1156 651 1156 636 q 1154 660 1156 654 q 1147 667 1153 667 q 1134 653 1142 667 q 1115 639 1126 639 q 1099 648 1107 639 q 1085 657 1092 657 q 1079 653 1081 657 q 1078 647 1078 650 m 324 665 q 338 640 325 649 q 364 631 351 631 q 388 639 374 631 q 401 667 401 647 q 400 676 401 671 q 393 682 399 682 q 385 678 388 682 q 379 669 382 674 q 372 661 376 665 q 360 657 368 657 q 344 666 351 657 q 329 675 336 675 q 324 665 324 675 m 618 1064 l 618 1097 l 88 1097 l 88 1064 l 618 1064 m 618 1010 l 618 1040 l 88 1040 l 88 1010 l 618 1010 m 460 956 l 460 983 l 254 983 l 254 956 l 460 956 m 460 900 l 460 926 l 254 926 l 254 900 l 460 900 m 460 847 l 460 869 l 254 869 l 254 847 l 460 847 m 460 799 l 460 817 l 254 817 l 254 799 l 460 799 m 460 754 l 460 768 l 254 768 l 254 754 l 460 754 m 1375 1064 l 1375 1097 l 832 1097 l 832 1064 l 1375 1064 m 1375 1010 l 1375 1040 l 832 1040 l 832 1010 l 1375 1010 m 1219 956 l 1219 983 l 1003 983 l 1003 956 l 1219 956 m 1219 900 l 1219 926 l 1003 926 l 1003 900 l 1219 900 m 1219 847 l 1219 869 l 1003 869 l 1003 847 l 1219 847 m 1219 799 l 1219 817 l 1003 817 l 1003 799 l 1219 799 m 1219 754 l 1219 768 l 1003 768 l 1003 754 l 1219 754 z "},"I":{"ha":726,"x_min":21,"x_max":701,"o":"m 21 206 q 38 128 21 165 q 83 63 54 92 q 147 17 111 35 q 224 0 183 0 q 260 5 238 0 q 307 22 283 10 q 351 51 331 33 q 382 96 372 69 q 449 28 406 56 q 542 0 492 0 q 604 13 575 0 q 655 49 633 26 q 688 102 676 72 q 700 165 700 132 q 690 216 700 190 q 663 263 681 242 q 621 296 644 283 q 568 308 597 308 q 558 317 561 310 q 552 335 554 325 q 550 353 550 344 q 550 365 550 361 q 554 408 550 396 q 568 422 558 421 q 589 419 582 419 q 642 442 621 419 q 664 496 664 465 q 649 551 664 529 q 617 585 635 572 q 581 602 599 597 q 558 607 564 607 l 558 900 l 701 900 l 701 1064 l 635 1150 l 21 1150 l 21 972 q 31 960 21 971 q 51 935 40 949 q 73 911 63 922 q 86 900 83 900 l 183 900 l 183 578 q 162 588 176 583 q 135 593 147 593 q 86 580 107 592 q 65 536 65 568 q 74 503 65 518 q 95 476 83 488 q 120 459 107 465 q 142 451 133 453 q 160 441 150 450 q 171 404 171 432 q 168 377 171 396 q 160 339 165 358 q 147 303 156 319 q 128 282 139 286 q 115 286 121 285 q 103 288 110 288 q 78 284 92 288 q 53 271 65 281 q 31 246 40 261 q 21 206 22 231 m 53 179 q 92 174 71 174 q 151 194 122 174 q 203 250 181 215 q 240 329 226 285 q 254 421 254 374 q 244 501 254 467 q 207 561 235 536 l 207 983 l 46 983 l 46 1125 l 624 1125 l 624 983 l 471 983 l 471 581 q 433 507 447 542 q 419 428 419 472 q 429 347 419 389 q 460 271 439 306 q 513 214 481 236 q 592 192 546 192 q 613 195 596 192 q 633 200 629 199 q 619 142 633 164 q 582 107 604 119 q 535 90 560 94 q 490 86 511 86 q 404 110 442 86 q 343 188 367 133 q 274 112 315 142 q 174 82 232 82 q 131 89 153 82 q 92 108 110 96 q 64 139 75 121 q 53 179 53 157 m 442 413 q 447 467 442 436 q 463 524 451 497 q 495 569 475 551 q 547 588 515 588 q 597 575 572 588 q 621 532 621 563 q 610 502 621 517 q 581 488 600 488 q 565 493 572 488 q 550 499 558 499 q 523 487 535 499 q 504 458 511 475 q 494 424 497 442 q 490 394 490 406 q 509 319 490 354 q 556 274 528 285 q 588 292 563 292 q 619 282 607 292 q 632 254 632 272 q 613 222 632 231 q 578 214 594 214 q 516 234 542 214 q 474 285 490 254 q 450 349 458 315 q 442 413 442 383 m 46 232 q 65 260 46 251 q 103 269 83 269 q 122 267 111 269 q 152 290 140 272 q 171 331 164 308 q 181 374 178 353 q 183 406 183 394 q 172 468 183 454 q 142 482 160 482 q 126 484 136 482 q 108 491 117 486 q 92 505 99 496 q 85 526 85 514 q 102 560 85 547 q 139 572 119 572 q 184 556 165 572 q 214 515 203 539 q 230 465 225 492 q 235 417 235 438 q 226 349 235 386 q 199 278 217 311 q 153 224 181 246 q 92 201 126 201 q 61 207 76 201 q 46 232 46 213 m 261 631 q 284 566 261 593 q 346 539 307 539 q 401 563 382 539 q 419 619 419 588 q 397 684 419 657 q 333 711 375 711 q 281 686 301 711 q 261 631 261 661 m 74 1064 l 597 1064 l 597 1097 l 74 1097 l 74 1064 m 74 1010 l 597 1010 l 597 1040 l 74 1040 l 74 1010 m 456 407 q 462 350 456 381 q 483 294 468 319 q 521 251 497 268 q 578 235 544 235 q 599 239 586 235 q 611 257 611 243 q 606 268 611 264 q 593 272 600 272 q 581 270 583 272 q 569 261 578 268 q 523 275 542 261 q 493 308 504 289 q 477 351 482 328 q 472 392 472 374 q 473 422 472 401 q 480 465 474 443 q 500 502 486 486 q 539 518 514 518 q 560 515 554 518 q 581 513 565 513 q 595 517 588 513 q 603 532 603 521 q 585 557 603 547 q 554 567 567 567 q 505 550 524 567 q 475 509 486 533 q 460 457 464 485 q 456 407 456 429 m 72 228 q 78 219 72 221 q 93 217 85 217 q 144 238 121 217 q 185 289 168 258 q 213 353 203 319 q 222 414 222 388 q 219 458 222 433 q 206 505 215 483 q 178 541 196 526 q 135 556 161 556 q 117 549 125 556 q 108 532 108 542 q 150 503 108 503 q 194 478 181 503 q 207 411 207 454 q 185 320 207 367 q 129 250 163 274 q 118 252 122 251 q 107 253 114 253 q 81 245 89 253 q 72 228 72 238 m 281 636 q 297 677 281 660 q 338 694 314 694 q 379 681 364 694 q 394 640 394 667 q 340 583 394 583 q 299 598 317 583 q 281 636 281 613 m 239 956 l 443 956 l 443 983 l 239 983 l 239 956 m 239 900 l 443 900 l 443 926 l 239 926 l 239 900 m 239 847 l 443 847 l 443 869 l 239 869 l 239 847 m 239 799 l 443 799 l 443 817 l 239 817 l 239 799 m 408 464 q 387 496 408 485 q 339 507 365 507 q 291 496 313 507 q 269 464 269 485 q 342 481 304 481 q 408 464 375 481 m 239 754 l 443 754 l 443 768 l 239 768 l 239 754 m 396 410 q 378 438 396 429 q 339 447 360 447 q 301 438 318 447 q 283 410 283 429 q 339 421 313 421 q 396 410 365 421 m 303 638 q 315 613 303 622 q 340 604 326 604 q 367 616 360 604 q 374 636 374 628 q 364 654 374 654 q 359 651 360 654 q 357 642 358 647 q 352 634 356 638 q 340 631 349 631 q 323 641 325 631 q 313 651 321 651 q 305 647 307 651 q 303 638 303 642 m 86 160 q 117 116 89 133 q 176 99 144 99 q 222 114 203 99 q 153 123 182 114 q 86 160 124 132 m 488 113 q 506 107 492 107 q 534 112 518 107 q 565 125 550 117 q 590 145 579 133 q 600 171 600 157 q 548 139 578 153 q 488 113 518 125 m 142 171 q 162 142 142 151 q 206 132 182 132 q 251 146 236 132 q 196 149 219 146 q 142 171 172 151 m 442 135 q 464 128 447 128 q 488 131 475 128 q 513 142 501 135 q 531 158 524 149 q 539 181 539 168 q 490 154 515 165 q 442 135 465 143 m 385 363 q 372 385 385 378 q 342 393 358 393 q 309 385 324 393 q 294 363 294 378 q 343 371 321 371 q 385 363 365 371 m 376 321 q 365 343 376 336 q 340 350 354 350 q 315 343 326 350 q 304 321 304 336 q 322 325 313 324 q 340 326 331 326 q 376 321 361 326 m 401 158 q 432 153 414 153 q 469 163 453 153 q 486 192 486 172 q 401 158 446 169 m 378 192 q 406 176 386 176 q 435 187 421 176 q 450 213 450 197 q 378 192 415 196 m 183 194 q 200 170 183 179 q 236 161 217 161 q 271 172 256 161 q 227 181 249 175 q 183 194 206 188 m 221 224 q 234 202 224 208 q 260 196 244 196 q 296 204 276 196 q 221 224 249 208 m 140 539 q 181 513 163 539 q 144 517 163 515 q 126 529 126 519 q 130 535 126 532 q 140 539 133 539 m 367 282 q 357 301 367 297 q 340 306 347 306 q 324 301 333 306 q 314 282 314 297 q 342 289 331 289 q 367 282 353 289 m 322 249 l 360 249 q 342 265 360 265 q 328 261 335 265 q 322 249 322 257 m 518 533 q 531 542 519 535 q 553 550 542 550 q 569 546 561 550 q 578 538 578 542 q 572 532 578 532 q 557 534 564 532 q 539 536 550 536 q 530 535 535 536 q 518 533 525 535 z "},"J":{"ha":983,"x_min":21,"x_max":961,"o":"m 21 339 q 60 192 21 256 q 160 85 99 128 q 297 22 221 43 q 449 0 374 0 q 543 13 493 0 q 633 42 593 26 q 732 102 693 65 q 793 187 771 139 q 824 292 815 235 q 832 417 832 350 q 879 447 860 428 q 899 508 899 465 q 878 574 899 549 q 825 615 857 599 l 825 900 l 961 900 l 961 1057 l 899 1150 l 290 1150 l 290 976 l 346 900 l 442 900 l 442 607 q 418 615 429 614 q 400 617 407 617 q 353 597 374 614 q 333 544 333 579 q 355 492 333 508 q 400 472 376 475 q 419 436 411 457 q 426 378 426 415 q 423 330 426 354 q 404 285 419 306 q 373 252 394 269 q 328 235 351 235 q 301 244 313 235 q 325 301 315 271 q 335 374 335 332 q 295 472 335 436 q 192 508 256 508 q 123 496 154 508 q 69 461 92 483 q 33 408 46 439 q 21 339 21 376 m 306 1125 l 883 1125 l 883 983 l 731 983 l 731 582 q 709 521 714 550 q 704 461 704 492 q 706 415 704 438 q 707 368 707 392 q 699 289 707 322 q 675 213 690 256 q 623 140 658 167 q 544 99 588 113 q 452 81 500 85 q 363 78 404 78 q 247 94 304 78 q 144 144 190 111 q 70 227 99 178 q 42 340 42 276 q 53 395 42 368 q 83 443 64 422 q 131 477 103 464 q 192 490 158 490 q 274 456 240 490 q 307 369 307 422 q 281 311 307 336 q 222 286 254 286 q 194 293 208 286 q 217 254 200 271 q 253 226 233 238 q 295 208 274 214 q 333 201 317 201 q 416 226 382 201 q 472 290 450 251 q 503 373 493 328 q 513 457 513 418 q 503 533 513 496 q 464 593 493 569 l 464 983 l 306 983 l 306 1125 m 617 186 q 478 136 542 150 q 363 122 415 122 q 272 138 319 122 q 183 183 224 154 q 115 253 142 213 q 88 344 88 294 q 96 383 88 365 q 118 416 104 401 q 151 439 132 431 q 192 447 169 447 q 233 431 215 447 q 250 374 250 414 q 241 352 250 367 q 215 338 232 338 q 181 356 181 338 q 184 363 181 360 q 190 365 188 365 q 215 369 203 365 q 226 386 226 372 q 215 418 226 408 q 189 428 203 428 q 160 421 175 428 q 135 403 146 414 q 116 377 124 392 q 108 347 108 363 q 129 273 108 307 q 183 215 150 239 q 256 176 215 190 q 338 163 297 163 q 404 174 372 163 q 443 192 436 185 q 385 181 415 185 q 339 176 356 176 q 269 192 306 176 q 204 233 233 208 q 156 289 175 258 q 136 350 136 319 q 155 385 136 368 q 192 401 174 401 q 204 397 199 401 q 210 386 210 393 q 203 375 210 378 q 189 371 197 372 q 171 367 179 369 q 163 353 163 364 q 174 322 163 336 q 214 308 186 308 q 262 330 243 308 q 281 368 281 351 q 272 417 281 397 q 249 449 263 436 q 220 467 236 461 q 190 472 204 472 q 144 462 167 472 q 103 433 121 451 q 73 392 85 415 q 61 343 61 368 q 85 251 61 294 q 151 174 110 207 q 247 122 192 142 q 363 103 301 103 q 420 108 388 103 q 488 123 453 113 q 556 149 522 133 q 617 186 590 164 m 524 651 q 544 586 524 615 q 601 557 564 557 q 655 575 629 557 q 681 625 681 593 q 657 693 681 664 q 594 722 633 722 q 544 703 564 722 q 524 651 524 683 m 682 172 q 720 271 711 219 q 729 385 729 322 q 728 436 729 408 q 726 492 726 464 q 753 568 726 542 q 810 594 779 594 q 849 578 833 594 q 864 539 864 561 q 858 512 864 522 q 842 496 851 501 q 823 488 833 490 q 803 482 813 485 q 779 450 788 476 q 768 404 771 424 q 760 351 765 379 q 747 292 756 322 q 722 231 738 261 q 682 172 707 200 m 419 265 q 433 300 429 285 q 440 330 438 315 q 442 359 442 344 q 444 393 443 374 q 441 446 444 417 q 418 489 438 475 q 403 494 414 492 q 380 501 392 496 q 358 516 368 506 q 349 546 349 526 q 362 583 349 569 q 400 596 375 596 q 444 579 426 596 q 473 538 463 563 q 488 485 483 513 q 492 438 492 458 q 486 394 492 418 q 472 347 481 371 q 449 302 463 324 q 419 265 436 281 m 854 1064 l 854 1097 l 338 1097 l 338 1064 l 854 1064 m 854 1010 l 854 1040 l 338 1040 l 338 1010 l 854 1010 m 538 651 q 552 694 538 675 q 594 713 567 713 q 638 694 622 713 q 653 651 653 676 q 637 609 653 625 q 594 593 621 593 q 552 608 567 593 q 538 651 538 624 m 735 307 q 749 360 746 328 q 757 424 753 393 q 769 480 761 456 q 801 508 778 504 q 831 518 817 511 q 846 542 846 525 q 810 578 846 578 q 760 547 776 578 q 743 475 743 515 q 742 400 743 446 q 735 307 740 354 m 453 335 q 463 360 458 344 q 471 390 468 375 q 476 415 474 404 q 478 428 478 425 q 474 471 478 446 q 463 517 471 496 q 439 554 454 539 q 400 569 424 569 q 379 565 389 569 q 369 546 369 560 q 378 525 369 532 q 397 515 386 518 q 417 510 407 511 q 432 504 428 508 q 451 471 443 493 q 460 408 460 449 q 458 372 460 389 q 453 335 457 354 m 701 956 l 701 983 l 499 983 l 499 956 l 701 956 m 701 900 l 701 926 l 499 926 l 499 900 l 701 900 m 701 847 l 701 869 l 499 869 l 499 847 l 701 847 m 683 471 q 651 502 674 492 q 604 513 629 513 q 558 501 579 513 q 526 467 536 490 q 607 483 572 483 q 683 471 638 483 m 701 799 l 701 817 l 499 817 l 499 799 l 701 799 m 682 413 q 653 440 672 431 q 610 449 633 449 q 567 440 588 449 q 536 413 547 432 q 611 424 576 424 q 682 413 644 424 m 701 754 l 701 768 l 499 768 l 499 754 l 701 754 m 657 321 q 634 345 650 338 q 599 353 618 353 q 560 345 578 353 q 535 322 542 338 q 557 326 546 325 q 583 328 568 328 q 617 326 599 328 q 657 321 636 324 m 669 365 q 643 388 661 381 q 604 394 625 394 q 565 387 585 394 q 536 363 546 379 q 610 374 576 374 q 669 365 640 374 m 563 643 q 594 618 563 618 q 619 628 607 618 q 632 656 632 639 q 631 661 632 658 q 628 664 631 664 q 613 652 618 664 q 594 640 608 640 q 580 649 586 640 q 568 658 574 658 q 564 653 565 658 q 563 643 563 647 m 639 279 q 616 300 632 293 q 582 307 600 307 q 547 300 563 307 q 528 281 532 293 q 581 288 558 288 q 639 279 610 288 m 763 497 q 781 540 763 521 q 815 560 799 560 q 825 547 825 560 q 818 538 825 542 q 801 528 811 533 q 781 515 792 522 q 763 497 769 508 m 386 542 q 391 551 386 547 q 400 556 396 556 q 426 541 411 556 q 444 517 442 526 q 431 519 440 518 q 411 524 421 521 q 394 531 401 526 q 386 542 386 535 m 611 238 q 594 258 606 251 q 568 264 582 264 q 544 258 556 264 q 526 242 532 253 q 560 246 543 246 q 611 238 586 246 m 575 203 q 562 217 572 213 q 540 222 551 222 q 522 219 531 222 q 511 207 514 215 l 522 207 q 575 203 550 207 z "}}}
